<svg width="94" height="23" viewBox="0 0 94 23" fill="none" xmlns="http://www.w3.org/2000/svg">
<g clip-path="url(#clip0_26021_38717)">
<path d="M19.121 18.8497L15.1801 6.74365H11.2747L7.38364 18.7836L3.67581 6.74365H0L5.22548 22.5875H9.28026L13.1874 10.6314L17.0927 22.5875H21.2133L26.4388 6.74365H22.8448L19.121 18.8497Z" fill="white"/>
<path d="M38.3291 7.38113C37.2029 6.68141 35.9094 6.33154 34.4469 6.33154C32.9079 6.33154 31.545 6.68141 30.3583 7.38113C29.1716 8.08086 28.2464 9.06263 27.581 10.3246C26.9156 11.5866 26.5847 13.0343 26.5847 14.6658C26.5847 16.3187 26.928 17.7771 27.6148 19.0391C28.3016 20.3011 29.2552 21.2775 30.474 21.9665C31.6945 22.6556 33.0894 23.0001 34.6604 23.0001C35.9236 23.0001 37.0908 22.8269 38.1636 22.4788C39.2347 22.1308 40.2328 21.5613 41.1544 20.767L39.4411 18.3037C38.781 18.832 38.0533 19.2444 37.2562 19.5353C36.4592 19.8281 35.6656 19.9745 34.8739 19.9745C34.1053 19.9745 33.3936 19.8317 32.7389 19.5443C32.0841 19.2569 31.5326 18.8106 31.0824 18.2055C30.6323 17.5986 30.3352 16.8435 30.1929 15.9403H41.8466C41.891 15.4119 41.9124 14.9818 41.9124 14.6497C41.9124 13.0182 41.5957 11.5742 40.9641 10.3175C40.3342 9.05906 39.4553 8.08086 38.3291 7.38113ZM30.1946 13.3092C30.3921 12.1079 30.8458 11.1565 31.5539 10.4567C32.2621 9.757 33.205 9.40713 34.3811 9.40713C35.4682 9.40713 36.3613 9.74986 37.0587 10.4317C37.7562 11.1154 38.1992 12.074 38.386 13.3092H30.1946Z" fill="white"/>
<path d="M56.5925 7.40605C55.3898 6.69026 54.0571 6.33147 52.5946 6.33147C51.5182 6.33147 50.5664 6.53318 49.7426 6.93481C48.9188 7.33822 48.2214 7.90229 47.6485 8.63058V0H44.204V22.5877H47.6485V20.7027C48.2196 21.431 48.9171 21.995 49.7426 22.3984C50.5664 22.8001 51.5165 23.0018 52.5946 23.0018C54.0554 23.0018 55.388 22.643 56.5925 21.9272C57.7952 21.2114 58.7453 20.2189 59.4445 18.9498C60.142 17.6824 60.4907 16.2544 60.4907 14.6675C60.4907 13.0806 60.142 11.6526 59.4445 10.3853C58.7453 9.11432 57.7952 8.12363 56.5925 7.40605ZM56.3683 17.229C55.984 18.0002 55.4289 18.6124 54.703 19.064C53.9771 19.5156 53.1373 19.7423 52.1819 19.7423C51.2478 19.7423 50.4205 19.521 49.7017 19.0801C48.9811 18.6392 48.4207 18.0323 48.0203 17.2612C47.6182 16.49 47.419 15.6243 47.419 14.664C47.419 13.7054 47.62 12.8397 48.0203 12.0685C48.4207 11.2974 48.9811 10.6905 49.7017 10.2496C50.4205 9.80869 51.2478 9.58735 52.1819 9.58735C53.1373 9.58735 53.9789 9.81405 54.703 10.2657C55.4289 10.7173 55.9822 11.3295 56.3683 12.1007C56.7526 12.8718 56.9448 13.7268 56.9448 14.664C56.9465 15.6029 56.7544 16.4579 56.3683 17.229Z" fill="white"/>
<path d="M74.0464 7.38113C72.9201 6.68141 71.6267 6.33154 70.1642 6.33154C68.6252 6.33154 67.2623 6.68141 66.0756 7.38113C64.8889 8.08086 63.9637 9.06263 63.2983 10.3246C62.6329 11.5866 62.3019 13.0343 62.3019 14.6658C62.3019 16.3187 62.6453 17.7771 63.3321 19.0391C64.0189 20.3011 64.9725 21.2775 66.1912 21.9665C67.4118 22.6556 68.8067 23.0001 70.3777 23.0001C71.6409 23.0001 72.8081 22.8269 73.8809 22.4788C74.952 22.1308 75.9501 21.5613 76.8717 20.767L75.1584 18.3037C74.4983 18.832 73.7706 19.2444 72.9735 19.5353C72.1764 19.8281 71.3829 19.9745 70.5912 19.9745C69.8226 19.9745 69.1109 19.8317 68.4562 19.5443C67.8014 19.2569 67.2499 18.8106 66.7997 18.2055C66.3496 17.5986 66.0525 16.8435 65.9101 15.9403H77.5638C77.6083 15.4119 77.6297 14.9818 77.6297 14.6497C77.6297 13.0182 77.313 11.5742 76.6814 10.3175C76.0515 9.05906 75.1726 8.08086 74.0464 7.38113ZM65.9119 13.3092C66.1094 12.1079 66.5631 11.1565 67.2712 10.4567C67.9793 9.757 68.9223 9.40713 70.0984 9.40713C71.1854 9.40713 72.0786 9.74986 72.776 10.4317C73.4735 11.1154 73.9165 12.074 74.1033 13.3092H65.9119Z" fill="white"/>
<path d="M88.0486 14.4674L93.8844 6.74365H89.8136L85.9563 12.0362L82.099 6.74365H77.8628L83.7145 14.4996L77.7631 22.5875H81.8019L85.7588 17.0807L89.7638 22.5875H94L88.0486 14.4674Z" fill="white"/>
</g>
<defs>
<clipPath id="clip0_26021_38717">
<rect width="94" height="23" fill="white"/>
</clipPath>
</defs>
</svg>
