<svg width="47" height="47" viewBox="0 0 47 47" fill="none" xmlns="http://www.w3.org/2000/svg">
<rect x="4.67432" y="4.68164" width="37.6367" height="37.6367" rx="8.26172" fill="url(#paint0_linear_3857_6344)"/>
<g clip-path="url(#clip0_3857_6344)">
<path d="M17.3185 35.2935C11.2703 35.2935 9.21172 27.6444 8.75046 26.1564C7.59211 22.4198 7.23998 19.0539 7.2027 18.7007C6.9876 16.6625 8.62229 15.2441 10.4164 15.2441C11.7748 15.2441 13.3514 16.0573 13.5603 18.0303C13.5965 18.3621 13.8727 21.2242 14.8497 24.3427C15.8693 27.5973 16.9509 28.849 17.7298 28.849C18.9877 28.849 19.7551 25.6182 20.4336 22.5419C20.9335 20.2754 21.4738 17.9916 22.5406 15.9629C24.3965 12.4336 27.201 11.6123 29.6238 11.6123C34.9364 11.6123 37.5953 17.7675 37.5953 19.3623C37.5953 22.0273 35.4216 22.7071 34.4795 22.7071C32.419 22.7071 31.7205 21.3264 31.1325 20.1162C30.6037 19.0275 30.0514 18.1223 29.3373 18.1223C29.1027 18.1223 28.8852 18.2411 28.6841 18.4456C26.9092 20.2495 26.3141 29.6869 22.7653 33.2939C20.7979 35.2935 18.6573 35.2935 17.3185 35.2935Z" fill="url(#paint1_linear_3857_6344)"/>
<path d="M17.3185 35.2935C11.2703 35.2935 9.21172 27.6444 8.75046 26.1564C7.59211 22.4198 7.23998 19.0539 7.2027 18.7007C6.9876 16.6625 8.62229 15.2441 10.4164 15.2441C11.7748 15.2441 13.3514 16.0573 13.5603 18.0303C13.5965 18.3621 13.8727 21.2242 14.8497 24.3427C15.8693 27.5973 16.9509 28.849 17.7298 28.849C18.9877 28.849 19.7551 25.6182 20.4336 22.5419C20.9335 20.2754 21.4738 17.9916 22.5406 15.9629C24.3965 12.4336 27.201 11.6123 29.6238 11.6123C34.9364 11.6123 37.5953 17.7675 37.5953 19.3623C37.5953 22.0273 35.4216 22.7071 34.4795 22.7071C32.419 22.7071 31.7205 21.3264 31.1325 20.1162C30.6037 19.0275 30.0514 18.1223 29.3373 18.1223C29.1027 18.1223 28.8852 18.2411 28.6841 18.4456C26.9092 20.2495 26.3141 29.6869 22.7653 33.2939C20.7979 35.2935 18.6573 35.2935 17.3185 35.2935Z" fill="url(#paint2_radial_3857_6344)"/>
<path d="M17.3185 35.2935C11.2703 35.2935 9.21172 27.6444 8.75046 26.1564C7.59211 22.4198 7.23998 19.0539 7.2027 18.7007C6.9876 16.6625 8.62229 15.2441 10.4164 15.2441C11.7748 15.2441 13.3514 16.0573 13.5603 18.0303C13.5965 18.3621 13.8727 21.2242 14.8497 24.3427C15.8693 27.5973 16.9509 28.849 17.7298 28.849C18.9877 28.849 19.7551 25.6182 20.4336 22.5419C20.9335 20.2754 21.4738 17.9916 22.5406 15.9629C24.3965 12.4336 27.201 11.6123 29.6238 11.6123C34.9364 11.6123 37.5953 17.7675 37.5953 19.3623C37.5953 22.0273 35.4216 22.7071 34.4795 22.7071C32.419 22.7071 31.7205 21.3264 31.1325 20.1162C30.6037 19.0275 30.0514 18.1223 29.3373 18.1223C29.1027 18.1223 28.8852 18.2411 28.6841 18.4456C26.9092 20.2495 26.3141 29.6869 22.7653 33.2939C20.7979 35.2935 18.6573 35.2935 17.3185 35.2935Z" fill="url(#paint3_radial_3857_6344)"/>
<path d="M17.3185 35.2935C11.2703 35.2935 9.21172 27.6444 8.75046 26.1564C7.59211 22.4198 7.23998 19.0539 7.2027 18.7007C6.9876 16.6625 8.62229 15.2441 10.4164 15.2441C11.7748 15.2441 13.3514 16.0573 13.5603 18.0303C13.5965 18.3621 13.8727 21.2242 14.8497 24.3427C15.8693 27.5973 16.9509 28.849 17.7298 28.849C18.9877 28.849 19.7551 25.6182 20.4336 22.5419C20.9335 20.2754 21.4738 17.9916 22.5406 15.9629C24.3965 12.4336 27.201 11.6123 29.6238 11.6123C34.9364 11.6123 37.5953 17.7675 37.5953 19.3623C37.5953 22.0273 35.4216 22.7071 34.4795 22.7071C32.419 22.7071 31.7205 21.3264 31.1325 20.1162C30.6037 19.0275 30.0514 18.1223 29.3373 18.1223C29.1027 18.1223 28.8852 18.2411 28.6841 18.4456C26.9092 20.2495 26.3141 29.6869 22.7653 33.2939C20.7979 35.2935 18.6573 35.2935 17.3185 35.2935Z" fill="url(#paint4_radial_3857_6344)"/>
<path d="M17.3185 35.2935C11.2703 35.2935 9.21172 27.6444 8.75046 26.1564C7.59211 22.4198 7.23998 19.0539 7.2027 18.7007C6.9876 16.6625 8.62229 15.2441 10.4164 15.2441C11.7748 15.2441 13.3514 16.0573 13.5603 18.0303C13.5965 18.3621 13.8727 21.2242 14.8497 24.3427C15.8693 27.5973 16.9509 28.849 17.7298 28.849C18.9877 28.849 19.7551 25.6182 20.4336 22.5419C20.9335 20.2754 21.4738 17.9916 22.5406 15.9629C24.3965 12.4336 27.201 11.6123 29.6238 11.6123C34.9364 11.6123 37.5953 17.7675 37.5953 19.3623C37.5953 22.0273 35.4216 22.7071 34.4795 22.7071C32.419 22.7071 31.7205 21.3264 31.1325 20.1162C30.6037 19.0275 30.0514 18.1223 29.3373 18.1223C29.1027 18.1223 28.8852 18.2411 28.6841 18.4456C26.9092 20.2495 26.3141 29.6869 22.7653 33.2939C20.7979 35.2935 18.6573 35.2935 17.3185 35.2935Z" fill="url(#paint5_radial_3857_6344)"/>
<path d="M17.3185 35.2935C11.2703 35.2935 9.21172 27.6444 8.75046 26.1564C7.59211 22.4198 7.23998 19.0539 7.2027 18.7007C6.9876 16.6625 8.62229 15.2441 10.4164 15.2441C11.7748 15.2441 13.3514 16.0573 13.5603 18.0303C13.5965 18.3621 13.8727 21.2242 14.8497 24.3427C15.8693 27.5973 16.9509 28.849 17.7298 28.849C18.9877 28.849 19.7551 25.6182 20.4336 22.5419C20.9335 20.2754 21.4738 17.9916 22.5406 15.9629C24.3965 12.4336 27.201 11.6123 29.6238 11.6123C34.9364 11.6123 37.5953 17.7675 37.5953 19.3623C37.5953 22.0273 35.4216 22.7071 34.4795 22.7071C32.419 22.7071 31.7205 21.3264 31.1325 20.1162C30.6037 19.0275 30.0514 18.1223 29.3373 18.1223C29.1027 18.1223 28.8852 18.2411 28.6841 18.4456C26.9092 20.2495 26.3141 29.6869 22.7653 33.2939C20.7979 35.2935 18.6573 35.2935 17.3185 35.2935Z" fill="url(#paint6_radial_3857_6344)"/>
<path d="M17.3185 35.2935C11.2703 35.2935 9.21172 27.6444 8.75046 26.1564C7.59211 22.4198 7.23998 19.0539 7.2027 18.7007C6.9876 16.6625 8.62229 15.2441 10.4164 15.2441C11.7748 15.2441 13.3514 16.0573 13.5603 18.0303C13.5965 18.3621 13.8727 21.2242 14.8497 24.3427C15.8693 27.5973 16.9509 28.849 17.7298 28.849C18.9877 28.849 19.7551 25.6182 20.4336 22.5419C20.9335 20.2754 21.4738 17.9916 22.5406 15.9629C24.3965 12.4336 27.201 11.6123 29.6238 11.6123C34.9364 11.6123 37.5953 17.7675 37.5953 19.3623C37.5953 22.0273 35.4216 22.7071 34.4795 22.7071C32.419 22.7071 31.7205 21.3264 31.1325 20.1162C30.6037 19.0275 30.0514 18.1223 29.3373 18.1223C29.1027 18.1223 28.8852 18.2411 28.6841 18.4456C26.9092 20.2495 26.3141 29.6869 22.7653 33.2939C20.7979 35.2935 18.6573 35.2935 17.3185 35.2935Z" fill="url(#paint7_radial_3857_6344)"/>
<path d="M17.3185 35.2935C11.2703 35.2935 9.21172 27.6444 8.75046 26.1564C7.59211 22.4198 7.23998 19.0539 7.2027 18.7007C6.9876 16.6625 8.62229 15.2441 10.4164 15.2441C11.7748 15.2441 13.3514 16.0573 13.5603 18.0303C13.5965 18.3621 13.8727 21.2242 14.8497 24.3427C15.8693 27.5973 16.9509 28.849 17.7298 28.849C18.9877 28.849 19.7551 25.6182 20.4336 22.5419C20.9335 20.2754 21.4738 17.9916 22.5406 15.9629C24.3965 12.4336 27.201 11.6123 29.6238 11.6123C34.9364 11.6123 37.5953 17.7675 37.5953 19.3623C37.5953 22.0273 35.4216 22.7071 34.4795 22.7071C32.419 22.7071 31.7205 21.3264 31.1325 20.1162C30.6037 19.0275 30.0514 18.1223 29.3373 18.1223C29.1027 18.1223 28.8852 18.2411 28.6841 18.4456C26.9092 20.2495 26.3141 29.6869 22.7653 33.2939C20.7979 35.2935 18.6573 35.2935 17.3185 35.2935Z" fill="url(#paint8_linear_3857_6344)"/>
<path d="M17.3185 35.2935C11.2703 35.2935 9.21172 27.6444 8.75046 26.1564C7.59211 22.4198 7.23998 19.0539 7.2027 18.7007C6.9876 16.6625 8.62229 15.2441 10.4164 15.2441C11.7748 15.2441 13.3514 16.0573 13.5603 18.0303C13.5965 18.3621 13.8727 21.2242 14.8497 24.3427C15.8693 27.5973 16.9509 28.849 17.7298 28.849C18.9877 28.849 19.7551 25.6182 20.4336 22.5419C20.9335 20.2754 21.4738 17.9916 22.5406 15.9629C24.3965 12.4336 27.201 11.6123 29.6238 11.6123C34.9364 11.6123 37.5953 17.7675 37.5953 19.3623C37.5953 22.0273 35.4216 22.7071 34.4795 22.7071C32.419 22.7071 31.7205 21.3264 31.1325 20.1162C30.6037 19.0275 30.0514 18.1223 29.3373 18.1223C29.1027 18.1223 28.8852 18.2411 28.6841 18.4456C26.9092 20.2495 26.3141 29.6869 22.7653 33.2939C20.7979 35.2935 18.6573 35.2935 17.3185 35.2935Z" fill="url(#paint9_radial_3857_6344)"/>
<path d="M29.6241 11.6123C27.2013 11.6123 24.3968 12.4336 22.5408 15.9629C21.474 17.9916 20.9337 20.2754 20.4339 22.5419C20.2693 23.2877 20.0995 24.0425 19.9189 24.7583V35.0127C20.8357 34.7533 21.8206 34.2542 22.7656 33.2939C26.3143 29.6869 26.9095 20.2495 28.6844 18.4456C28.8854 18.2411 29.1029 18.1223 29.3375 18.1223C30.0517 18.1223 30.604 19.0275 31.1328 20.1162C31.7207 21.3264 32.4192 22.7071 34.4798 22.7071C35.4219 22.7071 37.5955 22.0273 37.5955 19.3623C37.5955 17.7675 34.9367 11.6123 29.6241 11.6123Z" fill="url(#paint10_radial_3857_6344)"/>
<path d="M17.3185 35.2935C11.2703 35.2935 9.21172 27.6444 8.75046 26.1564C7.59211 22.4198 7.23998 19.0539 7.2027 18.7007C6.9876 16.6625 8.62229 15.2441 10.4164 15.2441C11.7748 15.2441 13.3514 16.0573 13.5603 18.0303C13.5965 18.3621 13.8727 21.2242 14.8497 24.3427C15.8693 27.5973 16.9509 28.849 17.7298 28.849C18.9877 28.849 19.7551 25.6182 20.4336 22.5419C20.9335 20.2754 21.4738 17.9916 22.5406 15.9629C24.3965 12.4336 27.201 11.6123 29.6238 11.6123C34.9364 11.6123 37.5953 17.7675 37.5953 19.3623C37.5953 22.0273 35.4216 22.7071 34.4795 22.7071C32.419 22.7071 31.7205 21.3264 31.1325 20.1162C30.6037 19.0275 30.0514 18.1223 29.3373 18.1223C29.1027 18.1223 28.8852 18.2411 28.6841 18.4456C26.9092 20.2495 26.3141 29.6869 22.7653 33.2939C20.7979 35.2935 18.6573 35.2935 17.3185 35.2935Z" fill="url(#paint11_radial_3857_6344)"/>
<path d="M17.3185 35.2935C11.2703 35.2935 9.21172 27.6444 8.75046 26.1564C7.59211 22.4198 7.23998 19.0539 7.2027 18.7007C6.9876 16.6625 8.62229 15.2441 10.4164 15.2441C11.7748 15.2441 13.3514 16.0573 13.5603 18.0303C13.5965 18.3621 13.8727 21.2242 14.8497 24.3427C15.8693 27.5973 16.9509 28.849 17.7298 28.849C18.9877 28.849 19.7551 25.6182 20.4336 22.5419C20.9335 20.2754 21.4738 17.9916 22.5406 15.9629C24.3965 12.4336 27.201 11.6123 29.6238 11.6123C34.9364 11.6123 37.5953 17.7675 37.5953 19.3623C37.5953 22.0273 35.4216 22.7071 34.4795 22.7071C32.419 22.7071 31.7205 21.3264 31.1325 20.1162C30.6037 19.0275 30.0514 18.1223 29.3373 18.1223C29.1027 18.1223 28.8852 18.2411 28.6841 18.4456C26.9092 20.2495 26.3141 29.6869 22.7653 33.2939C20.7979 35.2935 18.6573 35.2935 17.3185 35.2935Z" fill="url(#paint12_radial_3857_6344)"/>
<path d="M17.3185 35.2935C11.2703 35.2935 9.21172 27.6444 8.75046 26.1564C7.59211 22.4198 7.23998 19.0539 7.2027 18.7007C6.9876 16.6625 8.62229 15.2441 10.4164 15.2441C11.7748 15.2441 13.3514 16.0573 13.5603 18.0303C13.5965 18.3621 13.8727 21.2242 14.8497 24.3427C15.8693 27.5973 16.9509 28.849 17.7298 28.849C18.9877 28.849 19.7551 25.6182 20.4336 22.5419C20.9335 20.2754 21.4738 17.9916 22.5406 15.9629C24.3965 12.4336 27.201 11.6123 29.6238 11.6123C34.9364 11.6123 37.5953 17.7675 37.5953 19.3623C37.5953 22.0273 35.4216 22.7071 34.4795 22.7071C32.419 22.7071 31.7205 21.3264 31.1325 20.1162C30.6037 19.0275 30.0514 18.1223 29.3373 18.1223C29.1027 18.1223 28.8852 18.2411 28.6841 18.4456C26.9092 20.2495 26.3141 29.6869 22.7653 33.2939C20.7979 35.2935 18.6573 35.2935 17.3185 35.2935Z" fill="url(#paint13_radial_3857_6344)"/>
<path d="M17.3185 35.2935C11.2703 35.2935 9.21172 27.6444 8.75046 26.1564C7.59211 22.4198 7.23998 19.0539 7.2027 18.7007C6.9876 16.6625 8.62229 15.2441 10.4164 15.2441C11.7748 15.2441 13.3514 16.0573 13.5603 18.0303C13.5965 18.3621 13.8727 21.2242 14.8497 24.3427C15.8693 27.5973 16.9509 28.849 17.7298 28.849C18.9877 28.849 19.7551 25.6182 20.4336 22.5419C20.9335 20.2754 21.4738 17.9916 22.5406 15.9629C24.3965 12.4336 27.201 11.6123 29.6238 11.6123C34.9364 11.6123 37.5953 17.7675 37.5953 19.3623C37.5953 22.0273 35.4216 22.7071 34.4795 22.7071C32.419 22.7071 31.7205 21.3264 31.1325 20.1162C30.6037 19.0275 30.0514 18.1223 29.3373 18.1223C29.1027 18.1223 28.8852 18.2411 28.6841 18.4456C26.9092 20.2495 26.3141 29.6869 22.7653 33.2939C20.7979 35.2935 18.6573 35.2935 17.3185 35.2935Z" fill="url(#paint14_radial_3857_6344)"/>
<path d="M17.3185 35.2935C11.2703 35.2935 9.21172 27.6444 8.75046 26.1564C7.59211 22.4198 7.23998 19.0539 7.2027 18.7007C6.9876 16.6625 8.62229 15.2441 10.4164 15.2441C11.7748 15.2441 13.3514 16.0573 13.5603 18.0303C13.5965 18.3621 13.8727 21.2242 14.8497 24.3427C15.8693 27.5973 16.9509 28.849 17.7298 28.849C18.9877 28.849 19.7551 25.6182 20.4336 22.5419C20.9335 20.2754 21.4738 17.9916 22.5406 15.9629C24.3965 12.4336 27.201 11.6123 29.6238 11.6123C34.9364 11.6123 37.5953 17.7675 37.5953 19.3623C37.5953 22.0273 35.4216 22.7071 34.4795 22.7071C32.419 22.7071 31.7205 21.3264 31.1325 20.1162C30.6037 19.0275 30.0514 18.1223 29.3373 18.1223C29.1027 18.1223 28.8852 18.2411 28.6841 18.4456C26.9092 20.2495 26.3141 29.6869 22.7653 33.2939C20.7979 35.2935 18.6573 35.2935 17.3185 35.2935Z" fill="url(#paint15_radial_3857_6344)"/>
<path d="M36.6159 15.2441C36.3764 15.2441 36.1355 15.2667 35.8993 15.3133C37.0223 16.9326 37.5842 18.6291 37.5842 19.3621C37.5842 22.0272 35.4105 22.7069 34.4684 22.7069C33.7332 22.7069 33.1715 22.5311 32.7263 22.25C32.7221 22.2667 32.7181 22.2832 32.7139 22.2999C32.5815 22.8288 32.477 23.4077 32.2961 23.9711C31.9483 25.0542 31.4791 26.2915 30.9781 27.2489C30.4381 28.2811 29.9034 28.885 29.2662 28.8533C28.5414 28.8173 27.9538 27.8831 27.2235 25.2429C26.988 24.3917 26.7699 23.4583 26.5678 22.5419C26.0665 20.2687 25.4511 17.9828 24.399 15.9629C22.6804 12.6638 19.7489 11.6123 17.4085 11.6123C15.238 11.6123 13.6164 12.6399 12.3425 13.9347C11.9905 14.2925 11.6059 14.7746 11.2197 15.3411C12.3308 15.6087 13.3814 16.4451 13.5491 18.0301C13.5822 18.3323 13.8141 20.7326 14.5931 23.5142C14.8166 22.8168 15.1425 21.784 15.8996 20.1162C16.2707 19.3525 16.6056 18.8488 16.9077 18.5418C17.1848 18.2601 17.4343 18.1438 17.659 18.1438C17.9013 18.1438 18.7286 18.3656 19.534 21.192C20.5329 24.6968 21.2763 30.2746 24.1085 33.2361C25.3576 34.5425 27.1057 35.3877 29.5285 35.3877C31.6543 35.3877 33.4266 34.4514 34.6903 33.1491C36.768 31.0074 37.9065 27.4666 38.3126 26.1564C39.4682 22.4287 39.792 19.0574 39.8296 18.7007C40.0446 16.6625 38.3276 15.2441 36.6159 15.2441Z" fill="#316AFF"/>
<path d="M36.6159 15.2441C36.3764 15.2441 36.1355 15.2667 35.8993 15.3133C37.0223 16.9326 37.5842 18.6291 37.5842 19.3621C37.5842 22.0272 35.4105 22.7069 34.4684 22.7069C33.7332 22.7069 33.1715 22.5311 32.7263 22.25C32.7221 22.2667 32.7181 22.2832 32.7139 22.2999C32.5815 22.8288 32.477 23.4077 32.2961 23.9711C31.9483 25.0542 31.4791 26.2915 30.9781 27.2489C30.4381 28.2811 29.9034 28.885 29.2662 28.8533C28.5414 28.8173 27.9538 27.8831 27.2235 25.2429C26.988 24.3917 26.7699 23.4583 26.5678 22.5419C26.0665 20.2687 25.4511 17.9828 24.399 15.9629C22.6804 12.6638 19.7489 11.6123 17.4085 11.6123C15.238 11.6123 13.6164 12.6399 12.3425 13.9347C11.9905 14.2925 11.6059 14.7746 11.2197 15.3411C12.3308 15.6087 13.3814 16.4451 13.5491 18.0301C13.5822 18.3323 13.8141 20.7326 14.5931 23.5142C14.8166 22.8168 15.1425 21.784 15.8996 20.1162C16.2707 19.3525 16.6056 18.8488 16.9077 18.5418C17.1848 18.2601 17.4343 18.1438 17.659 18.1438C17.9013 18.1438 18.7286 18.3656 19.534 21.192C20.5329 24.6968 21.2763 30.2746 24.1085 33.2361C25.3576 34.5425 27.1057 35.3877 29.5285 35.3877C31.6543 35.3877 33.4266 34.4514 34.6903 33.1491C36.768 31.0074 37.9065 27.4666 38.3126 26.1564C39.4682 22.4287 39.792 19.0574 39.8296 18.7007C40.0446 16.6625 38.3276 15.2441 36.6159 15.2441Z" fill="url(#paint16_radial_3857_6344)"/>
<path d="M36.6159 15.2441C36.3764 15.2441 36.1355 15.2667 35.8993 15.3133C37.0223 16.9326 37.5842 18.6291 37.5842 19.3621C37.5842 22.0272 35.4105 22.7069 34.4684 22.7069C33.7332 22.7069 33.1715 22.5311 32.7263 22.25C32.7221 22.2667 32.7181 22.2832 32.7139 22.2999C32.5815 22.8288 32.477 23.4077 32.2961 23.9711C31.9483 25.0542 31.4791 26.2915 30.9781 27.2489C30.4381 28.2811 29.9034 28.885 29.2662 28.8533C28.5414 28.8173 27.9538 27.8831 27.2235 25.2429C26.988 24.3917 26.7699 23.4583 26.5678 22.5419C26.0665 20.2687 25.4511 17.9828 24.399 15.9629C22.6804 12.6638 19.7489 11.6123 17.4085 11.6123C15.238 11.6123 13.6164 12.6399 12.3425 13.9347C11.9905 14.2925 11.6059 14.7746 11.2197 15.3411C12.3308 15.6087 13.3814 16.4451 13.5491 18.0301C13.5822 18.3323 13.8141 20.7326 14.5931 23.5142C14.8166 22.8168 15.1425 21.784 15.8996 20.1162C16.2707 19.3525 16.6056 18.8488 16.9077 18.5418C17.1848 18.2601 17.4343 18.1438 17.659 18.1438C17.9013 18.1438 18.7286 18.3656 19.534 21.192C20.5329 24.6968 21.2763 30.2746 24.1085 33.2361C25.3576 34.5425 27.1057 35.3877 29.5285 35.3877C31.6543 35.3877 33.4266 34.4514 34.6903 33.1491C36.768 31.0074 37.9065 27.4666 38.3126 26.1564C39.4682 22.4287 39.792 19.0574 39.8296 18.7007C40.0446 16.6625 38.3276 15.2441 36.6159 15.2441Z" fill="url(#paint17_radial_3857_6344)"/>
<path d="M36.6159 15.2441C36.3764 15.2441 36.1355 15.2667 35.8993 15.3133C37.0223 16.9326 37.5842 18.6291 37.5842 19.3621C37.5842 22.0272 35.4105 22.7069 34.4684 22.7069C33.7332 22.7069 33.1715 22.5311 32.7263 22.25C32.7221 22.2667 32.7181 22.2832 32.7139 22.2999C32.5815 22.8288 32.477 23.4077 32.2961 23.9711C31.9483 25.0542 31.4791 26.2915 30.9781 27.2489C30.4381 28.2811 29.9034 28.885 29.2662 28.8533C28.5414 28.8173 27.9538 27.8831 27.2235 25.2429C26.988 24.3917 26.7699 23.4583 26.5678 22.5419C26.0665 20.2687 25.4511 17.9828 24.399 15.9629C22.6804 12.6638 19.7489 11.6123 17.4085 11.6123C15.238 11.6123 13.6164 12.6399 12.3425 13.9347C11.9905 14.2925 11.6059 14.7746 11.2197 15.3411C12.3308 15.6087 13.3814 16.4451 13.5491 18.0301C13.5822 18.3323 13.8141 20.7326 14.5931 23.5142C14.8166 22.8168 15.1425 21.784 15.8996 20.1162C16.2707 19.3525 16.6056 18.8488 16.9077 18.5418C17.1848 18.2601 17.4343 18.1438 17.659 18.1438C17.9013 18.1438 18.7286 18.3656 19.534 21.192C20.5329 24.6968 21.2763 30.2746 24.1085 33.2361C25.3576 34.5425 27.1057 35.3877 29.5285 35.3877C31.6543 35.3877 33.4266 34.4514 34.6903 33.1491C36.768 31.0074 37.9065 27.4666 38.3126 26.1564C39.4682 22.4287 39.792 19.0574 39.8296 18.7007C40.0446 16.6625 38.3276 15.2441 36.6159 15.2441Z" fill="url(#paint18_radial_3857_6344)"/>
<path d="M36.6159 15.2441C36.3764 15.2441 36.1355 15.2667 35.8993 15.3133C37.0223 16.9326 37.5842 18.6291 37.5842 19.3621C37.5842 22.0272 35.4105 22.7069 34.4684 22.7069C33.7332 22.7069 33.1715 22.5311 32.7263 22.25C32.7221 22.2667 32.7181 22.2832 32.7139 22.2999C32.5815 22.8288 32.477 23.4077 32.2961 23.9711C31.9483 25.0542 31.4791 26.2915 30.9781 27.2489C30.4381 28.2811 29.9034 28.885 29.2662 28.8533C28.5414 28.8173 27.9538 27.8831 27.2235 25.2429C26.988 24.3917 26.7699 23.4583 26.5678 22.5419C26.0665 20.2687 25.4511 17.9828 24.399 15.9629C22.6804 12.6638 19.7489 11.6123 17.4085 11.6123C15.238 11.6123 13.6164 12.6399 12.3425 13.9347C11.9905 14.2925 11.6059 14.7746 11.2197 15.3411C12.3308 15.6087 13.3814 16.4451 13.5491 18.0301C13.5822 18.3323 13.8141 20.7326 14.5931 23.5142C14.8166 22.8168 15.1425 21.784 15.8996 20.1162C16.2707 19.3525 16.6056 18.8488 16.9077 18.5418C17.1848 18.2601 17.4343 18.1438 17.659 18.1438C17.9013 18.1438 18.7286 18.3656 19.534 21.192C20.5329 24.6968 21.2763 30.2746 24.1085 33.2361C25.3576 34.5425 27.1057 35.3877 29.5285 35.3877C31.6543 35.3877 33.4266 34.4514 34.6903 33.1491C36.768 31.0074 37.9065 27.4666 38.3126 26.1564C39.4682 22.4287 39.792 19.0574 39.8296 18.7007C40.0446 16.6625 38.3276 15.2441 36.6159 15.2441Z" fill="url(#paint19_radial_3857_6344)"/>
<path d="M36.6159 15.2441C36.3764 15.2441 36.1355 15.2667 35.8993 15.3133C37.0223 16.9326 37.5842 18.6291 37.5842 19.3621C37.5842 22.0272 35.4105 22.7069 34.4684 22.7069C33.7332 22.7069 33.1715 22.5311 32.7263 22.25C32.7221 22.2667 32.7181 22.2832 32.7139 22.2999C32.5815 22.8288 32.477 23.4077 32.2961 23.9711C31.9483 25.0542 31.4791 26.2915 30.9781 27.2489C30.4381 28.2811 29.9034 28.885 29.2662 28.8533C28.5414 28.8173 27.9538 27.8831 27.2235 25.2429C26.988 24.3917 26.7699 23.4583 26.5678 22.5419C26.0665 20.2687 25.4511 17.9828 24.399 15.9629C22.6804 12.6638 19.7489 11.6123 17.4085 11.6123C15.238 11.6123 13.6164 12.6399 12.3425 13.9347C11.9905 14.2925 11.6059 14.7746 11.2197 15.3411C12.3308 15.6087 13.3814 16.4451 13.5491 18.0301C13.5822 18.3323 13.8141 20.7326 14.5931 23.5142C14.8166 22.8168 15.1425 21.784 15.8996 20.1162C16.2707 19.3525 16.6056 18.8488 16.9077 18.5418C17.1848 18.2601 17.4343 18.1438 17.659 18.1438C17.9013 18.1438 18.7286 18.3656 19.534 21.192C20.5329 24.6968 21.2763 30.2746 24.1085 33.2361C25.3576 34.5425 27.1057 35.3877 29.5285 35.3877C31.6543 35.3877 33.4266 34.4514 34.6903 33.1491C36.768 31.0074 37.9065 27.4666 38.3126 26.1564C39.4682 22.4287 39.792 19.0574 39.8296 18.7007C40.0446 16.6625 38.3276 15.2441 36.6159 15.2441Z" fill="url(#paint20_radial_3857_6344)"/>
<path d="M36.6159 15.2441C36.3764 15.2441 36.1355 15.2667 35.8993 15.3133C37.0223 16.9326 37.5842 18.6291 37.5842 19.3621C37.5842 22.0272 35.4105 22.7069 34.4684 22.7069C33.7332 22.7069 33.1715 22.5311 32.7263 22.25C32.7221 22.2667 32.7181 22.2832 32.7139 22.2999C32.5815 22.8288 32.477 23.4077 32.2961 23.9711C31.9483 25.0542 31.4791 26.2915 30.9781 27.2489C30.4381 28.2811 29.9034 28.885 29.2662 28.8533C28.5414 28.8173 27.9538 27.8831 27.2235 25.2429C26.988 24.3917 26.7699 23.4583 26.5678 22.5419C26.0665 20.2687 25.4511 17.9828 24.399 15.9629C22.6804 12.6638 19.7489 11.6123 17.4085 11.6123C15.238 11.6123 13.6164 12.6399 12.3425 13.9347C11.9905 14.2925 11.6059 14.7746 11.2197 15.3411C12.3308 15.6087 13.3814 16.4451 13.5491 18.0301C13.5822 18.3323 13.8141 20.7326 14.5931 23.5142C14.8166 22.8168 15.1425 21.784 15.8996 20.1162C16.2707 19.3525 16.6056 18.8488 16.9077 18.5418C17.1848 18.2601 17.4343 18.1438 17.659 18.1438C17.9013 18.1438 18.7286 18.3656 19.534 21.192C20.5329 24.6968 21.2763 30.2746 24.1085 33.2361C25.3576 34.5425 27.1057 35.3877 29.5285 35.3877C31.6543 35.3877 33.4266 34.4514 34.6903 33.1491C36.768 31.0074 37.9065 27.4666 38.3126 26.1564C39.4682 22.4287 39.792 19.0574 39.8296 18.7007C40.0446 16.6625 38.3276 15.2441 36.6159 15.2441Z" fill="url(#paint21_radial_3857_6344)"/>
<path d="M36.6159 15.2441C36.3764 15.2441 36.1355 15.2667 35.8993 15.3133C37.0223 16.9326 37.5842 18.6291 37.5842 19.3621C37.5842 22.0272 35.4105 22.7069 34.4684 22.7069C33.7332 22.7069 33.1715 22.5311 32.7263 22.25C32.7221 22.2667 32.7181 22.2832 32.7139 22.2999C32.5815 22.8288 32.477 23.4077 32.2961 23.9711C31.9483 25.0542 31.4791 26.2915 30.9781 27.2489C30.4381 28.2811 29.9034 28.885 29.2662 28.8533C28.5414 28.8173 27.9538 27.8831 27.2235 25.2429C26.988 24.3917 26.7699 23.4583 26.5678 22.5419C26.0665 20.2687 25.4511 17.9828 24.399 15.9629C22.6804 12.6638 19.7489 11.6123 17.4085 11.6123C15.238 11.6123 13.6164 12.6399 12.3425 13.9347C11.9905 14.2925 11.6059 14.7746 11.2197 15.3411C12.3308 15.6087 13.3814 16.4451 13.5491 18.0301C13.5822 18.3323 13.8141 20.7326 14.5931 23.5142C14.8166 22.8168 15.1425 21.784 15.8996 20.1162C16.2707 19.3525 16.6056 18.8488 16.9077 18.5418C17.1848 18.2601 17.4343 18.1438 17.659 18.1438C17.9013 18.1438 18.7286 18.3656 19.534 21.192C20.5329 24.6968 21.2763 30.2746 24.1085 33.2361C25.3576 34.5425 27.1057 35.3877 29.5285 35.3877C31.6543 35.3877 33.4266 34.4514 34.6903 33.1491C36.768 31.0074 37.9065 27.4666 38.3126 26.1564C39.4682 22.4287 39.792 19.0574 39.8296 18.7007C40.0446 16.6625 38.3276 15.2441 36.6159 15.2441Z" fill="url(#paint22_radial_3857_6344)"/>
<path d="M36.6159 15.2441C36.3764 15.2441 36.1355 15.2667 35.8993 15.3133C37.0223 16.9326 37.5842 18.6291 37.5842 19.3621C37.5842 22.0272 35.4105 22.7069 34.4684 22.7069C33.7332 22.7069 33.1715 22.5311 32.7263 22.25C32.7221 22.2667 32.7181 22.2832 32.7139 22.2999C32.5815 22.8288 32.477 23.4077 32.2961 23.9711C31.9483 25.0542 31.4791 26.2915 30.9781 27.2489C30.4381 28.2811 29.9034 28.885 29.2662 28.8533C28.5414 28.8173 27.9538 27.8831 27.2235 25.2429C26.988 24.3917 26.7699 23.4583 26.5678 22.5419C26.0665 20.2687 25.4511 17.9828 24.399 15.9629C22.6804 12.6638 19.7489 11.6123 17.4085 11.6123C15.238 11.6123 13.6164 12.6399 12.3425 13.9347C11.9905 14.2925 11.6059 14.7746 11.2197 15.3411C12.3308 15.6087 13.3814 16.4451 13.5491 18.0301C13.5822 18.3323 13.8141 20.7326 14.5931 23.5142C14.8166 22.8168 15.1425 21.784 15.8996 20.1162C16.2707 19.3525 16.6056 18.8488 16.9077 18.5418C17.1848 18.2601 17.4343 18.1438 17.659 18.1438C17.9013 18.1438 18.7286 18.3656 19.534 21.192C20.5329 24.6968 21.2763 30.2746 24.1085 33.2361C25.3576 34.5425 27.1057 35.3877 29.5285 35.3877C31.6543 35.3877 33.4266 34.4514 34.6903 33.1491C36.768 31.0074 37.9065 27.4666 38.3126 26.1564C39.4682 22.4287 39.792 19.0574 39.8296 18.7007C40.0446 16.6625 38.3276 15.2441 36.6159 15.2441Z" fill="url(#paint23_radial_3857_6344)"/>
<path d="M36.6159 15.2441C36.3764 15.2441 36.1355 15.2667 35.8993 15.3133C37.0223 16.9326 37.5842 18.6291 37.5842 19.3621C37.5842 22.0272 35.4105 22.7069 34.4684 22.7069C33.7332 22.7069 33.1715 22.5311 32.7263 22.25C32.7221 22.2667 32.7181 22.2832 32.7139 22.2999C32.5815 22.8288 32.477 23.4077 32.2961 23.9711C31.9483 25.0542 31.4791 26.2915 30.9781 27.2489C30.4381 28.2811 29.9034 28.885 29.2662 28.8533C28.5414 28.8173 27.9538 27.8831 27.2235 25.2429C26.988 24.3917 26.7699 23.4583 26.5678 22.5419C26.0665 20.2687 25.4511 17.9828 24.399 15.9629C22.6804 12.6638 19.7489 11.6123 17.4085 11.6123C15.238 11.6123 13.6164 12.6399 12.3425 13.9347C11.9905 14.2925 11.6059 14.7746 11.2197 15.3411C12.3308 15.6087 13.3814 16.4451 13.5491 18.0301C13.5822 18.3323 13.8141 20.7326 14.5931 23.5142C14.8166 22.8168 15.1425 21.784 15.8996 20.1162C16.2707 19.3525 16.6056 18.8488 16.9077 18.5418C17.1848 18.2601 17.4343 18.1438 17.659 18.1438C17.9013 18.1438 18.7286 18.3656 19.534 21.192C20.5329 24.6968 21.2763 30.2746 24.1085 33.2361C25.3576 34.5425 27.1057 35.3877 29.5285 35.3877C31.6543 35.3877 33.4266 34.4514 34.6903 33.1491C36.768 31.0074 37.9065 27.4666 38.3126 26.1564C39.4682 22.4287 39.792 19.0574 39.8296 18.7007C40.0446 16.6625 38.3276 15.2441 36.6159 15.2441Z" fill="url(#paint24_radial_3857_6344)"/>
<path d="M36.6159 15.2441C36.3764 15.2441 36.1355 15.2667 35.8993 15.3133C37.0223 16.9326 37.5842 18.6291 37.5842 19.3621C37.5842 22.0272 35.4105 22.7069 34.4684 22.7069C33.7332 22.7069 33.1715 22.5311 32.7263 22.25C32.7221 22.2667 32.7181 22.2832 32.7139 22.2999C32.5815 22.8288 32.477 23.4077 32.2961 23.9711C31.9483 25.0542 31.4791 26.2915 30.9781 27.2489C30.4381 28.2811 29.9034 28.885 29.2662 28.8533C28.5414 28.8173 27.9538 27.8831 27.2235 25.2429C26.988 24.3917 26.7699 23.4583 26.5678 22.5419C26.0665 20.2687 25.4511 17.9828 24.399 15.9629C22.6804 12.6638 19.7489 11.6123 17.4085 11.6123C15.238 11.6123 13.6164 12.6399 12.3425 13.9347C11.9905 14.2925 11.6059 14.7746 11.2197 15.3411C12.3308 15.6087 13.3814 16.4451 13.5491 18.0301C13.5822 18.3323 13.8141 20.7326 14.5931 23.5142C14.8166 22.8168 15.1425 21.784 15.8996 20.1162C16.2707 19.3525 16.6056 18.8488 16.9077 18.5418C17.1848 18.2601 17.4343 18.1438 17.659 18.1438C17.9013 18.1438 18.7286 18.3656 19.534 21.192C20.5329 24.6968 21.2763 30.2746 24.1085 33.2361C25.3576 34.5425 27.1057 35.3877 29.5285 35.3877C31.6543 35.3877 33.4266 34.4514 34.6903 33.1491C36.768 31.0074 37.9065 27.4666 38.3126 26.1564C39.4682 22.4287 39.792 19.0574 39.8296 18.7007C40.0446 16.6625 38.3276 15.2441 36.6159 15.2441Z" fill="url(#paint25_radial_3857_6344)"/>
<path d="M17.3185 35.2935C11.2703 35.2935 9.21172 27.6444 8.75046 26.1564C7.59211 22.4198 7.23998 19.0539 7.2027 18.7007C6.9876 16.6625 8.62229 15.2441 10.4164 15.2441C11.7748 15.2441 13.3514 16.0573 13.5603 18.0303C13.5966 18.3621 13.8727 21.2242 14.8497 24.3427C15.8693 27.5973 16.9509 28.849 17.7298 28.849C18.9877 28.849 19.7551 25.6182 20.4336 22.5419C20.9335 20.2754 21.4738 17.9916 22.5406 15.9629C24.3965 12.4336 27.201 11.6123 29.6238 11.6123C34.9364 11.6123 37.5953 17.7675 37.5953 19.3623C37.5953 22.0273 35.4216 22.7071 34.4795 22.7071C32.419 22.7071 31.7205 21.3264 31.1325 20.1162C30.6037 19.0275 30.0514 18.1223 29.3373 18.1223C29.1027 18.1223 28.8852 18.2411 28.6841 18.4456C26.9092 20.2495 26.3141 29.6869 22.7653 33.2939C20.7979 35.2935 18.6573 35.2935 17.3185 35.2935Z" fill="url(#paint26_linear_3857_6344)"/>
<path d="M17.3185 35.2935C11.2703 35.2935 9.21172 27.6444 8.75046 26.1564C7.59211 22.4198 7.23998 19.0539 7.2027 18.7007C6.9876 16.6625 8.62229 15.2441 10.4164 15.2441C11.7748 15.2441 13.3514 16.0573 13.5603 18.0303C13.5966 18.3621 13.8727 21.2242 14.8497 24.3427C15.8693 27.5973 16.9509 28.849 17.7298 28.849C18.9877 28.849 19.7551 25.6182 20.4336 22.5419C20.9335 20.2754 21.4738 17.9916 22.5406 15.9629C24.3965 12.4336 27.201 11.6123 29.6238 11.6123C34.9364 11.6123 37.5953 17.7675 37.5953 19.3623C37.5953 22.0273 35.4216 22.7071 34.4795 22.7071C32.419 22.7071 31.7205 21.3264 31.1325 20.1162C30.6037 19.0275 30.0514 18.1223 29.3373 18.1223C29.1027 18.1223 28.8852 18.2411 28.6841 18.4456C26.9092 20.2495 26.3141 29.6869 22.7653 33.2939C20.7979 35.2935 18.6573 35.2935 17.3185 35.2935Z" fill="url(#paint27_radial_3857_6344)"/>
<path d="M17.3185 35.2935C11.2703 35.2935 9.21172 27.6444 8.75046 26.1564C7.59211 22.4198 7.23998 19.0539 7.2027 18.7007C6.9876 16.6625 8.62229 15.2441 10.4164 15.2441C11.7748 15.2441 13.3514 16.0573 13.5603 18.0303C13.5966 18.3621 13.8727 21.2242 14.8497 24.3427C15.8693 27.5973 16.9509 28.849 17.7298 28.849C18.9877 28.849 19.7551 25.6182 20.4336 22.5419C20.9335 20.2754 21.4738 17.9916 22.5406 15.9629C24.3965 12.4336 27.201 11.6123 29.6238 11.6123C34.9364 11.6123 37.5953 17.7675 37.5953 19.3623C37.5953 22.0273 35.4216 22.7071 34.4795 22.7071C32.419 22.7071 31.7205 21.3264 31.1325 20.1162C30.6037 19.0275 30.0514 18.1223 29.3373 18.1223C29.1027 18.1223 28.8852 18.2411 28.6841 18.4456C26.9092 20.2495 26.3141 29.6869 22.7653 33.2939C20.7979 35.2935 18.6573 35.2935 17.3185 35.2935Z" fill="url(#paint28_linear_3857_6344)"/>
<path d="M17.3185 35.2935C11.2703 35.2935 9.21172 27.6444 8.75046 26.1564C7.59211 22.4198 7.23998 19.0539 7.2027 18.7007C6.9876 16.6625 8.62229 15.2441 10.4164 15.2441C11.7748 15.2441 13.3514 16.0573 13.5603 18.0303C13.5966 18.3621 13.8727 21.2242 14.8497 24.3427C15.8693 27.5973 16.9509 28.849 17.7298 28.849C18.9877 28.849 19.7551 25.6182 20.4336 22.5419C20.9335 20.2754 21.4738 17.9916 22.5406 15.9629C24.3965 12.4336 27.201 11.6123 29.6238 11.6123C34.9364 11.6123 37.5953 17.7675 37.5953 19.3623C37.5953 22.0273 35.4216 22.7071 34.4795 22.7071C32.419 22.7071 31.7205 21.3264 31.1325 20.1162C30.6037 19.0275 30.0514 18.1223 29.3373 18.1223C29.1027 18.1223 28.8852 18.2411 28.6841 18.4456C26.9092 20.2495 26.3141 29.6869 22.7653 33.2939C20.7979 35.2935 18.6573 35.2935 17.3185 35.2935Z" fill="url(#paint29_linear_3857_6344)"/>
<path d="M17.3185 35.2935C11.2703 35.2935 9.21172 27.6444 8.75046 26.1564C7.59211 22.4198 7.23998 19.0539 7.2027 18.7007C6.9876 16.6625 8.62229 15.2441 10.4164 15.2441C11.7748 15.2441 13.3514 16.0573 13.5603 18.0303C13.5966 18.3621 13.8727 21.2242 14.8497 24.3427C15.8693 27.5973 16.9509 28.849 17.7298 28.849C18.9877 28.849 19.7551 25.6182 20.4336 22.5419C20.9335 20.2754 21.4738 17.9916 22.5406 15.9629C24.3965 12.4336 27.201 11.6123 29.6238 11.6123C34.9364 11.6123 37.5953 17.7675 37.5953 19.3623C37.5953 22.0273 35.4216 22.7071 34.4795 22.7071C32.419 22.7071 31.7205 21.3264 31.1325 20.1162C30.6037 19.0275 30.0514 18.1223 29.3373 18.1223C29.1027 18.1223 28.8852 18.2411 28.6841 18.4456C26.9092 20.2495 26.3141 29.6869 22.7653 33.2939C20.7979 35.2935 18.6573 35.2935 17.3185 35.2935Z" fill="url(#paint30_radial_3857_6344)"/>
</g>
<defs>
<linearGradient id="paint0_linear_3857_6344" x1="23.4927" y1="4.68164" x2="23.4927" y2="42.3184" gradientUnits="userSpaceOnUse">
<stop stop-color="#313131"/>
<stop offset="1" stop-color="#070707"/>
<stop offset="1" stop-color="#020202"/>
</linearGradient>
<linearGradient id="paint1_linear_3857_6344" x1="34.2859" y1="18.5604" x2="12.9199" y2="25.5674" gradientUnits="userSpaceOnUse">
<stop stop-color="#5CEE64"/>
<stop offset="1" stop-color="#00BBFF"/>
</linearGradient>
<radialGradient id="paint2_radial_3857_6344" cx="0" cy="0" r="1" gradientUnits="userSpaceOnUse" gradientTransform="translate(19.6163 24.241) rotate(-120.86) scale(13.997 11.7503)">
<stop stop-color="#007383"/>
<stop offset="0.407867" stop-color="#00717E" stop-opacity="0.75"/>
<stop offset="0.874482" stop-color="#007281" stop-opacity="0"/>
</radialGradient>
<radialGradient id="paint3_radial_3857_6344" cx="0" cy="0" r="1" gradientUnits="userSpaceOnUse" gradientTransform="translate(28.8128 21.6366) rotate(-126.734) scale(11.4151 7.50031)">
<stop stop-color="#218970"/>
<stop offset="0.459527" stop-color="#267E6A"/>
<stop offset="1" stop-color="#026C51" stop-opacity="0"/>
</radialGradient>
<radialGradient id="paint4_radial_3857_6344" cx="0" cy="0" r="1" gradientUnits="userSpaceOnUse" gradientTransform="translate(18.8103 24.9023) rotate(-107.468) scale(9.29696 4.84346)">
<stop stop-color="#178697"/>
<stop offset="0.407867" stop-color="#17838F" stop-opacity="0.79"/>
<stop offset="0.874482" stop-color="#007281" stop-opacity="0"/>
</radialGradient>
<radialGradient id="paint5_radial_3857_6344" cx="0" cy="0" r="1" gradientUnits="userSpaceOnUse" gradientTransform="translate(22.9437 24.8527) rotate(-120.86) scale(23.6094 7.28268)">
<stop stop-color="#25342F" stop-opacity="0.3"/>
<stop offset="1" stop-color="#25342F" stop-opacity="0"/>
</radialGradient>
<radialGradient id="paint6_radial_3857_6344" cx="0" cy="0" r="1" gradientUnits="userSpaceOnUse" gradientTransform="translate(27.1551 21.8955) rotate(85.0979) scale(8.89198 5.04341)">
<stop stop-color="#056D4F"/>
<stop offset="0.232593" stop-color="#056C4E" stop-opacity="0.75"/>
<stop offset="0.598902" stop-color="#056C4E" stop-opacity="0.300824"/>
<stop offset="0.874482" stop-color="#056C4F" stop-opacity="0"/>
</radialGradient>
<radialGradient id="paint7_radial_3857_6344" cx="0" cy="0" r="1" gradientUnits="userSpaceOnUse" gradientTransform="translate(27.5484 7.51477) rotate(57.0774) scale(10.4527 5.48243)">
<stop stop-color="#22B67B"/>
<stop offset="0.407867" stop-color="#24BE82"/>
<stop offset="1" stop-color="#24BE82" stop-opacity="0.07"/>
</radialGradient>
<linearGradient id="paint8_linear_3857_6344" x1="-0.853135" y1="23.2463" x2="14.2884" y2="23.3708" gradientUnits="userSpaceOnUse">
<stop stop-color="#09F8FF"/>
<stop offset="1" stop-color="#0BF7F9" stop-opacity="0"/>
</linearGradient>
<radialGradient id="paint9_radial_3857_6344" cx="0" cy="0" r="1" gradientUnits="userSpaceOnUse" gradientTransform="translate(2.39974 9.60817) rotate(49.6506) scale(13.6518 13.6177)">
<stop stop-color="#09F8FF"/>
<stop offset="1" stop-color="#0BF7F9" stop-opacity="0"/>
</radialGradient>
<radialGradient id="paint10_radial_3857_6344" cx="0" cy="0" r="1" gradientUnits="userSpaceOnUse" gradientTransform="translate(13.3354 2.73487) rotate(48.0118) scale(27.6885 27.6449)">
<stop stop-color="#00B8FF"/>
<stop offset="0.745423" stop-color="#00B9FC" stop-opacity="0"/>
</radialGradient>
<radialGradient id="paint11_radial_3857_6344" cx="0" cy="0" r="1" gradientUnits="userSpaceOnUse" gradientTransform="translate(14.8012 23.5025) rotate(-107.468) scale(13.3462 9.24744)">
<stop stop-color="#00BCFF" stop-opacity="0.76"/>
<stop offset="0.57273" stop-color="#00BAFC" stop-opacity="0"/>
</radialGradient>
<radialGradient id="paint12_radial_3857_6344" cx="0" cy="0" r="1" gradientUnits="userSpaceOnUse" gradientTransform="translate(35.0911 18.4336) rotate(-129.551) scale(9.43764 6.60728)">
<stop stop-color="#5FEC50"/>
<stop offset="1" stop-color="#3CC08E" stop-opacity="0"/>
</radialGradient>
<radialGradient id="paint13_radial_3857_6344" cx="0" cy="0" r="1" gradientUnits="userSpaceOnUse" gradientTransform="translate(33.7402 24.5123) rotate(-79.0944) scale(2.85722 1.97618)">
<stop stop-color="#28855B"/>
<stop offset="1" stop-color="#14795C" stop-opacity="0"/>
</radialGradient>
<radialGradient id="paint14_radial_3857_6344" cx="0" cy="0" r="1" gradientUnits="userSpaceOnUse" gradientTransform="translate(33.6025 24.302) rotate(-77.8798) scale(2.35545 3.29182)">
<stop stop-color="#28855B"/>
<stop offset="1" stop-color="#14795C" stop-opacity="0"/>
</radialGradient>
<radialGradient id="paint15_radial_3857_6344" cx="0" cy="0" r="1" gradientUnits="userSpaceOnUse" gradientTransform="translate(36.4085 20.0585) rotate(-132.79) scale(7.81359 5.48913)">
<stop stop-color="#5FF05B"/>
<stop offset="0.813285" stop-color="#5DE955" stop-opacity="0"/>
</radialGradient>
<radialGradient id="paint16_radial_3857_6344" cx="0" cy="0" r="1" gradientUnits="userSpaceOnUse" gradientTransform="translate(33.965 22.3029) rotate(37.4559) scale(6.94886 9.65878)">
<stop stop-color="#123AA8"/>
<stop offset="0.966119" stop-color="#123AA8" stop-opacity="0"/>
</radialGradient>
<radialGradient id="paint17_radial_3857_6344" cx="0" cy="0" r="1" gradientUnits="userSpaceOnUse" gradientTransform="translate(32.2363 23.0861) rotate(8.48611) scale(8.19901 12.2382)">
<stop stop-color="#123AA8"/>
<stop offset="0.592487" stop-color="#123AA8" stop-opacity="0"/>
</radialGradient>
<radialGradient id="paint18_radial_3857_6344" cx="0" cy="0" r="1" gradientUnits="userSpaceOnUse" gradientTransform="translate(32.9016 24.1032) rotate(24.6631) scale(7.00371 12.4799)">
<stop stop-color="#123AA8"/>
<stop offset="0.756788" stop-color="#123AA8" stop-opacity="0"/>
</radialGradient>
<radialGradient id="paint19_radial_3857_6344" cx="0" cy="0" r="1" gradientUnits="userSpaceOnUse" gradientTransform="translate(32.0791 24.5181) rotate(95.8028) scale(12.5904 6.89968)">
<stop stop-color="#123AA8"/>
<stop offset="0.592487" stop-color="#123AA8" stop-opacity="0"/>
<stop offset="1" stop-color="#123AA8" stop-opacity="0"/>
</radialGradient>
<radialGradient id="paint20_radial_3857_6344" cx="0" cy="0" r="1" gradientUnits="userSpaceOnUse" gradientTransform="translate(33.965 18.9595) rotate(93.6671) scale(15.1522 5.40745)">
<stop stop-color="#123AA8"/>
<stop offset="0.884611" stop-color="#123AA8" stop-opacity="0"/>
</radialGradient>
<radialGradient id="paint21_radial_3857_6344" cx="0" cy="0" r="1" gradientUnits="userSpaceOnUse" gradientTransform="translate(16.7934 22.11) rotate(84.8296) scale(8.04041 4.25973)">
<stop stop-color="#123AA8"/>
<stop offset="0.884611" stop-color="#123AA8" stop-opacity="0"/>
</radialGradient>
<radialGradient id="paint22_radial_3857_6344" cx="0" cy="0" r="1" gradientUnits="userSpaceOnUse" gradientTransform="translate(16.7876 22.3263) rotate(87.2504) scale(8.39143 6.92788)">
<stop stop-color="#123AA8"/>
<stop offset="0.884611" stop-color="#123AA8" stop-opacity="0"/>
</radialGradient>
<radialGradient id="paint23_radial_3857_6344" cx="0" cy="0" r="1" gradientUnits="userSpaceOnUse" gradientTransform="translate(18.6968 30.2112) rotate(-23.1725) scale(9.35797 18.2916)">
<stop stop-color="#123AA8"/>
<stop offset="0.708977" stop-color="#123AA8" stop-opacity="0"/>
</radialGradient>
<radialGradient id="paint24_radial_3857_6344" cx="0" cy="0" r="1" gradientUnits="userSpaceOnUse" gradientTransform="translate(15.3672 20.2746) rotate(-159.526) scale(6.19979 10.6157)">
<stop stop-color="#1A3DA0"/>
<stop offset="0.708977" stop-color="#123AA8" stop-opacity="0"/>
</radialGradient>
<radialGradient id="paint25_radial_3857_6344" cx="0" cy="0" r="1" gradientUnits="userSpaceOnUse" gradientTransform="translate(9.9098 22.3847) rotate(16.749) scale(11.8247 11.937)">
<stop stop-color="#1E3882"/>
<stop offset="0.761404" stop-color="#123AA8" stop-opacity="0"/>
</radialGradient>
<linearGradient id="paint26_linear_3857_6344" x1="6.20023" y1="15.8443" x2="17.8524" y2="23.2813" gradientUnits="userSpaceOnUse">
<stop offset="0.229329" stop-color="#1DC4FF"/>
<stop offset="1" stop-color="#1CC1FF" stop-opacity="0"/>
</linearGradient>
<radialGradient id="paint27_radial_3857_6344" cx="0" cy="0" r="1" gradientUnits="userSpaceOnUse" gradientTransform="translate(2.39904 9.60762) rotate(49.6506) scale(13.6518 13.6177)">
<stop stop-color="#09F8FF"/>
<stop offset="1" stop-color="#0BF7F9" stop-opacity="0"/>
</radialGradient>
<linearGradient id="paint28_linear_3857_6344" x1="6.8443" y1="16.2242" x2="10.1127" y2="19.1872" gradientUnits="userSpaceOnUse">
<stop stop-color="#26FBFF"/>
<stop offset="0.637346" stop-color="#0BF7F9" stop-opacity="0"/>
</linearGradient>
<linearGradient id="paint29_linear_3857_6344" x1="5.97595" y1="18.4921" x2="10.4967" y2="18.8146" gradientUnits="userSpaceOnUse">
<stop stop-color="#26FBFF"/>
<stop offset="0.637346" stop-color="#0BF7F9" stop-opacity="0"/>
</linearGradient>
<radialGradient id="paint30_radial_3857_6344" cx="0" cy="0" r="1" gradientUnits="userSpaceOnUse" gradientTransform="translate(14.8008 23.5026) rotate(-107.468) scale(13.3462 9.24744)">
<stop stop-color="#00BCFF" stop-opacity="0.76"/>
<stop offset="0.57273" stop-color="#00BAFC" stop-opacity="0"/>
</radialGradient>
<clipPath id="clip0_3857_6344">
<rect width="32.6639" height="23.7754" fill="white" transform="translate(7.18359 11.6123)"/>
</clipPath>
</defs>
</svg>
