<svg width="141" height="66" viewBox="0 0 141 66" fill="none" xmlns="http://www.w3.org/2000/svg">
<g clip-path="url(#clip0_23138_67904)">
<mask id="mask0_23138_67904" style="mask-type:luminance" maskUnits="userSpaceOnUse" x="0" y="0" width="141" height="66">
<path d="M140.352 0H0V65.124H140.352V0Z" fill="white"/>
</mask>
<g mask="url(#mask0_23138_67904)">
<path d="M3.8512 56.2989C3.8512 56.3409 3.8502 56.3769 3.84719 56.4089C3.84519 56.4399 3.84019 56.4679 3.8342 56.4909C3.8272 56.5149 3.81819 56.5359 3.8082 56.5539C3.7982 56.5729 3.7792 56.5939 3.7532 56.6209C3.7272 56.6469 3.6722 56.6869 3.5882 56.7409C3.5052 56.7939 3.4012 56.8459 3.2772 56.8979C3.1522 56.9479 3.0102 56.9909 2.84921 57.0269C2.68821 57.0619 2.5122 57.0789 2.32121 57.0789C1.99221 57.0789 1.69521 57.0249 1.4292 56.9149C1.1642 56.8049 0.938203 56.6429 0.751213 56.4289C0.564213 56.2139 0.420213 55.9499 0.319203 55.6349C0.219203 55.3189 0.168213 54.9559 0.168213 54.5459C0.168213 54.1249 0.223213 53.7499 0.331203 53.4199C0.439203 53.0909 0.592203 52.8119 0.788203 52.5829C0.984203 52.3539 1.2192 52.1799 1.4922 52.0589C1.7652 51.9389 2.0682 51.8789 2.4002 51.8789C2.5472 51.8789 2.6892 51.8919 2.8272 51.9199C2.9662 51.9479 3.0942 51.9819 3.2122 52.0239C3.3302 52.0659 3.4342 52.1139 3.5262 52.1689C3.6172 52.2239 3.68121 52.2689 3.7162 52.3039C3.7512 52.3399 3.7742 52.3659 3.7842 52.3849C3.7952 52.4029 3.8042 52.4249 3.8102 52.4489C3.8162 52.4739 3.8222 52.5039 3.8262 52.5379C3.8302 52.5719 3.8322 52.6119 3.8322 52.6599C3.8322 52.7119 3.8292 52.7559 3.8242 52.7929C3.8182 52.8289 3.8112 52.8599 3.8002 52.8849C3.7892 52.9099 3.7772 52.9279 3.7632 52.9399C3.7482 52.9519 3.7302 52.9579 3.70921 52.9579C3.67221 52.9579 3.6212 52.9319 3.5552 52.8809C3.49021 52.8299 3.40521 52.7739 3.3012 52.7119C3.1972 52.6509 3.0712 52.5939 2.9232 52.5439C2.7742 52.4929 2.5962 52.4669 2.3882 52.4669C2.1622 52.4669 1.9572 52.5119 1.7712 52.6019C1.5862 52.6929 1.4282 52.8249 1.2962 52.9999C1.1652 53.1759 1.0632 53.3889 0.990203 53.6419C0.918203 53.8939 0.882203 54.1819 0.882203 54.5069C0.882203 54.8279 0.917203 55.1119 0.987203 55.3599C1.0562 55.6069 1.1562 55.8129 1.2862 55.9789C1.4162 56.1449 1.5762 56.2709 1.7652 56.3559C1.95519 56.4409 2.1692 56.4839 2.4082 56.4839C2.6102 56.4839 2.7872 56.4589 2.9382 56.4089C3.0892 56.3589 3.2182 56.3039 3.3252 56.2419C3.4312 56.1809 3.5182 56.1249 3.5872 56.0759C3.6552 56.0259 3.7092 56.0009 3.74919 56.0009C3.7672 56.0009 3.78319 56.0049 3.79619 56.0129C3.80919 56.0209 3.82019 56.0359 3.82819 56.0579C3.83519 56.0799 3.84119 56.1109 3.84519 56.1499C3.8492 56.1899 3.8512 56.2389 3.8512 56.2989Z" fill="#919292"/>
<path d="M7.55106 56.7384C7.55106 56.7854 7.54806 56.8264 7.54306 56.8614C7.53806 56.8974 7.52906 56.9264 7.51606 56.9504C7.50306 56.9734 7.48706 56.9904 7.47105 57.0004C7.45305 57.0114 7.43505 57.0164 7.41305 57.0164H4.97805C4.91805 57.0164 4.86105 56.9964 4.80705 56.9564C4.75405 56.9154 4.72705 56.8444 4.72705 56.7424V52.2154C4.72705 52.1134 4.75405 52.0424 4.80705 52.0024C4.86104 51.9614 4.91805 51.9414 4.97805 51.9414H7.38605C7.40705 51.9414 7.42605 51.9464 7.44305 51.9574C7.46006 51.9674 7.47406 51.9844 7.48405 52.0084C7.49505 52.0324 7.50305 52.0614 7.51005 52.0964C7.51605 52.1314 7.52005 52.1754 7.52005 52.2274C7.52005 52.2744 7.51605 52.3164 7.51005 52.3514C7.50305 52.3864 7.49505 52.4154 7.48405 52.4374C7.47406 52.4594 7.46006 52.4764 7.44305 52.4864C7.42605 52.4974 7.40705 52.5024 7.38605 52.5024H5.40205V54.0944H7.10405C7.12505 54.0944 7.14405 54.1004 7.16105 54.1124C7.17805 54.1244 7.19205 54.1404 7.20405 54.1614C7.21505 54.1824 7.22405 54.2114 7.22905 54.2474C7.23505 54.2844 7.23705 54.3274 7.23705 54.3774C7.23705 54.4244 7.23504 54.4654 7.22905 54.4984C7.22405 54.5324 7.21505 54.5594 7.20405 54.5814C7.19205 54.6024 7.17805 54.6174 7.16105 54.6254C7.14405 54.6354 7.12505 54.6394 7.10405 54.6394H5.40205V56.4554H7.41305C7.43505 56.4554 7.45305 56.4614 7.47105 56.4714C7.48706 56.4824 7.50306 56.4984 7.51606 56.5204C7.52906 56.5424 7.53806 56.5714 7.54306 56.6064C7.54806 56.6424 7.55106 56.6854 7.55106 56.7384Z" fill="#919292"/>
<path d="M12.3309 56.7387C12.3309 56.7907 12.3219 56.8347 12.3049 56.8717C12.2869 56.9077 12.2639 56.9387 12.2359 56.9627C12.2069 56.9857 12.1749 57.0027 12.1409 57.0127C12.1049 57.0237 12.0699 57.0287 12.0349 57.0287H11.8119C11.7409 57.0287 11.6799 57.0217 11.6269 57.0067C11.5749 56.9927 11.5249 56.9667 11.4769 56.9287C11.4299 56.8907 11.3819 56.8387 11.3349 56.7737C11.2879 56.7087 11.2379 56.6247 11.1839 56.5227L9.63587 53.6357C9.55487 53.4867 9.47387 53.3307 9.39087 53.1677C9.30887 53.0037 9.23287 52.8447 9.16187 52.6907H9.15387C9.15887 52.8797 9.16287 53.0707 9.16587 53.2677C9.16887 53.4637 9.16987 53.6587 9.16987 53.8517V56.9147C9.16987 56.9337 9.16387 56.9507 9.15287 56.9677C9.14187 56.9847 9.12287 56.9977 9.09687 57.0067C9.07087 57.0167 9.03687 57.0237 8.99387 57.0307C8.95087 57.0377 8.89687 57.0407 8.82987 57.0407C8.76387 57.0407 8.70987 57.0377 8.66687 57.0307C8.62387 57.0237 8.59087 57.0167 8.56487 57.0067C8.54087 56.9977 8.52287 56.9847 8.51187 56.9677C8.50087 56.9507 8.49487 56.9337 8.49487 56.9147V52.2317C8.49487 52.1267 8.52487 52.0527 8.58387 52.0087C8.64387 51.9637 8.70787 51.9417 8.77887 51.9417H9.11087C9.18887 51.9417 9.25387 51.9487 9.30687 51.9607C9.35887 51.9747 9.40687 51.9957 9.44787 52.0267C9.48987 52.0557 9.53087 52.0977 9.56987 52.1517C9.60887 52.2047 9.64987 52.2727 9.69287 52.3537L10.8829 54.5817C10.9569 54.7167 11.0279 54.8507 11.0959 54.9797C11.1639 55.1087 11.2299 55.2367 11.2929 55.3617C11.3559 55.4877 11.4179 55.6107 11.4799 55.7317C11.5419 55.8537 11.6039 55.9757 11.6639 56.0997H11.6679C11.6629 55.8927 11.6599 55.6777 11.6579 55.4537C11.6569 55.2307 11.6559 55.0157 11.6559 54.8087V52.0557C11.6559 52.0377 11.6619 52.0207 11.6729 52.0047C11.6839 51.9887 11.7029 51.9747 11.7289 51.9627C11.7549 51.9517 11.7899 51.9437 11.8319 51.9377C11.8749 51.9327 11.9309 51.9297 11.9999 51.9297C12.0599 51.9297 12.1129 51.9327 12.1569 51.9377C12.2009 51.9437 12.2359 51.9517 12.2609 51.9627C12.2859 51.9747 12.3029 51.9887 12.3149 52.0047C12.3249 52.0207 12.3309 52.0377 12.3309 52.0557V56.7387Z" fill="#919292"/>
<path d="M16.8859 52.2324C16.8859 52.2814 16.8829 52.3254 16.8779 52.3614C16.8729 52.3984 16.8639 52.4284 16.8529 52.4504C16.8409 52.4724 16.8259 52.4884 16.8099 52.4994C16.7919 52.5094 16.7739 52.5144 16.7519 52.5144H15.3249V56.9154C15.3249 56.9364 15.3199 56.9544 15.3089 56.9704C15.2989 56.9854 15.2809 56.9984 15.2539 57.0074C15.2279 57.0164 15.1939 57.0244 15.1499 57.0314C15.1069 57.0374 15.0529 57.0414 14.9879 57.0414C14.9249 57.0414 14.8709 57.0374 14.8269 57.0314C14.7819 57.0244 14.7469 57.0164 14.7209 57.0074C14.6949 56.9984 14.6759 56.9854 14.6659 56.9704C14.6559 56.9544 14.6499 56.9364 14.6499 56.9154V52.5144H13.2229C13.2019 52.5144 13.1829 52.5094 13.1659 52.4994C13.1489 52.4884 13.1349 52.4724 13.1249 52.4504C13.1139 52.4284 13.1059 52.3984 13.0989 52.3614C13.0919 52.3254 13.0889 52.2814 13.0889 52.2324C13.0889 52.1834 13.0919 52.1384 13.0989 52.1014C13.1059 52.0634 13.1139 52.0324 13.1249 52.0094C13.1349 51.9854 13.1489 51.9684 13.1659 51.9584C13.1829 51.9474 13.2019 51.9424 13.2229 51.9424H16.7519C16.7739 51.9424 16.7919 51.9474 16.8099 51.9584C16.8259 51.9684 16.8409 51.9854 16.8529 52.0094C16.8639 52.0324 16.8729 52.0634 16.8779 52.1014C16.8829 52.1384 16.8859 52.1834 16.8859 52.2324Z" fill="#919292"/>
<path d="M20.0128 53.3494C20.0128 53.1504 19.9688 52.9824 19.8798 52.8454C19.7908 52.7084 19.6418 52.6094 19.4328 52.5494C19.3668 52.5304 19.2938 52.5174 19.2108 52.5094C19.1288 52.5024 19.0208 52.4984 18.8878 52.4984H18.3188V54.2084H18.9778C19.1558 54.2084 19.3088 54.1864 19.4388 54.1434C19.5678 54.1004 19.6758 54.0404 19.7618 53.9634C19.8488 53.8864 19.9118 53.7954 19.9528 53.6904C19.9928 53.5864 20.0128 53.4724 20.0128 53.3494ZM21.0288 56.9144C21.0288 56.9354 21.0248 56.9544 21.0168 56.9694C21.0098 56.9844 20.9918 56.9984 20.9658 57.0084C20.9398 57.0194 20.9038 57.0274 20.8568 57.0324C20.8088 57.0374 20.7468 57.0404 20.6678 57.0404C20.5998 57.0404 20.5448 57.0374 20.5018 57.0324C20.4578 57.0274 20.4238 57.0184 20.3978 57.0064C20.3708 56.9944 20.3508 56.9794 20.3368 56.9574C20.3218 56.9364 20.3098 56.9104 20.2998 56.8794L19.8328 55.6834C19.7778 55.5474 19.7208 55.4224 19.6618 55.3084C19.6028 55.1944 19.5338 55.0964 19.4528 55.0144C19.3708 54.9324 19.2758 54.8674 19.1658 54.8224C19.0558 54.7764 18.9238 54.7534 18.7698 54.7534H18.3188V56.9144C18.3188 56.9354 18.3128 56.9544 18.3008 56.9694C18.2888 56.9844 18.2708 56.9974 18.2458 57.0064C18.2218 57.0164 18.1878 57.0234 18.1438 57.0304C18.1008 57.0374 18.0468 57.0404 17.9818 57.0404C17.9158 57.0404 17.8618 57.0374 17.8188 57.0304C17.7758 57.0234 17.7408 57.0164 17.7148 57.0064C17.6888 56.9974 17.6698 56.9844 17.6598 56.9694C17.6498 56.9544 17.6438 56.9354 17.6438 56.9144V52.2154C17.6438 52.1134 17.6708 52.0424 17.7248 52.0024C17.7778 51.9614 17.8348 51.9414 17.8948 51.9414H18.9738C19.1018 51.9414 19.2088 51.9444 19.2938 51.9514C19.3778 51.9584 19.4548 51.9644 19.5228 51.9724C19.7188 52.0064 19.8918 52.0604 20.0428 52.1334C20.1928 52.2064 20.3188 52.2994 20.4208 52.4124C20.5228 52.5244 20.5988 52.6534 20.6508 52.7984C20.7018 52.9434 20.7268 53.1034 20.7268 53.2794C20.7268 53.4494 20.7038 53.6014 20.6578 53.7354C20.6128 53.8704 20.5468 53.9894 20.4598 54.0924C20.3738 54.1964 20.2708 54.2854 20.1508 54.3614C20.0298 54.4374 19.8958 54.5014 19.7468 54.5534C19.8298 54.5904 19.9058 54.6364 19.9738 54.6934C20.0418 54.7494 20.1048 54.8164 20.1638 54.8944C20.2228 54.9734 20.2788 55.0634 20.3308 55.1654C20.3828 55.2674 20.4358 55.3824 20.4878 55.5104L20.9428 56.6284C20.9798 56.7224 21.0028 56.7884 21.0128 56.8264C21.0238 56.8644 21.0288 56.8944 21.0288 56.9144Z" fill="#919292"/>
<path d="M24.7364 56.7384C24.7364 56.7854 24.7333 56.8264 24.7284 56.8614C24.7234 56.8974 24.7143 56.9264 24.7013 56.9504C24.6883 56.9734 24.6723 56.9904 24.6563 57.0004C24.6383 57.0114 24.6203 57.0164 24.5993 57.0164H22.1634C22.1034 57.0164 22.0464 56.9964 21.9934 56.9564C21.9394 56.9154 21.9124 56.8444 21.9124 56.7424V52.2154C21.9124 52.1134 21.9394 52.0424 21.9934 52.0024C22.0464 51.9614 22.1034 51.9414 22.1634 51.9414H24.5714C24.5924 51.9414 24.6114 51.9464 24.6284 51.9574C24.6454 51.9674 24.6594 51.9844 24.6694 52.0084C24.6804 52.0324 24.6884 52.0614 24.6954 52.0964C24.7014 52.1314 24.7054 52.1754 24.7054 52.2274C24.7054 52.2744 24.7014 52.3164 24.6954 52.3514C24.6884 52.3864 24.6804 52.4154 24.6694 52.4374C24.6594 52.4594 24.6454 52.4764 24.6284 52.4864C24.6114 52.4974 24.5924 52.5024 24.5714 52.5024H22.5874V54.0944H24.2894C24.3104 54.0944 24.3294 54.1004 24.3464 54.1124C24.3634 54.1244 24.3774 54.1404 24.3894 54.1614C24.4014 54.1824 24.4094 54.2114 24.4144 54.2474C24.4204 54.2844 24.4224 54.3274 24.4224 54.3774C24.4224 54.4244 24.4204 54.4654 24.4144 54.4984C24.4094 54.5324 24.4014 54.5594 24.3894 54.5814C24.3774 54.6024 24.3634 54.6174 24.3464 54.6254C24.3294 54.6354 24.3104 54.6394 24.2894 54.6394H22.5874V56.4554H24.5994C24.6204 56.4554 24.6384 56.4614 24.6564 56.4714C24.6724 56.4824 24.6884 56.4984 24.7014 56.5204C24.7144 56.5424 24.7234 56.5714 24.7284 56.6064C24.7334 56.6424 24.7364 56.6854 24.7364 56.7384Z" fill="#919292"/>
<path d="M30.8429 54.4324C30.8429 54.1574 30.8089 53.9024 30.7409 53.6654C30.6729 53.4284 30.5669 53.2234 30.4219 53.0514C30.2759 52.8794 30.0929 52.7444 29.8699 52.6474C29.6479 52.5504 29.3619 52.5024 29.0119 52.5024H28.3249V56.4514H29.0189C29.3439 56.4514 29.6169 56.4114 29.8389 56.3304C30.0609 56.2494 30.2469 56.1244 30.3959 55.9584C30.5449 55.7904 30.6569 55.5804 30.7309 55.3284C30.8059 55.0764 30.8429 54.7774 30.8429 54.4324ZM31.5529 54.4044C31.5529 54.8444 31.4969 55.2274 31.3849 55.5564C31.2719 55.8834 31.1079 56.1554 30.8919 56.3714C30.6769 56.5874 30.4119 56.7484 30.0979 56.8564C29.7839 56.9634 29.4099 57.0164 28.9759 57.0164H27.9009C27.8409 57.0164 27.7839 56.9964 27.7309 56.9564C27.6769 56.9154 27.6509 56.8444 27.6509 56.7424V52.2164C27.6509 52.1134 27.6769 52.0424 27.7309 52.0024C27.7839 51.9614 27.8409 51.9414 27.9009 51.9414H29.0509C29.4899 51.9414 29.8609 51.9984 30.1649 52.1124C30.4679 52.2254 30.7219 52.3894 30.9269 52.6024C31.1329 52.8154 31.2879 53.0734 31.3939 53.3764C31.4999 53.6804 31.5529 54.0224 31.5529 54.4044Z" fill="#919292"/>
<path d="M35.3724 56.7384C35.3724 56.7854 35.3694 56.8264 35.3643 56.8614C35.3593 56.8974 35.3503 56.9264 35.3373 56.9504C35.3243 56.9734 35.3083 56.9904 35.2923 57.0004C35.2743 57.0114 35.2563 57.0164 35.2354 57.0164H32.7994C32.7394 57.0164 32.6824 56.9964 32.6283 56.9564C32.5754 56.9154 32.5483 56.8444 32.5483 56.7424V52.2154C32.5483 52.1134 32.5754 52.0424 32.6283 52.0024C32.6823 51.9614 32.7394 51.9414 32.7994 51.9414H35.2074C35.2284 51.9414 35.2473 51.9464 35.2643 51.9574C35.2813 51.9674 35.2953 51.9844 35.3053 52.0084C35.3163 52.0324 35.3243 52.0614 35.3313 52.0964C35.3373 52.1314 35.3414 52.1754 35.3414 52.2274C35.3414 52.2744 35.3373 52.3164 35.3313 52.3514C35.3243 52.3864 35.3163 52.4154 35.3053 52.4374C35.2953 52.4594 35.2813 52.4764 35.2643 52.4864C35.2473 52.4974 35.2283 52.5024 35.2074 52.5024H33.2233V54.0944H34.9254C34.9464 54.0944 34.9653 54.1004 34.9823 54.1124C34.9993 54.1244 35.0134 54.1404 35.0253 54.1614C35.0363 54.1824 35.0453 54.2114 35.0504 54.2474C35.0564 54.2844 35.0583 54.3274 35.0583 54.3774C35.0583 54.4244 35.0564 54.4654 35.0504 54.4984C35.0454 54.5324 35.0363 54.5594 35.0253 54.5814C35.0134 54.6024 34.9993 54.6174 34.9823 54.6254C34.9653 54.6354 34.9463 54.6394 34.9254 54.6394H33.2233V56.4554H35.2354C35.2564 56.4554 35.2743 56.4614 35.2923 56.4714C35.3083 56.4824 35.3243 56.4984 35.3373 56.5204C35.3503 56.5424 35.3593 56.5714 35.3643 56.6064C35.3694 56.6424 35.3724 56.6854 35.3724 56.7384Z" fill="#919292"/>
<path d="M40.9532 52.2324C40.9532 52.2814 40.9501 52.3254 40.9452 52.3614C40.9402 52.3984 40.9311 52.4284 40.9181 52.4504C40.9051 52.4724 40.8892 52.4884 40.8731 52.4994C40.8551 52.5094 40.8381 52.5144 40.8202 52.5144H38.9611V54.2404H40.7181C40.7362 54.2404 40.7541 54.2444 40.7701 54.2544C40.7882 54.2634 40.8031 54.2784 40.8162 54.2994C40.8292 54.3204 40.8381 54.3484 40.8431 54.3844C40.8481 54.4184 40.8511 54.4644 40.8511 54.5194C40.8511 54.5684 40.8482 54.6114 40.8431 54.6464C40.8381 54.6814 40.8292 54.7104 40.8162 54.7324C40.8032 54.7554 40.7882 54.7724 40.7701 54.7834C40.7541 54.7954 40.7361 54.8014 40.7181 54.8014H38.9611V56.9154C38.9611 56.9334 38.9551 56.9514 38.9452 56.9684C38.9342 56.9854 38.9161 56.9984 38.8901 57.0074C38.8641 57.0164 38.8301 57.0244 38.7882 57.0314C38.7461 57.0374 38.6912 57.0414 38.6231 57.0414C38.5611 57.0414 38.5071 57.0374 38.4621 57.0314C38.4181 57.0244 38.3831 57.0164 38.3571 57.0074C38.3301 56.9984 38.3121 56.9854 38.3011 56.9684C38.2911 56.9514 38.2861 56.9334 38.2861 56.9154V52.2164C38.2861 52.1144 38.3131 52.0434 38.3661 52.0034C38.4201 51.9624 38.4771 51.9424 38.5371 51.9424H40.8201C40.8381 51.9424 40.8551 51.9474 40.8731 51.9584C40.8891 51.9684 40.9051 51.9854 40.9181 52.0094C40.9311 52.0324 40.9401 52.0634 40.9451 52.1014C40.9501 52.1384 40.9532 52.1834 40.9532 52.2324Z" fill="#919292"/>
<path d="M45.4878 54.4672C45.4878 54.1792 45.4628 53.9122 45.4118 53.6652C45.3608 53.4182 45.2758 53.2042 45.1568 53.0222C45.0388 52.8402 44.8798 52.6982 44.6808 52.5962C44.4828 52.4952 44.2368 52.4432 43.9448 52.4432C43.6518 52.4432 43.4068 52.4982 43.2088 52.6082C43.0098 52.7182 42.8488 52.8642 42.7248 53.0482C42.6008 53.2302 42.5118 53.4442 42.4578 53.6882C42.4048 53.9332 42.3778 54.1902 42.3778 54.4602C42.3778 54.7572 42.4028 55.0322 42.4528 55.2832C42.5018 55.5342 42.5858 55.7502 42.7028 55.9322C42.8208 56.1142 42.9778 56.2552 43.1748 56.3552C43.3718 56.4562 43.6198 56.5062 43.9178 56.5062C44.2128 56.5062 44.4608 56.4522 44.6618 56.3422C44.8628 56.2322 45.0248 56.0842 45.1478 55.8972C45.2698 55.7102 45.3578 55.4932 45.4098 55.2482C45.4618 55.0022 45.4878 54.7422 45.4878 54.4672ZM46.2018 54.4202C46.2018 54.8312 46.1538 55.2002 46.0568 55.5302C45.9598 55.8602 45.8158 56.1402 45.6238 56.3712C45.4308 56.6032 45.1898 56.7802 44.8998 56.9042C44.6098 57.0292 44.2708 57.0912 43.8838 57.0912C43.5018 57.0912 43.1718 57.0342 42.8938 56.9202C42.6148 56.8072 42.3848 56.6412 42.2028 56.4252C42.0218 56.2072 41.8858 55.9382 41.7978 55.6162C41.7088 55.2952 41.6638 54.9252 41.6638 54.5062C41.6638 54.1062 41.7128 53.7432 41.8088 53.4162C41.9058 53.0892 42.0508 52.8122 42.2448 52.5832C42.4378 52.3542 42.6798 52.1772 42.9698 52.0532C43.2598 51.9292 43.5988 51.8672 43.9858 51.8672C44.3598 51.8672 44.6858 51.9232 44.9628 52.0362C45.2398 52.1482 45.4708 52.3122 45.6548 52.5282C45.8388 52.7432 45.9768 53.0102 46.0668 53.3282C46.1568 53.6452 46.2018 54.0092 46.2018 54.4202Z" fill="#919292"/>
<path d="M49.6109 53.3494C49.6109 53.1504 49.5669 52.9824 49.4779 52.8454C49.3889 52.7084 49.2399 52.6094 49.0309 52.5494C48.9659 52.5304 48.8919 52.5174 48.8089 52.5094C48.7269 52.5024 48.6189 52.4984 48.4859 52.4984H47.9169V54.2084H48.5759C48.7539 54.2084 48.9069 54.1864 49.0369 54.1434C49.1659 54.1004 49.2739 54.0404 49.3599 53.9634C49.447 53.8864 49.5099 53.7954 49.5509 53.6904C49.5909 53.5864 49.6109 53.4724 49.6109 53.3494ZM50.6269 56.9144C50.6269 56.9354 50.6229 56.9544 50.6149 56.9694C50.6079 56.9844 50.5899 56.9984 50.5639 57.0084C50.5379 57.0194 50.5019 57.0274 50.4549 57.0324C50.4069 57.0374 50.3449 57.0404 50.2659 57.0404C50.1979 57.0404 50.1429 57.0374 50.0999 57.0324C50.0559 57.0274 50.0219 57.0184 49.9959 57.0064C49.9689 56.9944 49.9489 56.9794 49.9349 56.9574C49.9199 56.9364 49.908 56.9104 49.8979 56.8794L49.4309 55.6834C49.376 55.5474 49.3189 55.4224 49.2599 55.3084C49.2019 55.1944 49.1319 55.0964 49.0509 55.0144C48.9689 54.9324 48.8739 54.8674 48.7639 54.8224C48.6539 54.7764 48.5219 54.7534 48.3679 54.7534H47.9169V56.9144C47.9169 56.9354 47.9109 56.9544 47.8989 56.9694C47.8869 56.9844 47.8689 56.9974 47.8439 57.0064C47.8199 57.0164 47.7859 57.0234 47.7419 57.0304C47.6989 57.0374 47.6449 57.0404 47.5799 57.0404C47.5139 57.0404 47.4599 57.0374 47.4169 57.0304C47.3739 57.0234 47.3389 57.0164 47.3129 57.0064C47.2869 56.9974 47.2679 56.9844 47.2579 56.9694C47.2479 56.9544 47.2419 56.9354 47.2419 56.9144V52.2154C47.2419 52.1134 47.2689 52.0424 47.3229 52.0024C47.3759 51.9614 47.4329 51.9414 47.4929 51.9414H48.5719C48.6999 51.9414 48.8069 51.9444 48.8919 51.9514C48.9759 51.9584 49.0529 51.9644 49.1209 51.9724C49.3169 52.0064 49.4899 52.0604 49.6409 52.1334C49.7909 52.2064 49.9169 52.2994 50.0189 52.4124C50.1209 52.5244 50.1979 52.6534 50.2489 52.7984C50.2999 52.9434 50.3249 53.1034 50.3249 53.2794C50.3249 53.4494 50.3019 53.6014 50.2569 53.7354C50.2109 53.8704 50.1449 53.9894 50.0579 54.0924C49.9719 54.1964 49.8689 54.2854 49.7489 54.3614C49.6279 54.4374 49.4939 54.5014 49.3449 54.5534C49.4279 54.5904 49.5039 54.6364 49.5719 54.6934C49.6399 54.7494 49.7029 54.8164 49.7619 54.8944C49.8209 54.9734 49.8769 55.0634 49.9289 55.1654C49.9809 55.2674 50.0339 55.3824 50.0859 55.5104L50.5409 56.6284C50.5779 56.7224 50.6009 56.7884 50.6109 56.8264C50.6219 56.8644 50.6269 56.8944 50.6269 56.9144Z" fill="#919292"/>
<path d="M57.029 56.9144C57.029 56.9354 57.024 56.9544 57.013 56.9694C57.002 56.9844 56.983 56.9974 56.956 57.0064C56.929 57.0164 56.895 57.0234 56.853 57.0304C56.811 57.0374 56.757 57.0404 56.69 57.0404C56.628 57.0404 56.574 57.0374 56.53 57.0304C56.486 57.0234 56.451 57.0164 56.425 57.0064C56.399 56.9974 56.381 56.9844 56.37 56.9694C56.36 56.9544 56.354 56.9354 56.354 56.9144V52.4944H56.347L54.558 56.9344C54.55 56.9524 54.539 56.9684 54.525 56.9814C54.51 56.9944 54.489 57.0054 54.462 57.0144C54.434 57.0234 54.402 57.0304 54.364 57.0344C54.326 57.0384 54.281 57.0404 54.229 57.0404C54.174 57.0404 54.127 57.0374 54.087 57.0324C54.048 57.0274 54.016 57.0194 53.989 57.0104C53.963 57.0014 53.943 56.9904 53.929 56.9774C53.914 56.9644 53.904 56.9504 53.899 56.9344L52.189 52.4944H52.185V56.9144C52.185 56.9354 52.18 56.9544 52.169 56.9694C52.158 56.9844 52.14 56.9974 52.113 57.0064C52.085 57.0164 52.051 57.0234 52.007 57.0304C51.964 57.0374 51.909 57.0404 51.842 57.0404C51.777 57.0404 51.723 57.0374 51.68 57.0304C51.637 57.0234 51.603 57.0164 51.577 57.0064C51.552 56.9974 51.534 56.9844 51.525 56.9694C51.515 56.9544 51.511 56.9354 51.511 56.9144V52.2474C51.511 52.1374 51.54 52.0584 51.598 52.0124C51.657 51.9644 51.722 51.9414 51.793 51.9414H52.207C52.292 51.9414 52.367 51.9494 52.431 51.9644C52.494 51.9804 52.55 52.0054 52.598 52.0394C52.646 52.0734 52.685 52.1164 52.717 52.1694C52.749 52.2214 52.777 52.2824 52.801 52.3524L54.252 56.0284H54.272L55.782 52.3644C55.811 52.2864 55.843 52.2194 55.877 52.1654C55.912 52.1104 55.95 52.0664 55.991 52.0334C56.032 52.0004 56.078 51.9774 56.129 51.9624C56.179 51.9484 56.237 51.9414 56.304 51.9414H56.738C56.778 51.9414 56.816 51.9474 56.852 51.9584C56.888 51.9704 56.918 51.9894 56.943 52.0144C56.969 52.0394 56.989 52.0704 57.005 52.1084C57.021 52.1454 57.029 52.1924 57.029 52.2474V56.9144Z" fill="#919292"/>
<path d="M59.9765 52.6169H59.9735L59.0985 55.1469H60.8635L59.9765 52.6169ZM62.1615 56.778C62.1825 56.835 62.1935 56.882 62.1945 56.917C62.1965 56.9529 62.1865 56.98 62.1655 56.998C62.1445 57.016 62.1095 57.028 62.0615 57.033C62.0135 57.038 61.9485 57.041 61.8675 57.041C61.7865 57.041 61.7215 57.039 61.6735 57.0349C61.6245 57.0309 61.5885 57.025 61.5635 57.015C61.5385 57.006 61.5205 56.994 61.5085 56.978C61.4965 56.963 61.4855 56.943 61.4745 56.9189L61.0395 55.684H58.9295L58.5135 56.9029C58.5055 56.9269 58.4955 56.947 58.4825 56.965C58.4695 56.982 58.4505 56.9959 58.4255 57.0069C58.4005 57.0189 58.3655 57.0279 58.3195 57.0329C58.2735 57.0379 58.2145 57.0409 58.1415 57.0409C58.0655 57.0409 58.0035 57.038 57.9545 57.0309C57.9065 57.025 57.8725 57.012 57.8535 56.9939C57.8335 56.9759 57.8245 56.9489 57.8255 56.913C57.8265 56.878 57.8375 56.831 57.8585 56.7739L59.5605 52.06C59.5715 52.0309 59.5855 52.008 59.6025 51.9889C59.6195 51.9709 59.6445 51.957 59.6765 51.9459C59.7095 51.9359 59.7515 51.9279 59.8025 51.9239C59.8535 51.921 59.9175 51.9189 59.9965 51.9189C60.0805 51.9189 60.1495 51.921 60.2045 51.9239C60.2595 51.9279 60.3035 51.9359 60.3375 51.9459C60.3715 51.957 60.3975 51.9709 60.4155 51.991C60.4345 52.0109 60.4485 52.0349 60.4595 52.064L62.1615 56.778Z" fill="#919292"/>
<path d="M65.7052 52.2324C65.7052 52.2814 65.7022 52.3254 65.6972 52.3614C65.6922 52.3984 65.6832 52.4284 65.6722 52.4504C65.6602 52.4724 65.6452 52.4884 65.6292 52.4994C65.6112 52.5094 65.5932 52.5144 65.5712 52.5144H64.1442V56.9154C64.1442 56.9364 64.1392 56.9544 64.1282 56.9704C64.1182 56.9854 64.1002 56.9984 64.0732 57.0074C64.0472 57.0164 64.0132 57.0244 63.9692 57.0314C63.9262 57.0374 63.8722 57.0414 63.8072 57.0414C63.7442 57.0414 63.6902 57.0374 63.6462 57.0314C63.6012 57.0244 63.5662 57.0164 63.5402 57.0074C63.5142 56.9984 63.4952 56.9854 63.4852 56.9704C63.4752 56.9544 63.4692 56.9364 63.4692 56.9154V52.5144H62.0422C62.0212 52.5144 62.0022 52.5094 61.9852 52.4994C61.9682 52.4884 61.9542 52.4724 61.9442 52.4504C61.9332 52.4284 61.9252 52.3984 61.9182 52.3614C61.9112 52.3254 61.9082 52.2814 61.9082 52.2324C61.9082 52.1834 61.9112 52.1384 61.9182 52.1014C61.9252 52.0634 61.9332 52.0324 61.9442 52.0094C61.9542 51.9854 61.9682 51.9684 61.9852 51.9584C62.0022 51.9474 62.0212 51.9424 62.0422 51.9424H65.5712C65.5932 51.9424 65.6112 51.9474 65.6292 51.9584C65.6452 51.9684 65.6602 51.9854 65.6722 52.0094C65.6832 52.0324 65.6922 52.0634 65.6972 52.1014C65.7022 52.1384 65.7052 52.1834 65.7052 52.2324Z" fill="#919292"/>
<path d="M67.1391 56.915C67.1391 56.936 67.1341 56.955 67.1231 56.97C67.1131 56.9849 67.0951 56.9979 67.0681 57.007C67.0421 57.017 67.0071 57.024 66.9641 57.031C66.9211 57.038 66.8671 57.041 66.8011 57.041C66.7391 57.041 66.6851 57.038 66.6411 57.031C66.5961 57.024 66.5611 57.017 66.5351 57.007C66.5091 56.998 66.4901 56.985 66.4801 56.97C66.4701 56.955 66.4641 56.936 66.4641 56.915V52.044C66.4641 52.023 66.4701 52.005 66.4821 51.989C66.4941 51.973 66.5131 51.961 66.5411 51.952C66.5681 51.943 66.6031 51.935 66.6471 51.928C66.6901 51.922 66.7411 51.918 66.8011 51.918C66.8671 51.918 66.9211 51.922 66.9641 51.928C67.0071 51.935 67.0421 51.943 67.0681 51.952C67.0951 51.961 67.1131 51.973 67.1231 51.989C67.1341 52.005 67.1391 52.023 67.1391 52.044V56.915Z" fill="#919292"/>
<path d="M71.9944 54.4672C71.9944 54.1792 71.9694 53.9122 71.9184 53.6652C71.8674 53.4182 71.7824 53.2042 71.6634 53.0222C71.5454 52.8402 71.3864 52.6982 71.1874 52.5962C70.9894 52.4952 70.7434 52.4432 70.4514 52.4432C70.1584 52.4432 69.9134 52.4982 69.7154 52.6082C69.5164 52.7182 69.3554 52.8642 69.2314 53.0482C69.1074 53.2302 69.0184 53.4442 68.9644 53.6882C68.9114 53.9332 68.8844 54.1902 68.8844 54.4602C68.8844 54.7572 68.9094 55.0322 68.9594 55.2832C69.0084 55.5342 69.0924 55.7502 69.2094 55.9322C69.3274 56.1142 69.4844 56.2552 69.6814 56.3552C69.8784 56.4562 70.1264 56.5062 70.4244 56.5062C70.7194 56.5062 70.9674 56.4522 71.1684 56.3422C71.3694 56.2322 71.5314 56.0842 71.6544 55.8972C71.7764 55.7102 71.8644 55.4932 71.9164 55.2482C71.9684 55.0022 71.9944 54.7422 71.9944 54.4672ZM72.7084 54.4202C72.7084 54.8312 72.6604 55.2002 72.5634 55.5302C72.4664 55.8602 72.3224 56.1402 72.1304 56.3712C71.9374 56.6032 71.6964 56.7802 71.4064 56.9042C71.1164 57.0292 70.7774 57.0912 70.3904 57.0912C70.0084 57.0912 69.6784 57.0342 69.4004 56.9202C69.1214 56.8072 68.8914 56.6412 68.7094 56.4252C68.5284 56.2072 68.3924 55.9382 68.3044 55.6162C68.2154 55.2952 68.1704 54.9252 68.1704 54.5062C68.1704 54.1062 68.2194 53.7432 68.3154 53.4162C68.4124 53.0892 68.5574 52.8122 68.7514 52.5832C68.9444 52.3542 69.1864 52.1772 69.4764 52.0532C69.7664 51.9292 70.1054 51.8672 70.4924 51.8672C70.8664 51.8672 71.1924 51.9232 71.4694 52.0362C71.7464 52.1482 71.9774 52.3122 72.1614 52.5282C72.3454 52.7432 72.4834 53.0102 72.5734 53.3282C72.6634 53.6452 72.7084 54.0092 72.7084 54.4202Z" fill="#919292"/>
<path d="M77.5797 56.7387C77.5797 56.7907 77.5707 56.8347 77.5537 56.8717C77.5357 56.9077 77.5127 56.9387 77.4847 56.9627C77.4557 56.9857 77.4237 57.0027 77.3887 57.0127C77.3537 57.0237 77.3187 57.0287 77.2837 57.0287H77.0607C76.9897 57.0287 76.9287 57.0217 76.8757 57.0067C76.8237 56.9927 76.7727 56.9667 76.7257 56.9287C76.6787 56.8907 76.6307 56.8387 76.5837 56.7737C76.5367 56.7087 76.4867 56.6247 76.4327 56.5227L74.8847 53.6357C74.8037 53.4867 74.7227 53.3307 74.6397 53.1677C74.5577 53.0037 74.4817 52.8447 74.4107 52.6907H74.4027C74.4077 52.8797 74.4117 53.0707 74.4147 53.2677C74.4177 53.4637 74.4187 53.6587 74.4187 53.8517V56.9147C74.4187 56.9337 74.4127 56.9507 74.4017 56.9677C74.3907 56.9847 74.3717 56.9977 74.3457 57.0067C74.3197 57.0167 74.2857 57.0237 74.2427 57.0307C74.1997 57.0377 74.1457 57.0407 74.0787 57.0407C74.0126 57.0407 73.9587 57.0377 73.9157 57.0307C73.8727 57.0237 73.8397 57.0167 73.8137 57.0067C73.7897 56.9977 73.7717 56.9847 73.7607 56.9677C73.7497 56.9507 73.7437 56.9337 73.7437 56.9147V52.2317C73.7437 52.1267 73.7736 52.0527 73.8326 52.0087C73.8926 51.9637 73.9566 51.9417 74.0277 51.9417H74.3596C74.4376 51.9417 74.5027 51.9487 74.5557 51.9607C74.6077 51.9747 74.6556 51.9957 74.6966 52.0267C74.7387 52.0557 74.7797 52.0977 74.8187 52.1517C74.8577 52.2047 74.8987 52.2727 74.9417 52.3537L76.1317 54.5817C76.2057 54.7167 76.2757 54.8507 76.3447 54.9797C76.4127 55.1087 76.4777 55.2367 76.5417 55.3617C76.6047 55.4877 76.6667 55.6107 76.7287 55.7317C76.7907 55.8537 76.8527 55.9757 76.9127 56.0997H76.9167C76.9117 55.8927 76.9087 55.6777 76.9067 55.4537C76.9057 55.2307 76.9047 55.0157 76.9047 54.8087V52.0557C76.9047 52.0377 76.9107 52.0207 76.9217 52.0047C76.9327 51.9887 76.9507 51.9747 76.9777 51.9627C77.0037 51.9517 77.0377 51.9437 77.0807 51.9377C77.1237 51.9327 77.1797 51.9297 77.2487 51.9297C77.3087 51.9297 77.3617 51.9327 77.4057 51.9377C77.4497 51.9437 77.4847 51.9517 77.5097 51.9627C77.5347 51.9747 77.5517 51.9887 77.5627 52.0047C77.5737 52.0207 77.5797 52.0377 77.5797 52.0557V56.7387Z" fill="#919292"/>
<path d="M83.1531 53.4834C83.1531 53.2764 83.1141 53.1044 83.0371 52.9654C82.9601 52.8264 82.8651 52.7234 82.7511 52.6554C82.6381 52.5874 82.5201 52.5444 82.3981 52.5264C82.2771 52.5084 82.1581 52.4994 82.0431 52.4994H81.4201V54.5344H82.0271C82.2321 54.5344 82.4011 54.5084 82.5351 54.4564C82.6701 54.4034 82.7831 54.3304 82.8751 54.2374C82.9661 54.1454 83.0351 54.0344 83.0821 53.9054C83.1301 53.7754 83.1531 53.6344 83.1531 53.4834ZM83.8631 53.4284C83.8631 53.6824 83.8211 53.9104 83.7371 54.1144C83.6541 54.3184 83.5341 54.4924 83.3791 54.6364C83.2231 54.7804 83.0321 54.8914 82.8061 54.9694C82.5801 55.0484 82.3101 55.0874 81.9961 55.0874H81.4201V56.9144C81.4201 56.9354 81.4141 56.9544 81.4021 56.9704C81.3901 56.9854 81.3721 56.9974 81.3471 57.0074C81.3221 57.0164 81.2881 57.0244 81.2451 57.0304C81.2021 57.0374 81.1471 57.0404 81.0821 57.0404C81.0171 57.0404 80.9631 57.0374 80.9191 57.0304C80.8761 57.0244 80.8421 57.0164 80.8161 57.0074C80.7901 56.9974 80.7711 56.9854 80.7611 56.9704C80.7501 56.9544 80.7451 56.9354 80.7451 56.9144V52.2324C80.7451 52.1274 80.7721 52.0524 80.8271 52.0084C80.8821 51.9634 80.9441 51.9424 81.0121 51.9424H82.0981C82.2081 51.9424 82.3131 51.9464 82.4141 51.9554C82.5151 51.9644 82.6341 51.9844 82.7711 52.0144C82.9081 52.0444 83.0481 52.1004 83.1901 52.1834C83.3331 52.2654 83.4541 52.3664 83.5531 52.4874C83.6531 52.6074 83.7291 52.7464 83.7831 52.9044C83.8361 53.0624 83.8631 53.2374 83.8631 53.4284Z" fill="#919292"/>
<path d="M87.1437 53.3494C87.1437 53.1504 87.0997 52.9824 87.0107 52.8454C86.9217 52.7084 86.7727 52.6094 86.5637 52.5494C86.4987 52.5304 86.4246 52.5174 86.3417 52.5094C86.2597 52.5024 86.1517 52.4984 86.0187 52.4984H85.4497V54.2084H86.1087C86.2867 54.2084 86.4397 54.1864 86.5697 54.1434C86.6987 54.1004 86.8067 54.0404 86.8927 53.9634C86.9797 53.8864 87.0426 53.7954 87.0836 53.6904C87.1237 53.5864 87.1437 53.4724 87.1437 53.3494ZM88.1597 56.9144C88.1597 56.9354 88.1556 56.9544 88.1477 56.9694C88.1407 56.9844 88.1226 56.9984 88.0966 57.0084C88.0706 57.0194 88.0347 57.0274 87.9877 57.0324C87.9407 57.0374 87.8777 57.0404 87.7987 57.0404C87.7307 57.0404 87.6757 57.0374 87.6327 57.0324C87.5897 57.0274 87.5547 57.0184 87.5287 57.0064C87.5017 56.9944 87.4817 56.9794 87.4677 56.9574C87.4527 56.9364 87.4407 56.9104 87.4307 56.8794L86.9637 55.6834C86.9087 55.5474 86.8517 55.4224 86.7926 55.3084C86.7346 55.1944 86.6647 55.0964 86.5836 55.0144C86.5016 54.9324 86.4067 54.8674 86.2967 54.8224C86.1867 54.7764 86.0547 54.7534 85.9007 54.7534H85.4497V56.9144C85.4497 56.9354 85.4436 56.9544 85.4316 56.9694C85.4197 56.9844 85.4017 56.9974 85.3766 57.0064C85.3527 57.0164 85.3186 57.0234 85.2747 57.0304C85.2317 57.0374 85.1777 57.0404 85.1127 57.0404C85.0467 57.0404 84.9927 57.0374 84.9497 57.0304C84.9067 57.0234 84.8717 57.0164 84.8457 57.0064C84.8197 56.9974 84.8007 56.9844 84.7906 56.9694C84.7807 56.9544 84.7747 56.9354 84.7747 56.9144V52.2154C84.7747 52.1134 84.8017 52.0424 84.8557 52.0024C84.9087 51.9614 84.9657 51.9414 85.0257 51.9414H86.1047C86.2327 51.9414 86.3397 51.9444 86.4247 51.9514C86.5087 51.9584 86.5857 51.9644 86.6536 51.9724C86.8496 52.0064 87.0227 52.0604 87.1737 52.1334C87.3236 52.2064 87.4497 52.2994 87.5516 52.4124C87.6537 52.5244 87.7306 52.6534 87.7817 52.7984C87.8326 52.9434 87.8576 53.1034 87.8576 53.2794C87.8576 53.4494 87.8347 53.6014 87.7896 53.7354C87.7436 53.8704 87.6777 53.9894 87.5906 54.0924C87.5046 54.1964 87.4016 54.2854 87.2817 54.3614C87.1607 54.4374 87.0266 54.5014 86.8776 54.5534C86.9606 54.5904 87.0366 54.6364 87.1047 54.6934C87.1726 54.7494 87.2357 54.8164 87.2947 54.8944C87.3536 54.9734 87.4096 55.0634 87.4616 55.1654C87.5136 55.2674 87.5666 55.3824 87.6186 55.5104L88.0736 56.6284C88.1106 56.7224 88.1336 56.7884 88.1437 56.8264C88.1547 56.8644 88.1597 56.8944 88.1597 56.9144Z" fill="#919292"/>
<path d="M92.5718 54.4672C92.5718 54.1792 92.5468 53.9122 92.4958 53.6652C92.4448 53.4182 92.3598 53.2042 92.2408 53.0222C92.1228 52.8402 91.9638 52.6982 91.7648 52.5962C91.5668 52.4952 91.3208 52.4432 91.0288 52.4432C90.7358 52.4432 90.4908 52.4982 90.2928 52.6082C90.0938 52.7182 89.9328 52.8642 89.8088 53.0482C89.6848 53.2302 89.5958 53.4442 89.5418 53.6882C89.4888 53.9332 89.4618 54.1902 89.4618 54.4602C89.4618 54.7572 89.4868 55.0322 89.5368 55.2832C89.5858 55.5342 89.6698 55.7502 89.7868 55.9322C89.9048 56.1142 90.0618 56.2552 90.2588 56.3552C90.4558 56.4562 90.7038 56.5062 91.0018 56.5062C91.2968 56.5062 91.5448 56.4522 91.7458 56.3422C91.9468 56.2322 92.1088 56.0842 92.2318 55.8972C92.3538 55.7102 92.4418 55.4932 92.4938 55.2482C92.5458 55.0022 92.5718 54.7422 92.5718 54.4672ZM93.2858 54.4202C93.2858 54.8312 93.2378 55.2002 93.1408 55.5302C93.0438 55.8602 92.8998 56.1402 92.7078 56.3712C92.5148 56.6032 92.2738 56.7802 91.9838 56.9042C91.6938 57.0292 91.3548 57.0912 90.9678 57.0912C90.5858 57.0912 90.2558 57.0342 89.9778 56.9202C89.6988 56.8072 89.4688 56.6412 89.2868 56.4252C89.1058 56.2072 88.9698 55.9382 88.8818 55.6162C88.7928 55.2952 88.7478 54.9252 88.7478 54.5062C88.7478 54.1062 88.7968 53.7432 88.8928 53.4162C88.9898 53.0892 89.1348 52.8122 89.3288 52.5832C89.5218 52.3542 89.7638 52.1772 90.0538 52.0532C90.3438 51.9292 90.6828 51.8672 91.0698 51.8672C91.4438 51.8672 91.7698 51.9232 92.0468 52.0362C92.3238 52.1482 92.5548 52.3122 92.7388 52.5282C92.9228 52.7432 93.0608 53.0102 93.1508 53.3282C93.2408 53.6452 93.2858 54.0092 93.2858 54.4202Z" fill="#919292"/>
<path d="M96.9917 52.2324C96.9917 52.2814 96.9887 52.3254 96.9837 52.3614C96.9787 52.3984 96.9697 52.4284 96.9567 52.4504C96.9437 52.4724 96.9277 52.4884 96.9117 52.4994C96.8937 52.5094 96.8767 52.5144 96.8577 52.5144H94.9997V54.2404H96.7567C96.7747 54.2404 96.7927 54.2444 96.8087 54.2544C96.8267 54.2634 96.8417 54.2784 96.8537 54.2994C96.8677 54.3204 96.8767 54.3484 96.8817 54.3844C96.8867 54.4184 96.8897 54.4644 96.8897 54.5194C96.8897 54.5684 96.8867 54.6114 96.8817 54.6464C96.8767 54.6814 96.8677 54.7104 96.8537 54.7324C96.8417 54.7554 96.8267 54.7724 96.8087 54.7834C96.7927 54.7954 96.7747 54.8014 96.7567 54.8014H94.9997V56.9154C94.9997 56.9334 94.9937 56.9514 94.9837 56.9684C94.9727 56.9854 94.9547 56.9984 94.9287 57.0074C94.9027 57.0164 94.8687 57.0244 94.8267 57.0314C94.7847 57.0374 94.7297 57.0414 94.6617 57.0414C94.5987 57.0414 94.5457 57.0374 94.5007 57.0314C94.4567 57.0244 94.4217 57.0164 94.3947 57.0074C94.3687 56.9984 94.3507 56.9854 94.3397 56.9684C94.3297 56.9514 94.3247 56.9334 94.3247 56.9154V52.2164C94.3247 52.1144 94.3517 52.0434 94.4047 52.0034C94.4587 51.9624 94.5157 51.9424 94.5757 51.9424H96.8577C96.8767 51.9424 96.8937 51.9474 96.9117 51.9584C96.9277 51.9684 96.9437 51.9854 96.9567 52.0094C96.9697 52.0324 96.9787 52.0634 96.9837 52.1014C96.9887 52.1384 96.9917 52.1834 96.9917 52.2324Z" fill="#919292"/>
<path d="M100.724 56.7384C100.724 56.7854 100.721 56.8264 100.716 56.8614C100.711 56.8974 100.702 56.9264 100.689 56.9504C100.676 56.9734 100.66 56.9904 100.644 57.0004C100.626 57.0114 100.608 57.0164 100.587 57.0164H98.1512C98.0912 57.0164 98.0342 56.9964 97.9812 56.9564C97.9272 56.9154 97.9001 56.8444 97.9001 56.7424V52.2154C97.9001 52.1134 97.9272 52.0424 97.9812 52.0024C98.0341 51.9614 98.0912 51.9414 98.1512 51.9414H100.559C100.58 51.9414 100.599 51.9464 100.616 51.9574C100.633 51.9674 100.647 51.9844 100.657 52.0084C100.668 52.0324 100.676 52.0614 100.683 52.0964C100.689 52.1314 100.693 52.1754 100.693 52.2274C100.693 52.2744 100.689 52.3164 100.683 52.3514C100.676 52.3864 100.668 52.4154 100.657 52.4374C100.647 52.4594 100.633 52.4764 100.616 52.4864C100.599 52.4974 100.58 52.5024 100.559 52.5024H98.5752V54.0944H100.277C100.298 54.0944 100.317 54.1004 100.334 54.1124C100.351 54.1244 100.365 54.1404 100.377 54.1614C100.389 54.1824 100.397 54.2114 100.402 54.2474C100.408 54.2844 100.41 54.3274 100.41 54.3774C100.41 54.4244 100.408 54.4654 100.402 54.4984C100.397 54.5324 100.389 54.5594 100.377 54.5814C100.365 54.6024 100.351 54.6174 100.334 54.6254C100.317 54.6354 100.298 54.6394 100.277 54.6394H98.5752V56.4554H100.587C100.608 56.4554 100.626 56.4614 100.644 56.4714C100.66 56.4824 100.676 56.4984 100.689 56.5204C100.702 56.5424 100.711 56.5714 100.716 56.6064C100.721 56.6424 100.724 56.6854 100.724 56.7384Z" fill="#919292"/>
<path d="M104.587 55.5932C104.587 55.8312 104.543 56.0432 104.456 56.2282C104.368 56.4142 104.247 56.5722 104.091 56.7012C103.935 56.8302 103.752 56.9282 103.542 56.9932C103.331 57.0582 103.104 57.0912 102.861 57.0912C102.692 57.0912 102.534 57.0772 102.389 57.0482C102.244 57.0192 102.114 56.9842 102 56.9422C101.887 56.9012 101.791 56.8572 101.714 56.8132C101.637 56.7682 101.583 56.7312 101.553 56.6992C101.523 56.6672 101.501 56.6282 101.487 56.5802C101.472 56.5312 101.465 56.4662 101.465 56.3852C101.465 56.3282 101.468 56.2802 101.473 56.2422C101.478 56.2042 101.486 56.1742 101.496 56.1502C101.507 56.1262 101.52 56.1102 101.536 56.1012C101.551 56.0922 101.57 56.0872 101.591 56.0872C101.627 56.0872 101.679 56.1102 101.746 56.1542C101.812 56.1982 101.898 56.2472 102.002 56.2992C102.107 56.3522 102.233 56.4002 102.381 56.4462C102.529 56.4922 102.699 56.5152 102.893 56.5152C103.039 56.5152 103.173 56.4952 103.295 56.4562C103.416 56.4172 103.521 56.3612 103.608 56.2892C103.696 56.2172 103.763 56.1292 103.81 56.0252C103.858 55.9202 103.881 55.8012 103.881 55.6672C103.881 55.5242 103.848 55.4012 103.783 55.2992C103.718 55.1972 103.632 55.1072 103.524 55.0302C103.417 54.9532 103.295 54.8822 103.158 54.8182C103.02 54.7542 102.88 54.6892 102.736 54.6232C102.592 54.5552 102.452 54.4822 102.316 54.4012C102.18 54.3192 102.059 54.2252 101.951 54.1142C101.844 54.0042 101.757 53.8762 101.691 53.7282C101.624 53.5802 101.591 53.4032 101.591 53.1972C101.591 52.9852 101.629 52.7962 101.706 52.6302C101.784 52.4642 101.891 52.3252 102.028 52.2122C102.165 52.1002 102.329 52.0142 102.518 51.9562C102.708 51.8962 102.912 51.8672 103.132 51.8672C103.244 51.8672 103.358 51.8772 103.471 51.8962C103.585 51.9162 103.692 51.9422 103.793 51.9752C103.894 52.0082 103.983 52.0442 104.062 52.0852C104.14 52.1252 104.192 52.1582 104.217 52.1832C104.241 52.2072 104.258 52.2272 104.266 52.2422C104.273 52.2562 104.28 52.2752 104.285 52.2962C104.29 52.3192 104.294 52.3462 104.297 52.3772C104.3 52.4082 104.301 52.4492 104.301 52.4992C104.301 52.5462 104.299 52.5872 104.295 52.6242C104.291 52.6612 104.285 52.6912 104.277 52.7162C104.269 52.7412 104.258 52.7592 104.244 52.7712C104.229 52.7832 104.213 52.7892 104.195 52.7892C104.166 52.7892 104.121 52.7702 104.06 52.7342C103.998 52.6972 103.923 52.6562 103.834 52.6102C103.745 52.5652 103.64 52.5232 103.518 52.4852C103.397 52.4472 103.26 52.4282 103.108 52.4282C102.967 52.4282 102.844 52.4472 102.74 52.4852C102.635 52.5232 102.549 52.5732 102.481 52.6362C102.413 52.6992 102.362 52.7732 102.328 52.8592C102.294 52.9462 102.277 53.0372 102.277 53.1342C102.277 53.2752 102.31 53.3972 102.375 53.4992C102.44 53.6012 102.527 53.6912 102.636 53.7692C102.744 53.8472 102.868 53.9202 103.007 53.9852C103.145 54.0512 103.286 54.1162 103.43 54.1832C103.574 54.2502 103.715 54.3232 103.854 54.4032C103.992 54.4822 104.116 54.5772 104.224 54.6852C104.333 54.7932 104.421 54.9222 104.487 55.0702C104.554 55.2172 104.587 55.3922 104.587 55.5932Z" fill="#919292"/>
<path d="M108.347 55.5932C108.347 55.8312 108.303 56.0432 108.216 56.2282C108.128 56.4142 108.007 56.5722 107.851 56.7012C107.695 56.8302 107.512 56.9282 107.302 56.9932C107.091 57.0582 106.865 57.0912 106.621 57.0912C106.452 57.0912 106.294 57.0772 106.149 57.0482C106.004 57.0192 105.874 56.9842 105.76 56.9422C105.647 56.9012 105.551 56.8572 105.474 56.8132C105.397 56.7682 105.343 56.7312 105.313 56.6992C105.283 56.6672 105.261 56.6282 105.247 56.5802C105.232 56.5312 105.225 56.4662 105.225 56.3852C105.225 56.3282 105.228 56.2802 105.233 56.2422C105.238 56.2042 105.246 56.1742 105.256 56.1502C105.267 56.1262 105.28 56.1102 105.296 56.1012C105.311 56.0922 105.33 56.0872 105.351 56.0872C105.387 56.0872 105.439 56.1102 105.506 56.1542C105.572 56.1982 105.658 56.2472 105.762 56.2992C105.867 56.3522 105.993 56.4002 106.141 56.4462C106.289 56.4922 106.459 56.5152 106.653 56.5152C106.799 56.5152 106.933 56.4952 107.055 56.4562C107.176 56.4172 107.281 56.3612 107.368 56.2892C107.456 56.2172 107.523 56.1292 107.57 56.0252C107.618 55.9202 107.641 55.8012 107.641 55.6672C107.641 55.5242 107.608 55.4012 107.543 55.2992C107.478 55.1972 107.392 55.1072 107.284 55.0302C107.177 54.9532 107.055 54.8822 106.918 54.8182C106.78 54.7542 106.64 54.6892 106.496 54.6232C106.352 54.5552 106.212 54.4822 106.076 54.4012C105.94 54.3192 105.819 54.2252 105.711 54.1142C105.604 54.0042 105.517 53.8762 105.451 53.7282C105.384 53.5802 105.351 53.4032 105.351 53.1972C105.351 52.9852 105.389 52.7962 105.466 52.6302C105.544 52.4642 105.651 52.3252 105.788 52.2122C105.925 52.1002 106.089 52.0142 106.278 51.9562C106.468 51.8962 106.672 51.8672 106.892 51.8672C107.004 51.8672 107.118 51.8772 107.231 51.8962C107.345 51.9162 107.452 51.9422 107.553 51.9752C107.654 52.0082 107.743 52.0442 107.822 52.0852C107.9 52.1252 107.952 52.1582 107.977 52.1832C108.001 52.2072 108.018 52.2272 108.026 52.2422C108.033 52.2562 108.04 52.2752 108.045 52.2962C108.05 52.3192 108.054 52.3462 108.057 52.3772C108.06 52.4082 108.061 52.4492 108.061 52.4992C108.061 52.5462 108.059 52.5872 108.055 52.6242C108.051 52.6612 108.045 52.6912 108.037 52.7162C108.029 52.7412 108.018 52.7592 108.004 52.7712C107.989 52.7832 107.973 52.7892 107.955 52.7892C107.926 52.7892 107.881 52.7702 107.82 52.7342C107.758 52.6972 107.683 52.6562 107.594 52.6102C107.505 52.5652 107.4 52.5232 107.278 52.4852C107.157 52.4472 107.02 52.4282 106.868 52.4282C106.727 52.4282 106.604 52.4472 106.5 52.4852C106.395 52.5232 106.309 52.5732 106.241 52.6362C106.173 52.6992 106.122 52.7732 106.088 52.8592C106.054 52.9462 106.037 53.0372 106.037 53.1342C106.037 53.2752 106.07 53.3972 106.135 53.4992C106.2 53.6012 106.287 53.6912 106.396 53.7692C106.504 53.8472 106.628 53.9202 106.767 53.9852C106.905 54.0512 107.046 54.1162 107.19 54.1832C107.334 54.2502 107.475 54.3232 107.614 54.4032C107.752 54.4822 107.876 54.5772 107.984 54.6852C108.093 54.7932 108.181 54.9222 108.247 55.0702C108.314 55.2172 108.347 55.3922 108.347 55.5932Z" fill="#919292"/>
<path d="M109.952 56.915C109.952 56.936 109.947 56.955 109.936 56.97C109.926 56.9849 109.907 56.9979 109.881 57.007C109.855 57.017 109.82 57.024 109.777 57.031C109.734 57.038 109.68 57.041 109.614 57.041C109.552 57.041 109.498 57.038 109.454 57.031C109.409 57.024 109.374 57.017 109.348 57.007C109.322 56.998 109.303 56.985 109.293 56.97C109.283 56.955 109.277 56.936 109.277 56.915V52.044C109.277 52.023 109.283 52.005 109.295 51.989C109.307 51.973 109.326 51.961 109.354 51.952C109.381 51.943 109.416 51.935 109.46 51.928C109.503 51.922 109.554 51.918 109.614 51.918C109.68 51.918 109.734 51.922 109.777 51.928C109.82 51.935 109.855 51.943 109.881 51.952C109.907 51.961 109.926 51.973 109.936 51.989C109.947 52.005 109.952 52.023 109.952 52.044V56.915Z" fill="#919292"/>
<path d="M114.807 54.4672C114.807 54.1792 114.782 53.9122 114.731 53.6652C114.68 53.4182 114.595 53.2042 114.476 53.0222C114.358 52.8402 114.199 52.6982 114 52.5962C113.802 52.4952 113.556 52.4432 113.264 52.4432C112.971 52.4432 112.726 52.4982 112.528 52.6082C112.329 52.7182 112.168 52.8642 112.044 53.0482C111.92 53.2302 111.831 53.4442 111.777 53.6882C111.724 53.9332 111.697 54.1902 111.697 54.4602C111.697 54.7572 111.722 55.0322 111.772 55.2832C111.821 55.5342 111.905 55.7502 112.022 55.9322C112.14 56.1142 112.297 56.2552 112.494 56.3552C112.691 56.4562 112.939 56.5062 113.237 56.5062C113.532 56.5062 113.78 56.4522 113.981 56.3422C114.182 56.2322 114.344 56.0842 114.467 55.8972C114.589 55.7102 114.677 55.4932 114.729 55.2482C114.781 55.0022 114.807 54.7422 114.807 54.4672ZM115.521 54.4202C115.521 54.8312 115.473 55.2002 115.376 55.5302C115.279 55.8602 115.135 56.1402 114.943 56.3712C114.75 56.6032 114.509 56.7802 114.219 56.9042C113.929 57.0292 113.59 57.0912 113.203 57.0912C112.821 57.0912 112.491 57.0342 112.213 56.9202C111.934 56.8072 111.704 56.6412 111.522 56.4252C111.341 56.2072 111.205 55.9382 111.117 55.6162C111.028 55.2952 110.983 54.9252 110.983 54.5062C110.983 54.1062 111.032 53.7432 111.128 53.4162C111.225 53.0892 111.37 52.8122 111.564 52.5832C111.757 52.3542 111.999 52.1772 112.289 52.0532C112.579 51.9292 112.918 51.8672 113.305 51.8672C113.679 51.8672 114.005 51.9232 114.282 52.0362C114.559 52.1482 114.79 52.3122 114.974 52.5282C115.158 52.7432 115.296 53.0102 115.386 53.3282C115.476 53.6452 115.521 54.0092 115.521 54.4202Z" fill="#919292"/>
<path d="M120.392 56.7387C120.392 56.7907 120.383 56.8347 120.366 56.8717C120.348 56.9077 120.325 56.9387 120.297 56.9627C120.268 56.9857 120.236 57.0027 120.202 57.0127C120.166 57.0237 120.131 57.0287 120.096 57.0287H119.873C119.802 57.0287 119.741 57.0217 119.688 57.0067C119.636 56.9927 119.585 56.9667 119.538 56.9287C119.491 56.8907 119.443 56.8387 119.396 56.7737C119.349 56.7087 119.299 56.6247 119.245 56.5227L117.697 53.6357C117.616 53.4867 117.535 53.3307 117.452 53.1677C117.37 53.0037 117.294 52.8447 117.223 52.6907H117.215C117.22 52.8797 117.224 53.0707 117.227 53.2677C117.23 53.4637 117.231 53.6587 117.231 53.8517V56.9147C117.231 56.9337 117.225 56.9507 117.214 56.9677C117.203 56.9847 117.184 56.9977 117.158 57.0067C117.132 57.0167 117.098 57.0237 117.055 57.0307C117.012 57.0377 116.958 57.0407 116.891 57.0407C116.825 57.0407 116.771 57.0377 116.728 57.0307C116.685 57.0237 116.651 57.0167 116.626 57.0067C116.602 56.9977 116.584 56.9847 116.573 56.9677C116.562 56.9507 116.556 56.9337 116.556 56.9147V52.2317C116.556 52.1267 116.586 52.0527 116.645 52.0087C116.705 51.9637 116.769 51.9417 116.84 51.9417H117.172C117.25 51.9417 117.315 51.9487 117.368 51.9607C117.42 51.9747 117.468 51.9957 117.509 52.0267C117.551 52.0557 117.592 52.0977 117.631 52.1517C117.67 52.2047 117.711 52.2727 117.754 52.3537L118.944 54.5817C119.018 54.7167 119.088 54.8507 119.157 54.9797C119.225 55.1087 119.291 55.2367 119.354 55.3617C119.417 55.4877 119.479 55.6107 119.541 55.7317C119.603 55.8537 119.665 55.9757 119.725 56.0997H119.729C119.724 55.8927 119.721 55.6777 119.719 55.4537C119.718 55.2307 119.717 55.0157 119.717 54.8087V52.0557C119.717 52.0377 119.723 52.0207 119.734 52.0047C119.745 51.9887 119.763 51.9747 119.79 51.9627C119.816 51.9517 119.85 51.9437 119.893 51.9377C119.936 51.9327 119.992 51.9297 120.061 51.9297C120.121 51.9297 120.174 51.9327 120.218 51.9377C120.262 51.9437 120.297 51.9517 120.322 51.9627C120.347 51.9747 120.364 51.9887 120.376 52.0047C120.386 52.0207 120.392 52.0377 120.392 52.0557V56.7387Z" fill="#919292"/>
<path d="M125.51 56.7387C125.51 56.7907 125.501 56.8347 125.484 56.8717C125.466 56.9077 125.443 56.9387 125.415 56.9627C125.386 56.9857 125.354 57.0027 125.32 57.0127C125.284 57.0237 125.249 57.0287 125.214 57.0287H124.991C124.92 57.0287 124.859 57.0217 124.806 57.0067C124.754 56.9927 124.704 56.9667 124.656 56.9287C124.609 56.8907 124.561 56.8387 124.514 56.7737C124.467 56.7087 124.417 56.6247 124.363 56.5227L122.815 53.6357C122.734 53.4867 122.653 53.3307 122.57 53.1677C122.488 53.0037 122.412 52.8447 122.341 52.6907H122.333C122.338 52.8797 122.342 53.0707 122.345 53.2677C122.348 53.4637 122.349 53.6587 122.349 53.8517V56.9147C122.349 56.9337 122.343 56.9507 122.332 56.9677C122.321 56.9847 122.302 56.9977 122.276 57.0067C122.25 57.0167 122.216 57.0237 122.173 57.0307C122.13 57.0377 122.076 57.0407 122.009 57.0407C121.943 57.0407 121.889 57.0377 121.846 57.0307C121.803 57.0237 121.77 57.0167 121.744 57.0067C121.72 56.9977 121.702 56.9847 121.691 56.9677C121.68 56.9507 121.674 56.9337 121.674 56.9147V52.2317C121.674 52.1267 121.704 52.0527 121.763 52.0087C121.823 51.9637 121.887 51.9417 121.958 51.9417H122.29C122.368 51.9417 122.433 51.9487 122.486 51.9607C122.538 51.9747 122.586 51.9957 122.627 52.0267C122.669 52.0557 122.71 52.0977 122.749 52.1517C122.788 52.2047 122.829 52.2727 122.872 52.3537L124.062 54.5817C124.136 54.7167 124.206 54.8507 124.275 54.9797C124.343 55.1087 124.408 55.2367 124.472 55.3617C124.535 55.4877 124.597 55.6107 124.659 55.7317C124.721 55.8537 124.783 55.9757 124.843 56.0997H124.847C124.842 55.8927 124.839 55.6777 124.837 55.4537C124.836 55.2307 124.835 55.0157 124.835 54.8087V52.0557C124.835 52.0377 124.841 52.0207 124.852 52.0047C124.863 51.9887 124.881 51.9747 124.908 51.9627C124.934 51.9517 124.968 51.9437 125.011 51.9377C125.054 51.9327 125.11 51.9297 125.179 51.9297C125.239 51.9297 125.292 51.9327 125.336 51.9377C125.38 51.9437 125.415 51.9517 125.44 51.9627C125.465 51.9747 125.482 51.9887 125.494 52.0047C125.504 52.0207 125.51 52.0377 125.51 52.0557V56.7387Z" fill="#919292"/>
<path d="M129.616 56.7384C129.616 56.7854 129.613 56.8264 129.608 56.8614C129.603 56.8974 129.594 56.9264 129.581 56.9504C129.568 56.9734 129.552 56.9904 129.536 57.0004C129.518 57.0114 129.5 57.0164 129.479 57.0164H127.043C126.983 57.0164 126.926 56.9964 126.872 56.9564C126.819 56.9154 126.792 56.8444 126.792 56.7424V52.2154C126.792 52.1134 126.819 52.0424 126.872 52.0024C126.926 51.9614 126.983 51.9414 127.043 51.9414H129.451C129.472 51.9414 129.491 51.9464 129.508 51.9574C129.525 51.9674 129.539 51.9844 129.549 52.0084C129.56 52.0324 129.568 52.0614 129.575 52.0964C129.581 52.1314 129.585 52.1754 129.585 52.2274C129.585 52.2744 129.581 52.3164 129.575 52.3514C129.568 52.3864 129.56 52.4154 129.549 52.4374C129.539 52.4594 129.525 52.4764 129.508 52.4864C129.491 52.4974 129.472 52.5024 129.451 52.5024H127.467V54.0944H129.169C129.19 54.0944 129.209 54.1004 129.226 54.1124C129.243 54.1244 129.257 54.1404 129.269 54.1614C129.28 54.1824 129.289 54.2114 129.294 54.2474C129.3 54.2844 129.302 54.3274 129.302 54.3774C129.302 54.4244 129.3 54.4654 129.294 54.4984C129.289 54.5324 129.28 54.5594 129.269 54.5814C129.257 54.6024 129.243 54.6174 129.226 54.6254C129.209 54.6354 129.19 54.6394 129.169 54.6394H127.467V56.4554H129.479C129.5 56.4554 129.518 56.4614 129.536 56.4714C129.552 56.4824 129.568 56.4984 129.581 56.5204C129.594 56.5424 129.603 56.5714 129.608 56.6064C129.613 56.6424 129.616 56.6854 129.616 56.7384Z" fill="#919292"/>
<path d="M133.192 56.723C133.192 56.775 133.189 56.819 133.184 56.854C133.179 56.89 133.17 56.919 133.159 56.944C133.147 56.97 133.132 56.987 133.116 56.999C133.098 57.011 133.078 57.017 133.055 57.017H130.811C130.751 57.017 130.694 56.997 130.641 56.956C130.587 56.915 130.56 56.844 130.56 56.743V52.043C130.56 52.023 130.565 52.005 130.576 51.989C130.586 51.973 130.605 51.961 130.631 51.952C130.657 51.943 130.692 51.935 130.737 51.928C130.781 51.922 130.835 51.918 130.897 51.918C130.963 51.918 131.017 51.922 131.06 51.928C131.103 51.935 131.138 51.943 131.164 51.952C131.19 51.961 131.209 51.973 131.219 51.989C131.23 52.005 131.235 52.023 131.235 52.043V56.432H133.055C133.078 56.432 133.098 56.438 133.116 56.45C133.132 56.462 133.147 56.479 133.159 56.502C133.17 56.523 133.179 56.553 133.184 56.589C133.189 56.626 133.192 56.67 133.192 56.723Z" fill="#919292"/>
<path d="M136.59 56.723C136.59 56.775 136.587 56.819 136.582 56.854C136.577 56.89 136.568 56.919 136.557 56.944C136.545 56.97 136.53 56.987 136.514 56.999C136.496 57.011 136.476 57.017 136.453 57.017H134.209C134.149 57.017 134.092 56.997 134.039 56.956C133.985 56.915 133.958 56.844 133.958 56.743V52.043C133.958 52.023 133.964 52.005 133.974 51.989C133.984 51.973 134.003 51.961 134.029 51.952C134.055 51.943 134.09 51.935 134.135 51.928C134.179 51.922 134.233 51.918 134.295 51.918C134.361 51.918 134.415 51.922 134.458 51.928C134.501 51.935 134.536 51.943 134.562 51.952C134.588 51.961 134.607 51.973 134.617 51.989C134.628 52.005 134.633 52.023 134.633 52.043V56.432H136.453C136.476 56.432 136.496 56.438 136.514 56.45C136.53 56.462 136.545 56.479 136.557 56.502C136.568 56.523 136.577 56.553 136.582 56.589C136.587 56.626 136.59 56.67 136.59 56.723Z" fill="#919292"/>
<path d="M140.181 56.7384C140.181 56.7854 140.178 56.8264 140.173 56.8614C140.168 56.8974 140.159 56.9264 140.146 56.9504C140.133 56.9734 140.117 56.9904 140.101 57.0004C140.083 57.0114 140.065 57.0164 140.044 57.0164H137.608C137.548 57.0164 137.491 56.9964 137.438 56.9564C137.384 56.9154 137.357 56.8444 137.357 56.7424V52.2154C137.357 52.1134 137.384 52.0424 137.438 52.0024C137.491 51.9614 137.548 51.9414 137.608 51.9414H140.016C140.037 51.9414 140.056 51.9464 140.073 51.9574C140.09 51.9674 140.104 51.9844 140.114 52.0084C140.125 52.0324 140.133 52.0614 140.14 52.0964C140.146 52.1314 140.15 52.1754 140.15 52.2274C140.15 52.2744 140.146 52.3164 140.14 52.3514C140.133 52.3864 140.125 52.4154 140.114 52.4374C140.104 52.4594 140.09 52.4764 140.073 52.4864C140.056 52.4974 140.037 52.5024 140.016 52.5024H138.032V54.0944H139.734C139.755 54.0944 139.774 54.1004 139.791 54.1124C139.808 54.1244 139.822 54.1404 139.834 54.1614C139.846 54.1824 139.854 54.2114 139.859 54.2474C139.865 54.2844 139.867 54.3274 139.867 54.3774C139.867 54.4244 139.865 54.4654 139.859 54.4984C139.854 54.5324 139.846 54.5594 139.834 54.5814C139.822 54.6024 139.808 54.6174 139.791 54.6254C139.774 54.6354 139.755 54.6394 139.734 54.6394H138.032V56.4554H140.044C140.065 56.4554 140.083 56.4614 140.101 56.4714C140.117 56.4824 140.133 56.4984 140.146 56.5204C140.159 56.5424 140.168 56.5714 140.173 56.6064C140.178 56.6424 140.181 56.6854 140.181 56.7384Z" fill="#919292"/>
<path d="M3.0984 63.6336C3.0984 63.4816 3.0744 63.3486 3.02639 63.2336C2.97739 63.1186 2.90739 63.0216 2.81439 62.9436C2.72139 62.8646 2.60539 62.8056 2.46639 62.7646C2.32639 62.7246 2.15139 62.7036 1.93939 62.7036H1.13339V64.4926H2.11239C2.26639 64.4926 2.40038 64.4736 2.51539 64.4376C2.62939 64.4006 2.73139 64.3466 2.81838 64.2746C2.90639 64.2026 2.97439 64.1136 3.02438 64.0056C3.0734 63.8996 3.0984 63.7746 3.0984 63.6336ZM2.7924 61.3236C2.7924 61.2006 2.77539 61.0896 2.7414 60.9906C2.7074 60.8906 2.6544 60.8066 2.5814 60.7366C2.5084 60.6676 2.4134 60.6156 2.2954 60.5786C2.1784 60.5416 2.0234 60.5236 1.8294 60.5236H1.1334V62.1666H1.9004C2.0754 62.1666 2.2154 62.1436 2.3234 62.0986C2.4294 62.0526 2.5184 61.9906 2.5894 61.9136C2.6594 61.8366 2.7114 61.7466 2.7434 61.6426C2.7764 61.5396 2.7924 61.4336 2.7924 61.3236ZM3.8084 63.5946C3.8084 63.7546 3.7884 63.9016 3.7474 64.0356C3.7064 64.1696 3.6504 64.2916 3.5764 64.3986C3.5034 64.5056 3.4154 64.5996 3.3124 64.6806C3.2094 64.7616 3.0924 64.8296 2.9634 64.8846C2.8334 64.9396 2.6954 64.9806 2.5474 65.0086C2.3994 65.0356 2.2304 65.0496 2.0394 65.0496H0.713402C0.653402 65.0496 0.596402 65.0286 0.543402 64.9886C0.489402 64.9476 0.462402 64.8766 0.462402 64.7756V60.2486C0.462402 60.1466 0.489402 60.0756 0.543402 60.0346C0.596392 59.9946 0.653402 59.9746 0.713402 59.9746H1.8664C2.1704 59.9746 2.4184 60.0026 2.6124 60.0606C2.8054 60.1176 2.9674 60.2016 3.09639 60.3116C3.2254 60.4216 3.3234 60.5556 3.3884 60.7156C3.45339 60.8746 3.4864 61.0556 3.4864 61.2566C3.4864 61.3776 3.4724 61.4916 3.44339 61.6016C3.41439 61.7116 3.37239 61.8126 3.31639 61.9056C3.25939 61.9986 3.18939 62.0816 3.10439 62.1546C3.01939 62.2286 2.92139 62.2876 2.81239 62.3356C2.95039 62.3616 3.08039 62.4096 3.20039 62.4786C3.32039 62.5476 3.42539 62.6366 3.51639 62.7426C3.60639 62.8506 3.67739 62.9756 3.73039 63.1196C3.7824 63.2636 3.8084 63.4216 3.8084 63.5946Z" fill="#919292"/>
<path d="M7.60696 64.7716C7.60696 64.8186 7.60396 64.8596 7.59896 64.8946C7.59396 64.9306 7.58496 64.9596 7.57196 64.9836C7.55896 65.0066 7.54296 65.0236 7.52696 65.0336C7.50896 65.0446 7.49096 65.0496 7.46996 65.0496H5.03396C4.97395 65.0496 4.91696 65.0296 4.86295 64.9896C4.80995 64.9486 4.78296 64.8766 4.78296 64.7756V60.2486C4.78296 60.1466 4.80995 60.0756 4.86295 60.0356C4.91695 59.9946 4.97395 59.9746 5.03396 59.9746H7.44196C7.46296 59.9746 7.48196 59.9796 7.49896 59.9906C7.51596 60.0006 7.52996 60.0176 7.53996 60.0416C7.55096 60.0646 7.55896 60.0946 7.56596 60.1296C7.57196 60.1646 7.57596 60.2086 7.57596 60.2606C7.57596 60.3076 7.57195 60.3496 7.56596 60.3836C7.55896 60.4196 7.55096 60.4486 7.53996 60.4706C7.52996 60.4926 7.51596 60.5096 7.49896 60.5196C7.48196 60.5306 7.46296 60.5356 7.44196 60.5356H5.45796V62.1276H7.15996C7.18096 62.1276 7.19996 62.1336 7.21696 62.1456C7.23396 62.1576 7.24796 62.1736 7.25996 62.1946C7.27096 62.2156 7.27996 62.2446 7.28496 62.2806C7.29096 62.3176 7.29296 62.3606 7.29296 62.4106C7.29296 62.4576 7.29096 62.4986 7.28496 62.5316C7.27996 62.5656 7.27096 62.5926 7.25996 62.6136C7.24796 62.6356 7.23396 62.6506 7.21696 62.6586C7.19996 62.6686 7.18096 62.6726 7.15996 62.6726H5.45796V64.4886H7.46996C7.49096 64.4886 7.50896 64.4936 7.52696 64.5046C7.54296 64.5156 7.55896 64.5316 7.57196 64.5536C7.58496 64.5756 7.59396 64.6046 7.59896 64.6396C7.60396 64.6756 7.60696 64.7186 7.60696 64.7716Z" fill="#919292"/>
<path d="M10.9195 61.3826C10.9195 61.1836 10.8755 61.0156 10.7865 60.8786C10.6975 60.7416 10.5485 60.6426 10.3395 60.5826C10.2745 60.5636 10.2005 60.5506 10.1175 60.5426C10.0355 60.5356 9.92752 60.5316 9.79452 60.5316H9.22552V62.2416H9.88452C10.0625 62.2416 10.2155 62.2196 10.3455 62.1766C10.4745 62.1336 10.5825 62.0736 10.6685 61.9966C10.7555 61.9196 10.8185 61.8286 10.8595 61.7236C10.8995 61.6196 10.9195 61.5056 10.9195 61.3826ZM11.9355 64.9476C11.9355 64.9686 11.9315 64.9876 11.9235 65.0026C11.9165 65.0186 11.8985 65.0316 11.8725 65.0416C11.8465 65.0526 11.8105 65.0606 11.7635 65.0656C11.7155 65.0706 11.6535 65.0736 11.5745 65.0736C11.5065 65.0736 11.4515 65.0706 11.4085 65.0656C11.3645 65.0606 11.3305 65.0516 11.3045 65.0396C11.2775 65.0276 11.2575 65.0126 11.2435 64.9906C11.2285 64.9696 11.2165 64.9436 11.2065 64.9126L10.7395 63.7166C10.6845 63.5806 10.6275 63.4556 10.5685 63.3416C10.5105 63.2276 10.4405 63.1296 10.3595 63.0476C10.2775 62.9656 10.1825 62.9006 10.0725 62.8556C9.96254 62.8096 9.83054 62.7866 9.67654 62.7866H9.22554V64.9476C9.22554 64.9686 9.21954 64.9876 9.20754 65.0026C9.19554 65.0186 9.17753 65.0306 9.15254 65.0396C9.12854 65.0496 9.09453 65.0566 9.05053 65.0636C9.00753 65.0706 8.95353 65.0736 8.88854 65.0736C8.82254 65.0736 8.76854 65.0706 8.72554 65.0636C8.68254 65.0566 8.64754 65.0496 8.62154 65.0396C8.59555 65.0306 8.57654 65.0186 8.56654 65.0026C8.55655 64.9876 8.55054 64.9686 8.55054 64.9476V60.2486C8.55054 60.1466 8.57754 60.0756 8.63154 60.0356C8.68454 59.9946 8.74154 59.9746 8.80154 59.9746H9.88054C10.0085 59.9746 10.1155 59.9776 10.2005 59.9846C10.2845 59.9916 10.3615 59.9976 10.4295 60.0056C10.6255 60.0396 10.7985 60.0936 10.9495 60.1666C11.0995 60.2396 11.2255 60.3326 11.3275 60.4456C11.4295 60.5576 11.5055 60.6866 11.5575 60.8316C11.6085 60.9766 11.6335 61.1366 11.6335 61.3126C11.6335 61.4826 11.6105 61.6346 11.5655 61.7686C11.5195 61.9036 11.4535 62.0226 11.3665 62.1256C11.2805 62.2296 11.1775 62.3186 11.0575 62.3946C10.9365 62.4706 10.8025 62.5346 10.6535 62.5866C10.7365 62.6236 10.8125 62.6696 10.8805 62.7266C10.9485 62.7826 11.0115 62.8496 11.0705 62.9276C11.1295 63.0066 11.1855 63.0966 11.2375 63.1986C11.2895 63.3006 11.3425 63.4156 11.3945 63.5436L11.8495 64.6616C11.8865 64.7556 11.9095 64.8216 11.9195 64.8596C11.9305 64.8976 11.9355 64.9276 11.9355 64.9476Z" fill="#919292"/>
<path d="M16.6548 64.7719C16.6548 64.8239 16.6458 64.8679 16.6288 64.9049C16.6108 64.9409 16.5878 64.9719 16.5598 64.9949C16.5308 65.0189 16.4988 65.0359 16.4648 65.0459C16.4288 65.0569 16.3938 65.0619 16.3588 65.0619H16.1358C16.0648 65.0619 16.0038 65.0549 15.9508 65.0399C15.8988 65.0259 15.8488 64.9999 15.8008 64.9619C15.7538 64.9239 15.7058 64.8719 15.6588 64.8069C15.6118 64.7419 15.5618 64.6579 15.5078 64.5559L13.9598 61.6689C13.8788 61.5199 13.7979 61.3639 13.7148 61.2009C13.6328 61.0369 13.5568 60.8779 13.4858 60.7239H13.4778C13.4828 60.9129 13.4868 61.1039 13.4898 61.3009C13.4929 61.4969 13.4939 61.6919 13.4939 61.8849V64.9479C13.4939 64.9659 13.4879 64.9839 13.4768 65.0009C13.4659 65.0179 13.4468 65.0309 13.4208 65.0399C13.3948 65.0499 13.3608 65.0569 13.3178 65.0639C13.2748 65.0709 13.2208 65.0739 13.1538 65.0739C13.0878 65.0739 13.0338 65.0709 12.9908 65.0639C12.9478 65.0569 12.9138 65.0499 12.8888 65.0399C12.8648 65.0309 12.8468 65.0179 12.8358 65.0009C12.8248 64.9839 12.8188 64.9659 12.8188 64.9479V60.2649C12.8188 60.1599 12.8488 60.0859 12.9078 60.0419C12.9679 59.9969 13.0318 59.9749 13.1028 59.9749H13.4348C13.5128 59.9749 13.5779 59.9819 13.6308 59.9939C13.6828 60.0069 13.7309 60.0289 13.7719 60.0599C13.8139 60.0889 13.8549 60.1309 13.8938 60.1849C13.9328 60.2379 13.9738 60.3059 14.0168 60.3859L15.2068 62.6139C15.2808 62.7499 15.3508 62.8829 15.4198 63.0129C15.4878 63.1419 15.5528 63.2699 15.6168 63.3949C15.6798 63.5209 15.7418 63.6439 15.8038 63.7649C15.8658 63.8869 15.9278 64.0089 15.9878 64.1329H15.9918C15.9868 63.9259 15.9838 63.7109 15.9819 63.4869C15.9809 63.2639 15.9799 63.0489 15.9799 62.8419V60.0889C15.9799 60.0709 15.9859 60.0539 15.9969 60.0379C16.0079 60.0219 16.0259 60.0079 16.0529 59.9959C16.0789 59.9849 16.1129 59.9759 16.1559 59.9709C16.1989 59.9659 16.2549 59.9629 16.3239 59.9629C16.3839 59.9629 16.4369 59.9659 16.4809 59.9709C16.5249 59.9759 16.5599 59.9849 16.5849 59.9959C16.6089 60.0079 16.6269 60.0219 16.6389 60.0379C16.6489 60.0539 16.6549 60.0709 16.6549 60.0889L16.6548 64.7719Z" fill="#919292"/>
<path d="M20.7605 64.7716C20.7605 64.8186 20.7575 64.8596 20.7525 64.8946C20.7475 64.9306 20.7385 64.9596 20.7255 64.9836C20.7125 65.0066 20.6965 65.0236 20.6805 65.0336C20.6625 65.0446 20.6445 65.0496 20.6235 65.0496H18.1875C18.1275 65.0496 18.0705 65.0296 18.0165 64.9896C17.9635 64.9486 17.9365 64.8766 17.9365 64.7756V60.2486C17.9365 60.1466 17.9635 60.0756 18.0165 60.0356C18.0705 59.9946 18.1275 59.9746 18.1875 59.9746H20.5955C20.6165 59.9746 20.6355 59.9796 20.6525 59.9906C20.6695 60.0006 20.6835 60.0176 20.6935 60.0416C20.7045 60.0646 20.7125 60.0946 20.7195 60.1296C20.7255 60.1646 20.7295 60.2086 20.7295 60.2606C20.7295 60.3076 20.7255 60.3496 20.7195 60.3836C20.7125 60.4196 20.7045 60.4486 20.6935 60.4706C20.6835 60.4926 20.6695 60.5096 20.6525 60.5196C20.6355 60.5306 20.6165 60.5356 20.5955 60.5356H18.6115V62.1276H20.3135C20.3345 62.1276 20.3535 62.1336 20.3705 62.1456C20.3875 62.1576 20.4015 62.1736 20.4135 62.1946C20.4245 62.2156 20.4335 62.2446 20.4385 62.2806C20.4445 62.3176 20.4465 62.3606 20.4465 62.4106C20.4465 62.4576 20.4445 62.4986 20.4385 62.5316C20.4335 62.5656 20.4245 62.5926 20.4135 62.6136C20.4015 62.6356 20.3875 62.6506 20.3705 62.6586C20.3535 62.6686 20.3345 62.6726 20.3135 62.6726H18.6115V64.4886H20.6235C20.6445 64.4886 20.6625 64.4936 20.6805 64.5046C20.6965 64.5156 20.7125 64.5316 20.7255 64.5536C20.7385 64.5756 20.7475 64.6046 20.7525 64.6396C20.7575 64.6756 20.7605 64.7186 20.7605 64.7716Z" fill="#919292"/>
<path d="M26.3418 60.2646C26.3418 60.3136 26.3388 60.3576 26.3338 60.3936C26.3288 60.4306 26.3198 60.4606 26.3068 60.4826C26.2938 60.5046 26.2778 60.5206 26.2618 60.5316C26.2438 60.5416 26.2268 60.5466 26.2078 60.5466H24.3498V62.2726H26.1068C26.1248 62.2726 26.1428 62.2776 26.1588 62.2866C26.1758 62.2956 26.1918 62.3106 26.2048 62.3316C26.2178 62.3526 26.2268 62.3806 26.2318 62.4166C26.2368 62.4516 26.2398 62.4966 26.2398 62.5516C26.2398 62.6006 26.2368 62.6436 26.2318 62.6786C26.2268 62.7146 26.2178 62.7426 26.2048 62.7646C26.1918 62.7876 26.1758 62.8046 26.1588 62.8156C26.1428 62.8276 26.1248 62.8336 26.1068 62.8336H24.3498V64.9476C24.3498 64.9656 24.3438 64.9836 24.3338 65.0006C24.3228 65.0176 24.3048 65.0306 24.2788 65.0396C24.2528 65.0486 24.2188 65.0566 24.1768 65.0636C24.1348 65.0696 24.0798 65.0736 24.0118 65.0736C23.9488 65.0736 23.8958 65.0696 23.8508 65.0636C23.8068 65.0566 23.7708 65.0486 23.7448 65.0396C23.7188 65.0306 23.7008 65.0176 23.6898 65.0006C23.6798 64.9836 23.6748 64.9656 23.6748 64.9476V60.2486C23.6748 60.1466 23.7018 60.0756 23.7548 60.0356C23.8088 59.9946 23.8658 59.9746 23.9258 59.9746H26.2078C26.2268 59.9746 26.2438 59.9796 26.2618 59.9906C26.2778 60.0006 26.2938 60.0176 26.3068 60.0416C26.3198 60.0646 26.3288 60.0956 26.3338 60.1336C26.3388 60.1706 26.3418 60.2156 26.3418 60.2646Z" fill="#919292"/>
<path d="M29.619 61.3826C29.619 61.1836 29.575 61.0156 29.486 60.8786C29.397 60.7416 29.248 60.6426 29.039 60.5826C28.974 60.5636 28.9 60.5506 28.817 60.5426C28.735 60.5356 28.627 60.5316 28.494 60.5316H27.925V62.2416H28.584C28.762 62.2416 28.915 62.2196 29.045 62.1766C29.174 62.1336 29.282 62.0736 29.368 61.9966C29.455 61.9196 29.518 61.8286 29.559 61.7236C29.599 61.6196 29.619 61.5056 29.619 61.3826ZM30.635 64.9476C30.635 64.9686 30.631 64.9876 30.623 65.0026C30.616 65.0186 30.598 65.0316 30.572 65.0416C30.546 65.0526 30.51 65.0606 30.463 65.0656C30.415 65.0706 30.353 65.0736 30.274 65.0736C30.206 65.0736 30.151 65.0706 30.108 65.0656C30.064 65.0606 30.03 65.0516 30.004 65.0396C29.977 65.0276 29.957 65.0126 29.943 64.9906C29.928 64.9696 29.916 64.9436 29.906 64.9126L29.439 63.7166C29.384 63.5806 29.327 63.4556 29.268 63.3416C29.21 63.2276 29.14 63.1296 29.059 63.0476C28.977 62.9656 28.882 62.9006 28.772 62.8556C28.662 62.8096 28.53 62.7866 28.376 62.7866H27.925V64.9476C27.925 64.9686 27.919 64.9876 27.907 65.0026C27.895 65.0186 27.877 65.0306 27.852 65.0396C27.828 65.0496 27.794 65.0566 27.75 65.0636C27.707 65.0706 27.653 65.0736 27.588 65.0736C27.522 65.0736 27.468 65.0706 27.425 65.0636C27.382 65.0566 27.347 65.0496 27.321 65.0396C27.295 65.0306 27.276 65.0186 27.266 65.0026C27.256 64.9876 27.25 64.9686 27.25 64.9476V60.2486C27.25 60.1466 27.277 60.0756 27.331 60.0356C27.384 59.9946 27.441 59.9746 27.501 59.9746H28.58C28.708 59.9746 28.815 59.9776 28.9 59.9846C28.984 59.9916 29.061 59.9976 29.129 60.0056C29.325 60.0396 29.498 60.0936 29.649 60.1666C29.799 60.2396 29.925 60.3326 30.027 60.4456C30.129 60.5576 30.206 60.6866 30.257 60.8316C30.308 60.9766 30.333 61.1366 30.333 61.3126C30.333 61.4826 30.31 61.6346 30.265 61.7686C30.219 61.9036 30.153 62.0226 30.066 62.1256C29.98 62.2296 29.877 62.3186 29.757 62.3946C29.636 62.4706 29.502 62.5346 29.353 62.5866C29.436 62.6236 29.512 62.6696 29.58 62.7266C29.648 62.7826 29.711 62.8496 29.77 62.9276C29.829 63.0066 29.885 63.0966 29.937 63.1986C29.989 63.3006 30.042 63.4156 30.094 63.5436L30.549 64.6616C30.586 64.7556 30.609 64.8216 30.62 64.8596C30.63 64.8976 30.635 64.9276 30.635 64.9476Z" fill="#919292"/>
<path d="M33.4001 60.6492H33.3961L32.5211 63.1792H34.2861L33.4001 60.6492ZM35.5841 64.8102C35.6051 64.8672 35.6161 64.9142 35.6171 64.9492C35.6191 64.9852 35.6091 65.0122 35.5881 65.0302C35.5671 65.0482 35.5321 65.0602 35.4841 65.0652C35.4361 65.0702 35.3711 65.0732 35.2901 65.0732C35.2091 65.0732 35.1441 65.0712 35.0961 65.0672C35.0471 65.0632 35.0111 65.0572 34.9861 65.0472C34.9611 65.0382 34.9431 65.0262 34.9311 65.0102C34.9191 64.9952 34.9081 64.9752 34.8971 64.9512L34.4621 63.7162H32.3521L31.9371 64.9352C31.9291 64.9592 31.9181 64.9792 31.9051 64.9972C31.8921 65.0142 31.8731 65.0282 31.8481 65.0392C31.8231 65.0512 31.7881 65.0602 31.7421 65.0652C31.6971 65.0702 31.6371 65.0732 31.5641 65.0732C31.4881 65.0732 31.4261 65.0702 31.3781 65.0632C31.3291 65.0572 31.2951 65.0442 31.2761 65.0262C31.2561 65.0082 31.2471 64.9812 31.2481 64.9452C31.2491 64.9102 31.2611 64.8632 31.2821 64.8062L32.9841 60.0922C32.9941 60.0632 33.0081 60.0402 33.0251 60.0212C33.0421 60.0032 33.0671 59.9892 33.0991 59.9782C33.1321 59.9682 33.1741 59.9602 33.2251 59.9562C33.2761 59.9532 33.3411 59.9512 33.4191 59.9512C33.5031 59.9512 33.5721 59.9532 33.6271 59.9562C33.6821 59.9602 33.7261 59.9682 33.7601 59.9782C33.7941 59.9892 33.8201 60.0032 33.8391 60.0232C33.8571 60.0432 33.8721 60.0672 33.8821 60.0962L35.5841 64.8102Z" fill="#919292"/>
<path d="M40.2559 64.7719C40.2559 64.8239 40.2469 64.8679 40.2299 64.9049C40.2119 64.9409 40.1889 64.9719 40.1609 64.9949C40.1319 65.0189 40.0999 65.0359 40.0659 65.0459C40.0299 65.0569 39.9949 65.0619 39.9599 65.0619H39.7369C39.6659 65.0619 39.6049 65.0549 39.5519 65.0399C39.4999 65.0259 39.4489 64.9999 39.4019 64.9619C39.3549 64.9239 39.3069 64.8719 39.2599 64.8069C39.2129 64.7419 39.1629 64.6579 39.1089 64.5559L37.5609 61.6689C37.4799 61.5199 37.3989 61.3639 37.3159 61.2009C37.2339 61.0369 37.1579 60.8779 37.0869 60.7239H37.0789C37.0839 60.9129 37.0879 61.1039 37.0909 61.3009C37.0939 61.4969 37.0949 61.6919 37.0949 61.8849V64.9479C37.0949 64.9659 37.0889 64.9839 37.0779 65.0009C37.0669 65.0179 37.0479 65.0309 37.0219 65.0399C36.9959 65.0499 36.9619 65.0569 36.9189 65.0639C36.8759 65.0709 36.8219 65.0739 36.7549 65.0739C36.6889 65.0739 36.6349 65.0709 36.5919 65.0639C36.5489 65.0569 36.5149 65.0499 36.4899 65.0399C36.4659 65.0309 36.4479 65.0179 36.4369 65.0009C36.4259 64.9839 36.4199 64.9659 36.4199 64.9479V60.2649C36.4199 60.1599 36.4499 60.0859 36.5089 60.0419C36.5689 59.9969 36.6329 59.9749 36.7039 59.9749H37.0359C37.1139 59.9749 37.1789 59.9819 37.2319 59.9939C37.2839 60.0069 37.3319 60.0289 37.3729 60.0599C37.4149 60.0889 37.4559 60.1309 37.4949 60.1849C37.5339 60.2379 37.5749 60.3059 37.6179 60.3859L38.8079 62.6139C38.8819 62.7499 38.9519 62.8829 39.0209 63.0129C39.0889 63.1419 39.1549 63.2699 39.2179 63.3949C39.2809 63.5209 39.3429 63.6439 39.4049 63.7649C39.4669 63.8869 39.5289 64.0089 39.5889 64.1329H39.5929C39.5879 63.9259 39.5849 63.7109 39.5829 63.4869C39.5819 63.2639 39.5809 63.0489 39.5809 62.8419V60.0889C39.5809 60.0709 39.5869 60.0539 39.5979 60.0379C39.6089 60.0219 39.6269 60.0079 39.6539 59.9959C39.6799 59.9849 39.7139 59.9759 39.7569 59.9709C39.7999 59.9659 39.8559 59.9629 39.9249 59.9629C39.9849 59.9629 40.0379 59.9659 40.0819 59.9709C40.1259 59.9759 40.1609 59.9849 40.1859 59.9959C40.2109 60.0079 40.2279 60.0219 40.2399 60.0379C40.2499 60.0539 40.2559 60.0709 40.2559 60.0889V64.7719Z" fill="#919292"/>
<path d="M44.9552 64.3321C44.9552 64.3741 44.9542 64.4101 44.9512 64.4421C44.9492 64.4731 44.9442 64.5011 44.9382 64.5251C44.9312 64.5481 44.9222 64.5691 44.9122 64.5871C44.9022 64.6061 44.8832 64.6271 44.8572 64.6541C44.8312 64.6801 44.7762 64.7201 44.6922 64.7741C44.6092 64.8271 44.5052 64.8791 44.3812 64.9311C44.2562 64.9811 44.1142 65.0241 43.9532 65.0601C43.7922 65.0951 43.6162 65.1121 43.4252 65.1121C43.0962 65.1121 42.7992 65.0581 42.5332 64.9481C42.2682 64.8381 42.0422 64.6761 41.8552 64.4621C41.6682 64.2471 41.5242 63.9831 41.4232 63.6681C41.3232 63.3521 41.2722 62.9891 41.2722 62.5791C41.2722 62.1581 41.3272 61.7831 41.4352 61.4531C41.5432 61.1241 41.6962 60.8451 41.8922 60.6161C42.0882 60.3871 42.3232 60.2131 42.5962 60.0921C42.8692 59.9721 43.1722 59.9121 43.5042 59.9121C43.6502 59.9121 43.7932 59.9251 43.9312 59.9531C44.0702 59.9811 44.1982 60.0151 44.3162 60.0571C44.4342 60.0991 44.5382 60.1471 44.6302 60.2021C44.7212 60.2571 44.7852 60.3021 44.8202 60.3371C44.8552 60.3731 44.8782 60.3991 44.8882 60.4181C44.8992 60.4361 44.9082 60.4581 44.9142 60.4821C44.9202 60.5071 44.9262 60.5371 44.9302 60.5711C44.9342 60.6051 44.9362 60.6451 44.9362 60.6931C44.9362 60.7451 44.9332 60.7891 44.9282 60.8261C44.9222 60.8621 44.9152 60.8931 44.9042 60.9181C44.8932 60.9431 44.8812 60.9611 44.8672 60.9731C44.8522 60.9851 44.8342 60.9911 44.8132 60.9911C44.7762 60.9911 44.7252 60.9651 44.6592 60.9141C44.5942 60.8631 44.5092 60.8071 44.4052 60.7451C44.3012 60.6841 44.1752 60.6271 44.0272 60.5771C43.8782 60.5261 43.7002 60.5001 43.4922 60.5001C43.2662 60.5001 43.0612 60.5451 42.8752 60.6351C42.6902 60.7261 42.5322 60.8581 42.4002 61.0341C42.2692 61.2091 42.1672 61.4221 42.0952 61.6751C42.0222 61.9271 41.9862 62.2151 41.9862 62.5401C41.9862 62.8611 42.0212 63.1451 42.0912 63.3931C42.1602 63.6401 42.2602 63.8461 42.3902 64.0121C42.5202 64.1781 42.6802 64.3041 42.8692 64.3891C43.0592 64.4741 43.2732 64.5171 43.5122 64.5171C43.7142 64.5171 43.8912 64.4921 44.0422 64.4421C44.1932 64.3921 44.3222 64.3371 44.4292 64.2751C44.5352 64.2141 44.6222 64.1581 44.6912 64.1091C44.7592 64.0591 44.8132 64.0341 44.8532 64.0341C44.8712 64.0341 44.8872 64.0381 44.9002 64.0461C44.9132 64.0541 44.9242 64.0691 44.9322 64.0911C44.9392 64.1131 44.9452 64.1441 44.9492 64.1831C44.9532 64.2231 44.9552 64.2721 44.9552 64.3321Z" fill="#919292"/>
<path d="M49.3484 62.5004C49.3484 62.2124 49.3234 61.9454 49.2724 61.6984C49.2214 61.4514 49.1364 61.2374 49.0174 61.0554C48.8984 60.8734 48.7404 60.7314 48.5414 60.6294C48.3434 60.5284 48.0974 60.4764 47.8054 60.4764C47.5124 60.4764 47.2674 60.5314 47.0694 60.6414C46.8704 60.7514 46.7094 60.8974 46.5854 61.0814C46.4614 61.2634 46.3724 61.4774 46.3184 61.7214C46.2654 61.9664 46.2384 62.2234 46.2384 62.4934C46.2384 62.7914 46.2634 63.0654 46.3134 63.3164C46.3624 63.5674 46.4464 63.7834 46.5634 63.9654C46.6814 64.1474 46.8384 64.2884 47.0354 64.3884C47.2324 64.4894 47.4804 64.5394 47.7784 64.5394C48.0734 64.5394 48.3214 64.4854 48.5224 64.3754C48.7234 64.2654 48.8854 64.1174 49.0084 63.9304C49.1304 63.7434 49.2184 63.5264 49.2704 63.2814C49.3224 63.0354 49.3484 62.7754 49.3484 62.5004ZM50.0624 62.4534C50.0624 62.8644 50.0144 63.2334 49.9174 63.5634C49.8204 63.8934 49.6764 64.1734 49.4844 64.4044C49.2914 64.6364 49.0504 64.8144 48.7604 64.9374C48.4704 65.0624 48.1314 65.1244 47.7444 65.1244C47.3624 65.1244 47.0324 65.0674 46.7544 64.9534C46.4754 64.8404 46.2454 64.6744 46.0634 64.4584C45.8824 64.2404 45.7464 63.9714 45.6584 63.6494C45.5694 63.3284 45.5244 62.9584 45.5244 62.5394C45.5244 62.1394 45.5734 61.7764 45.6694 61.4494C45.7664 61.1224 45.9114 60.8454 46.1054 60.6164C46.2984 60.3864 46.5404 60.2114 46.8304 60.0864C47.1204 59.9624 47.4594 59.9004 47.8464 59.9004C48.2204 59.9004 48.5464 59.9564 48.8234 60.0694C49.1004 60.1814 49.3314 60.3454 49.5154 60.5614C49.6994 60.7764 49.8374 61.0434 49.9274 61.3614C50.0174 61.6784 50.0624 62.0424 50.0624 62.4534Z" fill="#919292"/>
<path d="M53.5091 61.5166C53.5091 61.3096 53.4701 61.1376 53.3931 60.9986C53.3161 60.8596 53.2211 60.7566 53.1071 60.6886C52.9941 60.6206 52.8761 60.5776 52.7541 60.5596C52.6331 60.5416 52.5141 60.5326 52.3991 60.5326H51.7761V62.5676H52.3831C52.5881 62.5676 52.7571 62.5416 52.8911 62.4896C53.0261 62.4366 53.1391 62.3636 53.2311 62.2716C53.3221 62.1786 53.3911 62.0676 53.4391 61.9386C53.4861 61.8086 53.5091 61.6676 53.5091 61.5166ZM54.2191 61.4616C54.2191 61.7156 54.1771 61.9446 54.0931 62.1476C54.0101 62.3516 53.8901 62.5256 53.7351 62.6696C53.5791 62.8136 53.3881 62.9246 53.1621 63.0026C52.9361 63.0816 52.6661 63.1206 52.3521 63.1206H51.7761V64.9476C51.7761 64.9696 51.7701 64.9876 51.7581 65.0036C51.7461 65.0186 51.7281 65.0306 51.7031 65.0406C51.6781 65.0496 51.6441 65.0576 51.6011 65.0636C51.5581 65.0706 51.5031 65.0736 51.4381 65.0736C51.3731 65.0736 51.3191 65.0706 51.2751 65.0636C51.2321 65.0576 51.1981 65.0496 51.1721 65.0406C51.1461 65.0306 51.1271 65.0186 51.1171 65.0036C51.1061 64.9876 51.1011 64.9696 51.1011 64.9476V60.2656C51.1011 60.1606 51.1281 60.0856 51.1831 60.0416C51.2381 59.9966 51.3001 59.9756 51.3681 59.9756H52.4541C52.5641 59.9756 52.6691 59.9796 52.7701 59.9886C52.8711 59.9976 52.9901 60.0176 53.1271 60.0476C53.2641 60.0776 53.4041 60.1336 53.5461 60.2166C53.6891 60.2986 53.8101 60.3996 53.9091 60.5206C54.0091 60.6406 54.0851 60.7796 54.1391 60.9376C54.1921 61.0956 54.2191 61.2706 54.2191 61.4616Z" fill="#919292"/>
<path d="M58.7868 64.9472C58.7868 64.9682 58.7819 64.9872 58.7709 65.0022C58.7608 65.0182 58.7429 65.0302 58.7158 65.0392C58.6898 65.0492 58.6558 65.0562 58.6119 65.0632C58.5689 65.0702 58.5158 65.0732 58.4539 65.0732C58.3858 65.0732 58.3309 65.0702 58.2888 65.0632C58.2469 65.0562 58.2129 65.0492 58.1869 65.0392C58.1609 65.0302 58.1419 65.0182 58.1318 65.0022C58.1219 64.9872 58.1159 64.9682 58.1159 64.9472V62.6962H55.8059V64.9472C55.8059 64.9682 55.8009 64.9872 55.7898 65.0022C55.7799 65.0182 55.7618 65.0302 55.7348 65.0392C55.7088 65.0492 55.6748 65.0562 55.6318 65.0632C55.5878 65.0702 55.5338 65.0732 55.4688 65.0732C55.4058 65.0732 55.3518 65.0702 55.3078 65.0632C55.2628 65.0562 55.2278 65.0492 55.2018 65.0392C55.1758 65.0302 55.1578 65.0182 55.1468 65.0022C55.1368 64.9872 55.1318 64.9682 55.1318 64.9472V60.0762C55.1318 60.0552 55.1368 60.0372 55.1468 60.0212C55.1578 60.0052 55.1758 59.9932 55.2018 59.9842C55.2278 59.9752 55.2628 59.9672 55.3078 59.9602C55.3518 59.9542 55.4058 59.9502 55.4688 59.9502C55.5338 59.9502 55.5878 59.9542 55.6318 59.9602C55.6748 59.9672 55.7088 59.9752 55.7348 59.9842C55.7618 59.9932 55.7798 60.0052 55.7898 60.0212C55.8008 60.0372 55.8059 60.0552 55.8059 60.0762V62.1082H58.1159V60.0762C58.1159 60.0552 58.1219 60.0372 58.1318 60.0212C58.1419 60.0052 58.1609 59.9932 58.1869 59.9842C58.2129 59.9752 58.2469 59.9672 58.2888 59.9602C58.3309 59.9542 58.3858 59.9502 58.4539 59.9502C58.5159 59.9502 58.5689 59.9542 58.6119 59.9602C58.6558 59.9672 58.6898 59.9752 58.7158 59.9842C58.7429 59.9932 58.7608 60.0052 58.7709 60.0212C58.7819 60.0372 58.7868 60.0552 58.7868 60.0762V64.9472Z" fill="#919292"/>
<path d="M63.6453 62.5004C63.6453 62.2124 63.6203 61.9454 63.5693 61.6984C63.5183 61.4514 63.4333 61.2374 63.3143 61.0554C63.1963 60.8734 63.0373 60.7314 62.8383 60.6294C62.6403 60.5284 62.3943 60.4764 62.1023 60.4764C61.8093 60.4764 61.5643 60.5314 61.3663 60.6414C61.1673 60.7514 61.0063 60.8974 60.8823 61.0814C60.7583 61.2634 60.6693 61.4774 60.6153 61.7214C60.5623 61.9664 60.5353 62.2234 60.5353 62.4934C60.5353 62.7914 60.5603 63.0654 60.6103 63.3164C60.6593 63.5674 60.7433 63.7834 60.8603 63.9654C60.9783 64.1474 61.1353 64.2884 61.3323 64.3884C61.5293 64.4894 61.7773 64.5394 62.0753 64.5394C62.3703 64.5394 62.6183 64.4854 62.8193 64.3754C63.0203 64.2654 63.1823 64.1174 63.3053 63.9304C63.4273 63.7434 63.5153 63.5264 63.5673 63.2814C63.6193 63.0354 63.6453 62.7754 63.6453 62.5004ZM64.3593 62.4534C64.3593 62.8644 64.3113 63.2334 64.2143 63.5634C64.1173 63.8934 63.9733 64.1734 63.7813 64.4044C63.5883 64.6364 63.3473 64.8144 63.0573 64.9374C62.7673 65.0624 62.4283 65.1244 62.0413 65.1244C61.6593 65.1244 61.3293 65.0674 61.0513 64.9534C60.7723 64.8404 60.5423 64.6744 60.3603 64.4584C60.1793 64.2404 60.0433 63.9714 59.9553 63.6494C59.8663 63.3284 59.8213 62.9584 59.8213 62.5394C59.8213 62.1394 59.8703 61.7764 59.9663 61.4494C60.0633 61.1224 60.2083 60.8454 60.4023 60.6164C60.5953 60.3864 60.8373 60.2114 61.1273 60.0864C61.4173 59.9624 61.7563 59.9004 62.1433 59.9004C62.5173 59.9004 62.8433 59.9564 63.1203 60.0694C63.3973 60.1814 63.6283 60.3454 63.8123 60.5614C63.9963 60.7764 64.1343 61.0434 64.2243 61.3614C64.3143 61.6784 64.3593 62.0424 64.3593 62.4534Z" fill="#919292"/>
<path d="M69.234 64.7719C69.234 64.8239 69.225 64.8679 69.208 64.9049C69.19 64.9409 69.167 64.9719 69.139 64.9949C69.11 65.0189 69.078 65.0359 69.044 65.0459C69.008 65.0569 68.973 65.0619 68.938 65.0619H68.715C68.644 65.0619 68.583 65.0549 68.53 65.0399C68.478 65.0259 68.4279 64.9999 68.38 64.9619C68.333 64.9239 68.285 64.8719 68.238 64.8069C68.191 64.7419 68.141 64.6579 68.087 64.5559L66.539 61.6689C66.458 61.5199 66.377 61.3639 66.294 61.2009C66.212 61.0369 66.136 60.8779 66.065 60.7239H66.057C66.062 60.9129 66.066 61.1039 66.069 61.3009C66.072 61.4969 66.073 61.6919 66.073 61.8849V64.9479C66.073 64.9659 66.067 64.9839 66.056 65.0009C66.045 65.0179 66.026 65.0309 66 65.0399C65.974 65.0499 65.9399 65.0569 65.8969 65.0639C65.8539 65.0709 65.7999 65.0739 65.7329 65.0739C65.667 65.0739 65.613 65.0709 65.57 65.0639C65.527 65.0569 65.4929 65.0499 65.4679 65.0399C65.4439 65.0309 65.4259 65.0179 65.415 65.0009C65.404 64.9839 65.3979 64.9659 65.3979 64.9479V60.2649C65.3979 60.1599 65.428 60.0859 65.487 60.0419C65.547 59.9969 65.611 59.9749 65.682 59.9749H66.014C66.092 59.9749 66.157 59.9819 66.21 59.9939C66.262 60.0069 66.31 60.0289 66.351 60.0599C66.393 60.0889 66.434 60.1309 66.473 60.1849C66.512 60.2379 66.553 60.3059 66.596 60.3859L67.7859 62.6139C67.86 62.7499 67.93 62.8829 67.999 63.0129C68.067 63.1419 68.133 63.2699 68.196 63.3949C68.259 63.5209 68.3209 63.6439 68.3829 63.7649C68.445 63.8869 68.507 64.0089 68.567 64.1329H68.571C68.566 63.9259 68.563 63.7109 68.561 63.4869C68.56 63.2639 68.559 63.0489 68.559 62.8419V60.0889C68.559 60.0709 68.565 60.0539 68.576 60.0379C68.587 60.0219 68.605 60.0079 68.632 59.9959C68.658 59.9849 68.693 59.9759 68.735 59.9709C68.778 59.9659 68.834 59.9629 68.903 59.9629C68.963 59.9629 69.016 59.9659 69.06 59.9709C69.104 59.9759 69.139 59.9849 69.164 59.9959C69.189 60.0079 69.206 60.0219 69.218 60.0379C69.228 60.0539 69.234 60.0709 69.234 60.0889V64.7719Z" fill="#919292"/>
<path d="M73.3396 64.7716C73.3396 64.8186 73.3366 64.8596 73.3316 64.8946C73.3266 64.9306 73.3176 64.9596 73.3046 64.9836C73.2916 65.0066 73.2756 65.0236 73.2596 65.0336C73.2416 65.0446 73.2236 65.0496 73.2026 65.0496H70.7666C70.7066 65.0496 70.6496 65.0296 70.5966 64.9896C70.5426 64.9486 70.5156 64.8766 70.5156 64.7756V60.2486C70.5156 60.1466 70.5426 60.0756 70.5966 60.0356C70.6496 59.9946 70.7066 59.9746 70.7666 59.9746H73.1746C73.1956 59.9746 73.2146 59.9796 73.2316 59.9906C73.2486 60.0006 73.2626 60.0176 73.2726 60.0416C73.2836 60.0646 73.2916 60.0946 73.2986 60.1296C73.3046 60.1646 73.3086 60.2086 73.3086 60.2606C73.3086 60.3076 73.3046 60.3496 73.2986 60.3836C73.2916 60.4196 73.2836 60.4486 73.2726 60.4706C73.2626 60.4926 73.2486 60.5096 73.2316 60.5196C73.2146 60.5306 73.1956 60.5356 73.1746 60.5356H71.1906V62.1276H72.8926C72.9136 62.1276 72.9326 62.1336 72.9496 62.1456C72.9666 62.1576 72.9806 62.1736 72.9926 62.1946C73.0036 62.2156 73.0126 62.2446 73.0176 62.2806C73.0236 62.3176 73.0256 62.3606 73.0256 62.4106C73.0256 62.4576 73.0236 62.4986 73.0176 62.5316C73.0126 62.5656 73.0036 62.5926 72.9926 62.6136C72.9806 62.6356 72.9666 62.6506 72.9496 62.6586C72.9326 62.6686 72.9136 62.6726 72.8926 62.6726H71.1906V64.4886H73.2026C73.2236 64.4886 73.2416 64.4936 73.2596 64.5046C73.2756 64.5156 73.2916 64.5316 73.3046 64.5536C73.3176 64.5756 73.3266 64.6046 73.3316 64.6396C73.3366 64.6756 73.3396 64.7186 73.3396 64.7716Z" fill="#919292"/>
<path d="M12.5432 38.0681C5.08421 38.0681 0.168213 32.8441 0.168213 25.3861C0.168213 17.5771 5.64321 11.9971 13.0492 11.9971C17.9712 11.9971 20.9652 14.43 21.2662 14.837L18.9832 18.3361C18.5782 18.0831 16.4972 16.613 13.4052 16.613C8.58621 16.613 5.79621 20.7211 5.79621 24.9831C5.79621 29.9011 8.48421 33.4001 13.1512 33.4001C16.6002 33.4001 19.2392 31.6251 19.4402 31.5251L21.6232 35.1791C21.4702 35.3311 18.0212 38.0681 12.5432 38.0681Z" fill="#919292"/>
<path d="M34.9997 16.2551C31.5497 16.2551 29.1147 18.8421 28.6577 22.5951H40.2747C40.2747 20.464 39.4127 16.2551 34.9997 16.2551ZM45.4487 26.7571H28.6577C28.6577 29.7501 30.5337 33.6041 35.7087 33.6041C39.1577 33.6041 41.7967 32.0801 42.5067 31.727L44.4347 35.3801C44.1807 35.5311 40.6307 38.0671 35.2537 38.0671C27.4927 38.0671 23.1807 32.537 23.1807 25.235C23.1807 17.4731 27.8977 11.9961 34.8967 11.9961C41.6437 11.9961 45.5497 16.8651 45.5497 24.7751C45.5497 25.5881 45.4487 26.3511 45.4487 26.7571Z" fill="#919292"/>
<path d="M65.3132 5.95776C65.0592 5.80578 63.4882 4.84277 61.7122 4.84277C60.6972 4.84277 59.6332 5.04577 58.8702 5.80578C57.7052 6.97277 57.6552 8.59674 57.6552 10.5237V12.7058H65.1592V17.2698H57.6552V37.4587H52.0732V17.2698H48.8782V12.7058H52.0732V10.5748C52.0732 7.12476 52.4792 4.58978 54.6112 2.45978C56.0302 1.03778 58.0602 0.175781 60.9512 0.175781C64.8562 0.175781 67.2932 2.10174 67.4452 2.30475L65.3132 5.95776Z" fill="#919292"/>
<path d="M82.9153 5.95776C82.6613 5.80578 81.0913 4.84277 79.3153 4.84277C78.3003 4.84277 77.2343 5.04577 76.4753 5.80578C75.3073 6.97277 75.2563 8.59674 75.2563 10.5237V12.7058H82.7653V17.2698H75.2563V37.4587H69.6753V17.2698H65.5173V12.7058H69.6753V10.5748C69.6753 7.12476 70.0823 4.58978 72.2143 2.45978C73.6333 1.03778 75.6633 0.175781 78.5533 0.175781C82.4603 0.175781 84.8933 2.10174 85.0493 2.30475L82.9153 5.95776Z" fill="#919292"/>
<path d="M84.0661 12.6191H75.2261V17.6992H84.0661V12.6191Z" fill="#7DC5AD"/>
<path d="M75.2581 12.6191H66.4521V17.6992H75.2581V12.6191Z" fill="#18BBEE"/>
<path d="M66.452 12.6191H57.646V17.6992H66.452V12.6191Z" fill="#0F80C3"/>
<path d="M57.6499 12.6191H48.3579V17.6992H57.6499V12.6191Z" fill="#3A4495"/>
</g>
</g>
<defs>
<clipPath id="clip0_23138_67904">
<rect width="141" height="66" fill="white"/>
</clipPath>
</defs>
</svg>
