<svg width="131" height="42" viewBox="0 0 131 42" fill="none" xmlns="http://www.w3.org/2000/svg">
<g clip-path="url(#clip0_23138_67795)">
<path d="M7.74013 18.669H19.2166C21.4563 18.669 23.1545 18.1233 24.3113 17.0319C25.467 15.9405 26.0454 14.3034 26.0464 12.1206C26.0464 10.819 25.86 9.75578 25.487 8.93097C25.1534 8.15847 24.6213 7.49366 23.9476 7.00775C23.2737 6.54034 22.5098 6.22694 21.7077 6.08876C20.8482 5.93399 19.9772 5.85706 19.1046 5.85887H7.74013V18.669ZM0.742188 -0.000488281H19.8328C24.2362 -0.000488281 27.5388 0.975948 29.7407 2.92882C31.9426 4.88169 33.0438 7.60106 33.0444 11.0869C33.0444 13.0398 32.7645 14.6577 32.2049 15.9407C31.6452 17.2236 30.9921 18.2576 30.2457 19.0425C29.4982 19.8276 28.761 20.3925 28.0339 20.737C27.3057 21.0819 26.7739 21.3119 26.4385 21.4268V21.5418C27.1054 21.6392 27.7556 21.8325 28.37 22.1158C29.1073 22.4586 29.7655 22.9577 30.3013 23.5803C30.8976 24.251 31.392 25.1224 31.7847 26.1946C32.1761 27.2671 32.3717 28.6074 32.3717 30.2153C32.3543 32.4201 32.5326 34.622 32.9044 36.7936C33.2582 38.7662 33.8086 40.1737 34.5558 41.016H27.0537C26.5283 40.1262 26.2122 39.1229 26.1305 38.0859C26.0368 37.0145 25.99 35.9804 25.99 34.9834C25.99 33.1077 25.878 31.4898 25.6539 30.1296C25.4299 28.7695 25.0194 27.6398 24.4225 26.7405C23.8262 25.8411 22.9768 25.1497 21.9875 24.7585C20.9608 24.3381 19.6452 24.1276 18.0408 24.127H7.74013V41.0161H0.742188V-0.000488281Z" fill="black"/>
<path d="M55.9341 23.552C55.8614 22.5297 55.6445 21.5236 55.2903 20.5652C54.9587 19.6477 54.4655 18.8005 53.8353 18.0659C53.2052 17.3477 52.4446 16.7625 51.5961 16.343C50.6789 15.8938 49.6731 15.6677 48.6569 15.6824C47.61 15.6674 46.5712 15.8726 45.6046 16.2854C44.7171 16.6676 43.9167 17.2347 43.254 17.9508C42.5881 18.6793 42.0568 19.5259 41.6861 20.4494C41.2882 21.4344 41.07 22.4861 41.0423 23.552H55.9341ZM41.0428 27.8601C41.0396 28.9889 41.2 30.112 41.5186 31.1925C41.8109 32.2172 42.2958 33.1733 42.946 34.0068C43.5979 34.8253 44.4206 35.483 45.3535 35.9313C46.3243 36.4109 47.4813 36.6503 48.8244 36.6495C50.6908 36.6495 52.1932 36.2376 53.3317 35.414C54.4701 34.5903 55.319 33.3556 55.8782 31.7098H61.9246C61.3243 34.7235 59.6468 37.3977 57.222 39.2063C56.0427 40.0794 54.7269 40.7399 53.3313 41.1592C51.8681 41.6029 50.3498 41.8255 48.8241 41.8198C46.5472 41.8198 44.5317 41.4369 42.7777 40.671C41.0816 39.9472 39.5619 38.8487 38.3268 37.4535C37.0846 36.0226 36.1501 34.3393 35.584 32.5131C34.9686 30.5988 34.6606 28.4924 34.6601 26.1938C34.6499 24.1501 34.9815 22.1198 35.6405 20.1912C36.2574 18.3586 37.2074 16.6627 38.44 15.1933C39.6576 13.7534 41.1541 12.5895 42.8341 11.7757C44.5508 10.9333 46.4918 10.5118 48.6572 10.511C50.9325 10.511 52.9759 10.9995 54.7871 11.9764C56.5494 12.9123 58.0883 14.2364 59.2937 15.8538C60.509 17.5075 61.3937 19.3915 61.8967 21.3974C62.4388 23.5041 62.5815 25.698 62.3173 27.8599L41.0428 27.8601Z" fill="black"/>
<path d="M86.5588 26.1946C86.5621 24.8752 86.3928 23.5613 86.0554 22.288C85.7479 21.0857 85.2364 19.9483 84.5443 18.928C83.8838 17.9623 83.024 17.158 82.026 16.5721C81.0169 15.9792 79.8596 15.6826 78.5542 15.6823C75.8668 15.6823 73.8419 16.6396 72.4795 18.5541C71.1174 20.4699 70.4364 23.0168 70.4367 26.1947C70.4252 27.6015 70.6039 29.0031 70.9677 30.3595C71.2814 31.5581 71.8236 32.681 72.563 33.6633C73.2533 34.5664 74.1214 35.3102 75.1107 35.8461C76.099 36.3823 77.2467 36.6503 78.5539 36.6501C80.0097 36.6501 81.2411 36.3438 82.2481 35.7311C83.24 35.1346 84.091 34.3201 84.7399 33.3463C85.4068 32.336 85.882 31.2056 86.1404 30.0146C86.4201 28.7616 86.5605 27.4801 86.5588 26.1946ZM64.2781 -0.000488281H70.6606V15.1649H70.7719C71.2197 14.4376 71.7665 13.7797 72.3957 13.2112C73.0329 12.6347 73.7383 12.1429 74.4953 11.7473C75.2596 11.3448 76.0673 11.0359 76.9019 10.8272C77.7174 10.6197 78.5542 10.5134 79.3944 10.5107C81.6697 10.5107 83.6571 10.9228 85.3563 11.7469C87.0004 12.5279 88.4469 13.6874 89.5832 15.1353C90.7314 16.6284 91.5869 18.3355 92.1026 20.1624C92.673 22.1583 92.9557 24.2292 92.9414 26.3092C92.9457 28.2693 92.6914 30.221 92.1856 32.1111C91.7237 33.8975 90.946 35.5816 89.8911 37.0796C88.8647 38.5159 87.5341 39.6946 85.9995 40.5269C84.4325 41.3891 82.5851 41.8201 80.4574 41.8199C79.4745 41.8188 78.4927 41.7515 77.5183 41.6183C76.5467 41.4893 75.5961 41.2287 74.6912 40.8435C73.8119 40.4716 72.9911 39.9682 72.2555 39.3498C71.4894 38.6866 70.8694 37.8639 70.4367 36.9362H70.3246V41.016H64.2781V-0.000488281Z" fill="black"/>
<path d="M116.045 23.552C115.973 22.5297 115.757 21.5236 115.402 20.5652C115.071 19.6476 114.577 18.8004 113.947 18.0659C113.317 17.3475 112.557 16.7622 111.708 16.3429C110.791 15.8936 109.785 15.6675 108.768 15.6823C107.722 15.6676 106.683 15.8729 105.717 16.2855C104.83 16.6675 104.029 17.2346 103.367 17.951C102.701 18.6798 102.169 19.5263 101.798 20.4495C101.4 21.4346 101.182 22.4862 101.155 23.5521L116.045 23.552ZM101.155 27.86C101.152 28.9889 101.312 30.112 101.631 31.1925C101.923 32.2172 102.408 33.1733 103.058 34.0068C103.71 34.8253 104.533 35.483 105.465 35.9314C106.435 36.411 107.592 36.6504 108.937 36.6496C110.803 36.6496 112.305 36.2377 113.443 35.4141C114.582 34.5904 115.431 33.3557 115.991 31.7099H122.037C121.436 34.7239 119.759 37.3982 117.333 39.2064C116.154 40.0795 114.839 40.74 113.443 41.1593C111.98 41.603 110.462 41.8255 108.937 41.82C106.659 41.82 104.644 41.437 102.89 40.6711C101.194 39.9475 99.6745 38.8489 98.4398 37.4536C97.1968 36.0231 96.262 34.3397 95.6963 32.5132C95.0809 30.5989 94.7729 28.4925 94.7724 26.1939C94.7626 24.1503 95.0942 22.12 95.7528 20.1913C96.3695 18.3587 97.3192 16.6627 98.5517 15.1932C99.7697 13.7534 101.266 12.5896 102.947 11.7756C104.663 10.9332 106.604 10.5116 108.769 10.5109C111.045 10.5109 113.089 10.9994 114.9 11.9763C116.662 12.912 118.201 14.2361 119.406 15.8537C120.62 17.5078 121.505 19.3918 122.008 21.3975C122.55 23.5043 122.692 25.6982 122.427 27.86H101.155Z" fill="black"/>
<path d="M124.36 -0.000488281H130.742V41.016H124.36V-0.000488281Z" fill="black"/>
</g>
<defs>
<clipPath id="clip0_23138_67795">
<rect width="131" height="42" fill="white"/>
</clipPath>
</defs>
</svg>
