<svg width="130" height="130" viewBox="0 0 130 130" fill="none" xmlns="http://www.w3.org/2000/svg">
<g clip-path="url(#clip0_23138_68015)">
<path d="M64.9998 129.7C100.733 129.7 129.7 100.733 129.7 65C129.7 29.2672 100.733 0.299988 64.9998 0.299988C29.267 0.299988 0.299805 29.2672 0.299805 65C0.299805 100.733 29.267 129.7 64.9998 129.7Z" fill="#EC1C24"/>
<path d="M65.1 24C82.5 24 98.6 35.1 104.2 52.4C111.1 74 99.2 97.1 77.6 104.1C73.8 105 69.1 106.1 64.9 106.1C47.5 106.1 31.4 95 25.8 77.7C18.9 56.1 30.8 33 52.4 26C56.2 25.1 60.9 24 65.1 24Z" fill="#004883"/>
<mask id="mask0_23138_68015" style="mask-type:luminance" maskUnits="userSpaceOnUse" x="19" y="19" width="92" height="92">
<path d="M65.1 24C65.1 21.6 65.1 19.7 65.1 19.7C84.3 19.7 102.1 31.9 108.3 51.1C116 74.9 102.8 100.5 78.9 108.2C74.3 109.7 69.5 110.4 64.9 110.4C45.7 110.4 27.9 98.2 21.7 79C14 55.2 27.2 29.6 51.1 21.9C55.7 20.4 60.5 19.7 65.1 19.7C65.1 19.7 65.1 21.6 65.1 24C60.9 24 56.3 25.1 52.4 26C30.8 33 18.9 56.1 25.8 77.7C31.4 95.1 47.5 106.1 64.9 106.1C69.1 106.1 73.7 105 77.6 104.1C99.2 97.1 111.1 74 104.2 52.4C98.6 35.1 82.4 24 65.1 24Z" fill="white"/>
</mask>
<g mask="url(#mask0_23138_68015)">
<path d="M65.1 24C65.1 21.6 65.1 19.7 65.1 19.7C84.3 19.7 102.1 31.9 108.3 51.1C116 74.9 102.8 100.5 78.9 108.2C74.3 109.7 69.5 110.4 64.9 110.4C45.7 110.4 27.9 98.2 21.7 79C14 55.2 27.2 29.6 51.1 21.9C55.7 20.4 60.5 19.7 65.1 19.7C65.1 19.7 65.1 21.6 65.1 24C60.9 24 56.3 25.1 52.4 26C30.8 33 18.9 56.1 25.8 77.7C31.4 95.1 47.5 106.1 64.9 106.1C69.1 106.1 73.7 105 77.6 104.1C99.2 97.1 111.1 74 104.2 52.4C98.6 35.1 82.4 24 65.1 24Z" fill="#5C97C8"/>
<path d="M65.1 21.8C65 21.9 64.7 21.7 64.5 21.7C41.6 18.6 21.9 44.3 23.5 54C31.8 38.1 38.3 25.5 65 22.5C65 23 65 23.5 65 24C60.8 24 56.2 25.1 52.3 26C30.7 33 18.8 56.1 25.7 77.7C31.3 95.1 47.4 106.1 64.8 106.1C69 106.1 73.6 105 77.5 104.1C99.1 97.1 111 74 104.1 52.4C98.6 35.1 82.4 24 65.1 24C65.1 23.5 65.1 22.9 65.1 22.5C65.5 22.4 66 22.4 66.3 22.3C66 22 65.4 21.9 65.1 21.8C65.1 20.5 65.1 19.7 65.1 19.7C84.3 19.7 102.1 31.9 108.3 51.1C116 74.9 102.8 100.5 78.9 108.2C74.3 109.7 69.5 110.4 64.9 110.4C45.7 110.4 27.9 98.2 21.7 79C14 55.2 27.2 29.6 51.1 21.9C55.7 20.4 60.5 19.7 65.1 19.7C65.1 19.7 65.1 20.5 65.1 21.8Z" fill="#5C97C8"/>
<path d="M65.1 21.6C65 21.7 64.6 21.6 64.4 21.5C38.2 19.4 21 47.1 23.1 55.7C29.4 42.3 38 24.1 65 22.7C65 23.1 65 23.6 65 24C60.8 24 56.2 25.1 52.3 26C30.7 33 18.8 56.1 25.7 77.7C31.3 95.1 47.4 106.1 64.8 106.1C69 106.1 73.6 105 77.5 104.1C99.1 97.1 111 74 104.1 52.4C98.6 35.1 82.4 24 65.1 24C65.1 23.5 65.1 23.1 65.1 22.7C65.9 22.7 66.9 22.5 67.7 22.4C66.9 22.1 65.9 21.7 65.1 21.6C65.1 20.4 65.1 19.7 65.1 19.7C84.3 19.7 102.1 31.9 108.3 51.1C116 74.9 102.8 100.5 78.9 108.2C74.3 109.7 69.5 110.4 64.9 110.4C45.7 110.4 27.9 98.2 21.7 79C14 55.2 27.2 29.6 51.1 21.9C55.7 20.4 60.5 19.7 65.1 19.7C65.1 19.7 65.1 20.4 65.1 21.6Z" fill="#5794C6"/>
<path d="M65.1 21.5C65 21.6 64.6 21.5 64.4 21.4C39.6 19.4 21.3 44.3 22.8 57.4C32.6 37.5 32.6 37.5 37.2 33.8C41.3 30.5 49.7 23.6 65.1 22.9C65.1 23.3 65.1 23.7 65.1 24.1C60.9 24.1 56.3 25.2 52.4 26.1C30.8 33.1 18.9 56.2 25.8 77.8C31.4 95.2 47.5 106.2 64.9 106.2C69.1 106.2 73.7 105.1 77.6 104.2C99.2 97.2 111.1 74.1 104.2 52.5C98.6 35.1 82.4 24 65.1 24C65.1 23.6 65.1 23.2 65.1 22.8C68.5 22.6 68.5 22.6 69.1 22.5C69 22.4 69 22.1 68.8 22C67.9 21.4 66.2 21.6 65.1 21.5C65.1 20.4 65.1 19.7 65.1 19.7C84.3 19.7 102.1 31.9 108.3 51.1C116 74.9 102.8 100.5 78.9 108.2C74.3 109.7 69.5 110.4 64.9 110.4C45.7 110.4 27.9 98.2 21.7 79C14 55.2 27.2 29.6 51.1 21.9C55.7 20.4 60.5 19.7 65.1 19.7C65.1 19.7 65.1 20.4 65.1 21.5Z" fill="#5190C4"/>
<path d="M65.1 21.3C64.9 21.4 64.6 21.3 64.4 21.3C39.7 19.7 20.8 43.7 22.5 59.1C23.1 58.2 23.4 56.7 23.7 55.7C26.5 45.7 32.5 37.8 37.2 33.8C40.2 31.2 49.4 23.4 65.1 22.9C65.1 23.2 65.1 23.6 65.1 24C60.9 24 56.3 25.1 52.4 26C30.8 33 18.9 56.1 25.8 77.7C31.4 95.1 47.5 106.1 64.9 106.1C69.1 106.1 73.7 105 77.6 104.1C99.2 97.1 111.1 74 104.2 52.4C98.6 35.1 82.4 24 65.1 24C65.1 23.6 65.1 23.3 65.1 22.9C70.9 22.7 70.9 22.7 71.2 22.7C70.1 22.1 68.8 21.7 65.1 21.3C65.1 20.3 65.1 19.6 65.1 19.6C84.3 19.6 102.1 31.8 108.3 51C116 74.8 102.8 100.4 78.9 108.1C74.3 109.6 69.5 110.3 64.9 110.3C45.7 110.3 27.9 98.1 21.7 78.9C14 55.1 27.2 29.5 51.1 21.8C55.7 20.3 60.5 19.6 65.1 19.6C65.1 19.7 65.1 20.3 65.1 21.3Z" fill="#4B8DC2"/>
<path d="M65.1 21.2C65 21.3 64.6 21.2 64.4 21.2C37.3 19.5 19.8 46.4 22.3 60.8C22.8 60.2 23 59.1 23.2 58.3C24.4 53.7 27.1 42.8 37.3 33.8C47 25.3 57.8 23.2 65.1 23C65.1 23.3 65.1 23.6 65.1 23.9C60.9 23.9 56.3 25 52.4 25.9C30.8 32.9 18.9 56 25.8 77.6C31.4 95 47.5 106 64.9 106C69.1 106 73.7 104.9 77.6 104C99.2 97 111.1 73.9 104.2 52.3C98.6 35.1 82.4 24 65.1 24C65.1 23.7 65.1 23.4 65.1 23.1C67.7 23.1 70.3 23.9 72.9 23C71.1 22.1 68.9 21.6 65.1 21.2C65.1 20.3 65.1 19.6 65.1 19.6C84.3 19.6 102.1 31.8 108.3 51C116 74.8 102.8 100.4 78.9 108.1C74.3 109.6 69.5 110.3 64.9 110.3C45.7 110.3 27.9 98.1 21.7 78.9C14 55.1 27.2 29.5 51.1 21.8C55.7 20.3 60.5 19.6 65.1 19.6C65.1 19.7 65.1 20.3 65.1 21.2Z" fill="#4488C0"/>
<path d="M65.1 21.1C65 21.2 64.6 21.1 64.4 21.1C52.8 20.4 41.2 26.1 35.4 31.7C21.1 45.5 21.7 58.7 22.2 62.5C28.2 45.3 35.7 23.9 65.1 23.1C65.1 23.4 65.1 23.7 65.1 23.9C60.9 23.9 56.3 25 52.4 25.9C30.8 32.9 18.9 56 25.8 77.6C31.4 95 47.5 106 64.9 106C69.1 106 73.7 104.9 77.6 104C99.2 97 111.1 73.9 104.2 52.3C98.6 35.1 82.4 24 65.1 24C65.1 23.7 65.1 23.4 65.1 23.2C68.5 23.2 68.5 23.2 74.4 23.6C72.9 22 68.5 21.4 65.1 21.1C65.1 20.2 65.1 19.7 65.1 19.7C84.3 19.7 102.1 31.9 108.3 51.1C116 74.9 102.8 100.5 78.9 108.2C74.3 109.7 69.5 110.4 64.9 110.4C45.7 110.4 27.9 98.2 21.7 79C14 55.2 27.2 29.6 51.1 21.9C55.7 20.4 60.5 19.7 65.1 19.7C65.1 19.7 65.1 20.3 65.1 21.1Z" fill="#3D84BE"/>
<path d="M65.1 21C65 21.1 64.6 21 64.4 21C60.3 20.8 45.8 21.1 32.9 34.1C25 42 20.4 55.1 22.1 64.4C24.8 58.7 24.9 52.1 27.7 46.4C28 45.8 30.7 40.3 36.2 35C46.5 25.1 58.7 23.4 65.1 23.3C65.1 23.5 65.1 23.8 65.1 24C60.9 24 56.3 25.1 52.4 26C30.8 33 18.9 56.1 25.8 77.7C31.4 95.1 47.5 106.1 64.9 106.1C69.1 106.1 73.7 105 77.6 104.1C99.2 97.1 111.1 74 104.2 52.4C98.6 35.1 82.4 24 65.1 24C65.1 23.7 65.1 23.5 65.1 23.3C68.8 23.3 69.6 23.3 76.4 24.1C73.5 21.8 67.5 21.2 65.1 21C65.1 20.2 65.1 19.6 65.1 19.6C84.3 19.6 102.1 31.8 108.3 51C116 74.8 102.8 100.4 78.9 108.1C74.3 109.6 69.5 110.3 64.9 110.3C45.7 110.3 27.9 98.1 21.7 78.9C14 55.1 27.2 29.5 51.1 21.8C55.7 20.3 60.5 19.6 65.1 19.6C65.1 19.7 65.1 20.2 65.1 21Z" fill="#357FBB"/>
<path d="M65.1 20.9C65 21 64.6 20.9 64.4 20.9C55.9 20.5 42.6 23.6 32.8 34C19.3 48.5 21.2 64.6 22.4 66.5C24.6 54.9 30.6 24.1 65 23.4C65 23.6 65 23.8 65 24C60.8 24 56.2 25.1 52.3 26C30.7 33 18.8 56.1 25.7 77.7C31.3 95.1 47.4 106.1 64.8 106.1C69 106.1 73.6 105 77.5 104.1C99.1 97.1 111 74 104.1 52.4C98.6 35.1 82.4 24 65.1 24C65.1 23.8 65.1 23.6 65.1 23.4C65.5 23.4 65.5 23.4 78.1 24.7C75.8 22.7 71.5 21.5 65.1 20.9C65.1 20.1 65.1 19.6 65.1 19.6C84.3 19.6 102.1 31.8 108.3 51C116 74.8 102.8 100.4 78.9 108.1C74.3 109.6 69.5 110.3 64.9 110.3C45.7 110.3 27.9 98.1 21.7 78.9C14 55.1 27.2 29.5 51.1 21.8C55.7 20.3 60.5 19.6 65.1 19.6C65.1 19.7 65.1 20.2 65.1 20.9Z" fill="#2B78B8"/>
<path d="M65.1 20.9C65 21 64.7 20.9 64.6 20.9C61.4 20.7 44.7 20.7 31.7 35.3C20.8 47.4 20 63.2 22.6 68.6C24.1 62.7 23.8 56.5 25.9 50.8C27.8 45.7 31.4 40.2 34.1 37.4C42.6 28.4 53 23.7 65.1 23.4C65.1 23.6 65.1 23.8 65.1 23.9C60.9 23.9 56.3 25 52.4 25.9C30.8 32.9 18.9 56 25.8 77.6C31.4 95 47.5 106 64.9 106C69.1 106 73.7 104.9 77.6 104C99.2 97 111.1 73.9 104.2 52.3C98.6 35.1 82.4 24 65.1 24C65.1 23.8 65.1 23.6 65.1 23.5C70.2 23.6 75.2 24.9 80.2 25.5C80.2 25.4 76.4 21.7 65.1 20.9C65.1 20.2 65.1 19.7 65.1 19.7C84.3 19.7 102.1 31.9 108.3 51.1C116 74.9 102.8 100.5 78.9 108.2C74.3 109.7 69.5 110.4 64.9 110.4C45.7 110.4 27.9 98.2 21.7 79C14 55.2 27.2 29.6 51.1 21.9C55.7 20.4 60.5 19.7 65.1 19.7C65.1 19.7 65.1 20.1 65.1 20.9Z" fill="#1F70B3"/>
<path d="M65.1 20.8C65 20.9 64.6 20.8 64.4 20.8C52.6 20.2 39.4 26 31.6 35.3C18.1 51.2 21.2 67.3 22.8 70.8C23.3 70.2 23.1 69 23.1 68.2C23.2 63.1 23.3 49.6 34.1 37.6C38.7 32.5 48.7 24 65.1 23.7C60.9 24.2 56.3 25.3 52.4 26.2C30.8 33.2 18.9 56.3 25.8 77.9C31.4 95.3 47.5 106.3 64.9 106.3C69.1 106.3 73.7 105.2 77.6 104.3C99.2 97.3 111.1 74.2 104.2 52.6C98.6 35.1 82.4 24 65.1 24C65.1 23.9 65.1 23.7 65.1 23.5C69.5 23.6 73.1 23.8 80 25.8C80.7 26 81.7 26.4 82.4 26.2C81.4 25.5 76.6 21.6 65.1 20.8C65.1 20.1 65.1 19.7 65.1 19.7C84.3 19.7 102.1 31.9 108.3 51.1C116 74.9 102.8 100.5 78.9 108.2C74.3 109.7 69.5 110.4 64.9 110.4C45.7 110.4 27.9 98.2 21.7 79C14 55.2 27.2 29.6 51.1 21.9C55.7 20.4 60.5 19.7 65.1 19.7C65.1 19.7 65.1 20.1 65.1 20.8Z" fill="#005DA9"/>
<path d="M65.1 20.7C65 20.8 64.6 20.7 64.4 20.7C55 20.3 40.4 24.2 30.3 36.6C20.3 49 19.6 64 23.1 72.7C24.2 66.5 23.2 60 25.1 53.8C27.4 45.9 31.5 40.6 33.2 38.6C44.2 25.8 57.9 23.7 65.1 23.6C60.9 24 56.3 25.1 52.4 26C30.8 33 18.9 56.1 25.8 77.7C31.4 95.1 47.5 106.1 64.9 106.1C69.1 106.1 73.7 105 77.6 104.1C99.2 97.1 111.1 74 104.2 52.4C98.6 35.1 82.4 24 65.1 24C65.1 23.9 65.1 23.7 65.1 23.6C72.4 23.7 75.4 24.6 84.3 27.5C83.7 26.1 76.7 21.3 65.1 20.7C65.1 20.1 65.1 19.7 65.1 19.7C84.3 19.7 102.1 31.9 108.3 51.1C116 74.9 102.8 100.5 78.9 108.2C74.3 109.7 69.5 110.4 64.9 110.4C45.7 110.4 27.9 98.2 21.7 79C14 55.2 27.2 29.6 51.1 21.9C55.7 20.4 60.5 19.7 65.1 19.7C65.1 19.7 65.1 20.1 65.1 20.7Z" fill="#005BA6"/>
<path d="M65.1 20.6C65 20.7 64.6 20.6 64.4 20.6C54.4 20.2 39.3 24.4 29.4 37.8C17.1 54.3 21.3 71.7 24.1 75.9C24.7 49.6 24.7 49.6 33.2 38.8C35.1 36.3 45.8 24.1 65.1 23.8C60.9 24.1 56.3 25.2 52.4 26.1C30.8 33.1 18.9 56.2 25.8 77.8C31.4 95.2 47.5 106.2 64.9 106.2C69.1 106.2 73.7 105.1 77.6 104.2C99.2 97.2 111.1 74.1 104.2 52.5C98.6 35.1 82.4 24 65.1 24C65.1 23.9 65.1 23.8 65.1 23.7C68.2 23.8 68.2 23.8 86.6 28.8C86 27.6 78.4 21.2 65.1 20.6C65.1 20 65.1 19.7 65.1 19.7C84.3 19.7 102.1 31.9 108.3 51.1C116 74.9 102.8 100.5 78.9 108.2C74.3 109.7 69.5 110.4 64.9 110.4C45.7 110.4 27.9 98.2 21.7 79C14 55.2 27.2 29.6 51.1 21.9C55.7 20.4 60.5 19.7 65.1 19.7C65.1 19.7 65.1 20 65.1 20.6Z" fill="#0059A2"/>
<path d="M65.1 20.5C65 20.6 64.6 20.5 64.4 20.5C53.9 20.1 38.2 24.7 28.3 39.1C18.4 53.5 19.7 69.7 25.1 78.7C25.3 77.6 24.9 76 24.6 74.9C22 63.4 24.6 50.5 31.4 41.3C42.3 26.3 57.2 23.9 65.1 23.8C60.9 24 56.3 25.1 52.4 26C30.8 33 18.9 56.1 25.8 77.7C31.4 95.1 47.5 106.1 64.9 106.1C69.1 106.1 73.7 105 77.6 104.1C99.2 97.1 111.1 74 104.2 52.4C98.6 35.1 82.4 24 65.1 24C65.1 23.9 65.1 23.9 65.1 23.8C75.7 24.1 81.1 26.6 88.9 30.7C88 28.5 79 21.1 65.1 20.5C65.1 20 65.1 19.7 65.1 19.7C84.3 19.7 102.1 31.9 108.3 51.1C116 74.9 102.8 100.5 78.9 108.2C74.3 109.7 69.5 110.4 64.9 110.4C45.7 110.4 27.9 98.2 21.7 79C14 55.2 27.2 29.6 51.1 21.9C55.7 20.4 60.5 19.7 65.1 19.7C65.1 19.7 65.1 20 65.1 20.5Z" fill="#00579F"/>
<path d="M65.1 20.4C64.9 20.6 64.5 20.4 64.3 20.4C60.3 20.3 39.6 20.7 26.4 42.1C19.9 52.6 17.9 70.3 27 82.5C26.2 75 23.4 67.7 24.1 60C24.2 58.5 25.2 50.8 30.6 42.5C38.1 31 51 24 65.1 23.9C60.9 24 56.3 25.1 52.4 26C30.8 33 18.9 56.1 25.8 77.7C31.4 95.1 47.5 106.1 64.9 106.1C69.1 106.1 73.7 105 77.6 104.1C99.2 97.1 111.1 74 104.2 52.4C98.6 35.1 82.4 24 65.1 24V23.9C68.4 24 72.8 24.1 78.9 26.2C83.7 27.9 87.7 31.2 92.3 33.3C92.2 33.2 84.7 21.6 65.1 20.4C65.1 19.9 65.1 19.7 65.1 19.7C84.3 19.7 102.1 31.9 108.3 51.1C116 74.9 102.8 100.5 78.9 108.2C74.3 109.7 69.5 110.4 64.9 110.4C45.7 110.4 27.9 98.2 21.7 79C14 55.2 27.2 29.6 51.1 21.9C55.7 20.4 60.5 19.7 65.1 19.7C65.1 19.7 65.1 20 65.1 20.4Z" fill="#00569B"/>
<path d="M65.1 20.3C65 20.4 64.6 20.3 64.4 20.3C43.3 19.7 20.7 36.7 20.7 63.1C20.7 82.6 40.5 106.2 65.1 106.1C101.2 106 122.4 61.8 90.9 31C84.3 24.6 75.6 21 65.1 20.3C65.1 19.9 65.1 19.7 65.1 19.7C84.3 19.7 102.1 31.9 108.3 51.1C116 74.9 102.8 100.5 78.9 108.2C74.3 109.7 69.5 110.4 64.9 110.4C45.7 110.4 27.9 98.2 21.7 79C14 55.2 27.2 29.6 51.1 21.9C55.7 20.4 60.5 19.7 65.1 19.7C65.1 19.7 65.1 19.9 65.1 20.3Z" fill="#005498"/>
<path d="M65.1 20.2C64.9 20.4 64.4 20.2 64.1 20.2C43.1 19.8 20.6 37 20.6 63.1C20.6 83.1 40 106.3 65.1 106.2C103.5 106 120.4 59.4 92 31.7C81.1 21.1 69 20.4 65.1 20.2C65.1 19.9 65.1 19.7 65.1 19.7C84.3 19.7 102.1 31.9 108.3 51.1C116 74.9 102.8 100.5 78.9 108.2C74.3 109.7 69.5 110.4 64.9 110.4C45.7 110.4 27.9 98.2 21.7 79C14 55.2 27.2 29.6 51.1 21.9C55.7 20.4 60.5 19.7 65.1 19.7C65.1 19.7 65.1 19.9 65.1 20.2Z" fill="#005295"/>
<path d="M65.1 20.2C65 20.3 64.6 20.2 64.4 20.2C40.6 19.7 20.5 39.3 20.5 63.1C20.5 85.9 41.8 106.5 65.1 106.3C104 106.1 120.8 60.1 92.3 31.7C85.1 24.6 76 20.7 65.1 20.2C84.3 19.7 102.1 31.9 108.3 51.1C116 74.9 102.8 100.5 78.9 108.2C74.3 109.7 69.5 110.4 64.9 110.4C45.7 110.4 27.9 98.2 21.7 79C14 55.2 27.2 29.6 51.1 21.9C55.7 20.4 60.5 19.7 65.1 19.7C65.1 19.7 65.1 19.9 65.1 20.2Z" fill="#005091"/>
<path d="M65.1 20.1C65 20.2 64.6 20.1 64.4 20.1C40.9 19.5 20.4 39.6 20.4 63.1C20.4 86 41.7 106.6 65.1 106.4C103.7 106.1 121 60.3 93.1 32.2C85.6 24.7 76.1 20.6 65.1 20.1C84.3 19.7 102.1 31.9 108.3 51.1C116 74.9 102.8 100.5 78.9 108.2C74.3 109.7 69.5 110.4 64.9 110.4C45.7 110.4 27.9 98.2 21.7 79C14 55.2 27.2 29.6 51.1 21.9C55.7 20.4 60.5 19.7 65.1 19.7C65.1 19.7 65.1 19.8 65.1 20.1Z" fill="#004E8E"/>
<path d="M65.1 20C65 20.1 64.6 20 64.4 20C40.9 19.4 20.3 39.5 20.3 63.1C20.3 86.5 41.2 106.8 65.1 106.6C103.4 106.2 120.6 59.3 92.7 31.6C85.4 24.4 76.1 20.5 65.1 20C84.3 19.7 102.1 31.9 108.3 51.1C116 74.9 102.8 100.5 78.9 108.2C74.3 109.7 69.5 110.4 64.9 110.4C45.7 110.4 27.9 98.2 21.7 79C14 55.2 27.2 29.6 51.1 21.9C55.7 20.4 60.5 19.7 65.1 19.7C65.1 19.7 65.1 19.8 65.1 20Z" fill="#004C8B"/>
<path d="M65.1 19.9C65 20 64.7 19.9 64.6 19.9C40.9 19.5 20.2 39.6 20.2 63C20.2 86.5 41.2 106.9 65.1 106.6C104.5 106.1 121.6 58.9 92.5 31.1C85.2 24.2 76 20.4 65.1 19.9C84.3 19.6 102.1 31.9 108.3 51.1C116 74.9 102.8 100.5 78.9 108.2C74.3 109.7 69.5 110.4 64.9 110.4C45.7 110.4 27.9 98.2 21.7 79C14 55.2 27.2 29.6 51.1 21.9C55.7 20.4 60.5 19.7 65.1 19.7C65.1 19.7 65.1 19.8 65.1 19.9Z" fill="#004A87"/>
<path d="M65.1 19.9C26.3 19.5 5.60003 64.9 32 92.4C61.6 123.2 107.1 100.2 107 64.4C106.9 47.3 95.7 21.3 65.1 19.9C84.3 19.7 102.1 31.9 108.3 51.1C116 74.9 102.8 100.5 78.9 108.2C74.3 109.7 69.5 110.4 64.9 110.4C45.7 110.4 27.9 98.2 21.7 79C14 55.2 27.2 29.6 51.1 21.9C55.7 20.4 60.5 19.7 65.1 19.7C65.1 19.7 65.1 19.8 65.1 19.9Z" fill="#004984"/>
<path d="M65.1 19.8C65 19.9 64.6 19.8 64.4 19.8C40.7 19.7 20 39.9 20 63.1C20 89.7 43.3 107.3 65.1 106.9C104.3 106.3 121.8 58.8 93 31.2C85.7 24.1 75.5 20 65.1 19.8C84.3 19.7 102.1 31.9 108.3 51.1C116 74.9 102.8 100.5 78.9 108.2C74.3 109.7 69.5 110.4 64.9 110.4C45.7 110.4 27.9 98.2 21.7 79C14 55.2 27.2 29.6 51.1 21.9C55.7 20.4 60.5 19.7 65.1 19.7C65.1 19.7 65.1 19.7 65.1 19.8Z" fill="#004780"/>
<path d="M65.1 19.8C65 19.9 64.6 19.8 64.4 19.8C40.7 19.7 19.9 39.9 19.9 63.1C19.9 89.8 43.3 107.4 65.1 107.1C103.5 106.5 121.8 59.6 94.3 32.2C84.3 22.2 72.9 19.9 65.1 19.8C84.3 19.7 102.1 31.9 108.3 51.1C116 74.9 102.8 100.5 78.9 108.2C74.3 109.7 69.5 110.4 64.9 110.4C45.7 110.4 27.9 98.2 21.7 79C14 55.2 27.2 29.6 51.1 21.9C55.7 20.4 60.4 19.7 65.1 19.8C65.1 19.7 65.1 19.7 65.1 19.8Z" fill="#00457D"/>
<path d="M31.2003 34.8001C2.90026 67.2001 30.5003 109.9 67.0003 107C109.2 103.7 119.5 53.5001 91.9003 29.7001C87.7003 26.0001 78.5003 19.9001 65.0003 19.7001C84.2003 19.6001 102 31.9001 108.2 51.1001C115.9 74.9001 102.7 100.5 78.8003 108.2C74.2003 109.7 69.4003 110.4 64.8003 110.4C45.6003 110.4 27.8003 98.2001 21.6003 79.0001C16.0003 61.5001 21.5003 43.1001 34.3003 31.5001C33.6003 32.2001 32.6003 33.2001 31.8003 34.0001C31.7003 34.2001 31.4003 34.6001 31.2003 34.8001Z" fill="#00437A"/>
<path d="M25.1999 43.2C5.09991 80.7 42.9999 116.4 77.8999 105.1C114.8 93.1 118.1 40.7 83.0999 23.8C74.8999 19.9 67.4999 19.7 65.0999 19.7C84.2999 19.7 102.1 31.9 108.3 51.1C116 74.9 102.8 100.5 78.8999 108.2C74.2999 109.7 69.4999 110.4 64.8999 110.4C45.6999 110.4 27.8999 98.2 21.6999 79C17.1999 65 19.8999 50.5 27.5999 39.3C27.0999 40.1 26.2999 41.3 25.7999 42.1C25.6999 42.4 25.3999 42.9 25.1999 43.2Z" fill="#004176"/>
<path d="M23.0003 47.9C8.70027 84.3 44.6003 118.9 81.2003 104C116.2 89.8 116.4 37.6 81.6003 23C76.3003 20.8 70.9003 19.7 65.1003 19.7C84.3003 19.7 102.1 31.9 108.3 51.1C116 74.9 102.8 100.5 78.9003 108.2C74.3003 109.7 69.5003 110.4 64.9003 110.4C45.7003 110.4 27.9003 98.2 21.7003 79C17.9003 67 19.2003 54.6 24.6003 44.3C24.2003 45.2 23.6003 46.4 23.2003 47.3C23.1003 47.4 23.0003 47.7 23.0003 47.9Z" fill="#003F73"/>
<path d="M21.3001 52.8C11.3001 90 51.7001 120.8 85.8001 101.9C118.8 83.6 113.7 32.6 77.7001 21.6C71.8001 19.8 67.2001 19.7 65.0001 19.7C84.2001 19.7 102 31.9 108.2 51.1C115.9 74.9 102.7 100.5 78.8001 108.2C74.2001 109.7 69.4001 110.4 64.8001 110.4C45.6001 110.4 27.8001 98.2 21.6001 79C18.3001 68.7 18.9001 58.1 22.5001 48.8C22.2001 49.7 21.8001 50.9 21.4001 51.8C21.5001 52.1 21.3001 52.5 21.3001 52.8Z" fill="#003D70"/>
<path d="M20.1001 57.8C14.1001 95.4 58.5001 121.8 90.0001 99.3C120.8 77.3 109.6 26.4 72.5001 20.3C70.8001 20 69.1001 19.7 65.4001 19.7C84.4001 19.9 102 32.1 108.1 51.1C115.8 74.9 102.6 100.5 78.7001 108.2C74.1001 109.7 69.3001 110.4 64.7001 110.4C45.5001 110.4 27.7001 98.2 21.5001 79C18.7001 70.2 18.7001 61.2 21.0001 53C20.9001 54.4 20.4001 56.4 20.1001 57.8Z" fill="#003C6C"/>
<path d="M20.1003 57.8C14.7003 100.6 62.8003 121.4 91.4003 98.5C122.3 73.7 108.7 24.5 69.6003 19.9C87.0003 21.7 102.5 33.4 108.2 51.1C115.9 74.9 102.7 100.5 78.8003 108.2C74.2003 109.7 69.4003 110.4 64.8003 110.4C45.6003 110.4 27.8003 98.2 21.6003 79C19.2003 71.6 18.8003 64.1 20.2003 57C20.2003 57.2 20.2003 57.6 20.1003 57.8Z" fill="#003A69"/>
<path d="M19.6003 63C19.2003 106 69.5003 121.3 95.3003 95.3C120.1 70.3 107.8 27.6 73.7003 20.4C89.4003 23.5 103 34.7 108.2 51C115.9 74.8 102.7 100.4 78.8003 108.1C74.2003 109.6 69.4003 110.3 64.8003 110.3C45.6003 110.3 27.8003 98.1 21.6003 78.9C19.7003 72.9 19.1003 66.8 19.6003 60.9C19.7003 61.6 19.6003 62.4 19.6003 63Z" fill="#003865"/>
<path d="M19.7 68.3001C23.5 110.7 76.2 120.4 98.8 91.8001C118.5 66.9001 107.8 30.7001 77.8 21.5001C91.8 25.6001 103.5 36.2001 108.3 51.1001C116 74.9001 102.8 100.5 78.9 108.2C74.3 109.7 69.5 110.4 64.9 110.4C45.7 110.4 27.9 98.2001 21.7 79.0001C20.2 74.4001 19.5 69.8001 19.5 65.2001C19.5 66.1001 19.6 67.3001 19.6 68.2001C19.7 68.2001 19.7 68.3001 19.7 68.3001Z" fill="#003662"/>
<path d="M20.4002 73.6001C27.9002 111.3 78.4002 121.2 100.9 89.3001C115.7 68.4001 110.6 34.9001 82.0002 23.0001C94.1002 27.8001 104 37.8001 108.3 51.1001C116 74.9001 102.8 100.5 78.9002 108.2C74.3002 109.7 69.5002 110.4 64.9002 110.4C45.7002 110.4 27.9002 98.2001 21.7002 79.0001C20.7002 75.9001 20.0002 72.7001 19.7002 69.5001C19.8002 70.4001 20.0002 71.6001 20.1002 72.5001C20.2002 72.8001 20.3002 73.3001 20.4002 73.6001Z" fill="#00345F"/>
<path d="M21.7 79C33.9 116.7 86.4 119.8 104.4 83.8C115.2 62.1 107.3 36.3 86.4 25.1C96.4 30.4 104.4 39.5 108.2 51.1C115.9 74.9 102.7 100.5 78.8 108.2C74.2 109.7 69.4 110.4 64.8 110.4C45.7 110.4 27.9 98.2 21.7 79C21.2 77.5 20.8 75.9 20.5 74.4C20.7 75.3 21 76.5 21.2 77.4C21.4 77.8 21.6 78.5 21.7 79Z" fill="#00325B"/>
<path d="M23.3001 83.1C40.0001 120.1 93.0001 117.7 106.7 79.3C113.5 60.4 107.4 39.9 91.6001 28.2C99.2001 33.6 105.1 41.5 108.2 51C115.9 74.8 102.7 100.4 78.8001 108.1C74.2001 109.6 69.4001 110.3 64.8001 110.3C46.1001 110.3 28.6001 98.6 22.1001 80.2C22.4001 80.9 22.8001 81.9 23.1001 82.6C23.2001 82.8 23.2001 83 23.3001 83.1Z" fill="#003058"/>
<path d="M64.1003 22.3C48.5003 25 34.7003 29.2 24.1003 52.2C24.0003 52.1 23.9003 52 23.9003 51.9C23.6003 50.8 26.7003 38.4 38.4003 29.7C51.2003 20.2 63.6003 21.4 64.4003 21.8C64.5003 21.9 64.6003 22 64.7003 22.1C64.4003 22.2 64.2003 22.3 64.1003 22.3Z" fill="#619ACA"/>
<path d="M63.0002 22.3C63.0002 22.3 61.1002 22.7 59.5002 23C56.0002 23.7 48.0002 25.3 40.8002 30.5C33.0002 36.3 29.4002 41.4 25.5002 48.9C25.3002 49.4 25.2002 50.2 24.7002 50.5C24.6002 50.5 24.5002 50.5 24.4002 50.4C24.0002 49.8 27.4002 38 38.4002 29.9C51.5002 20.2 63.0002 21.9 63.0002 22C63.0002 22.1 63.0002 22.2 63.0002 22.3Z" fill="#659DCB"/>
<path d="M61.0999 22.5C60.4999 22.9 59.7999 22.8 59.0999 22.9C55.6999 23.6 52.9999 24.4 51.1999 25.1C40.2999 29.2 31.7999 36.7 26.0999 47.3C25.2999 48.8 25.2999 48.8 24.8999 48.9C29.5999 32 47.8999 21.2 61.3999 22.1C61.2999 22.2 61.1999 22.4 61.0999 22.5Z" fill="#6AA0CD"/>
<path d="M59.1002 22.6C58.8002 22.7 58.4002 22.8 58.1002 22.9C49.4002 24.9 43.8002 28.1 40.7002 30.4C36.7002 33.4 32.0002 37.3 27.5002 44.6C27.0002 45.4 26.4002 46.6 25.7002 47.2C29.7002 33.8 45.9002 22 59.7002 22.3C59.5002 22.4 59.3002 22.6 59.1002 22.6Z" fill="#6EA3CE"/>
<path d="M57.1 22.9C53.6 24.3 49.9 25.4 46.4 27C45.7 27.3 42 29.5 40.7 30.4C36.7 33.4 32.4 36.9 27.4 44.6C27.2 44.9 26.8 45.3 26.5 45.6C30.3 34 45 23.1 57.5 22.8C57.4 22.7 57.2 22.8 57.1 22.9Z" fill="#72A6D0"/>
<path d="M54.2 23.5C45 27 39.7 31 38 32.3C33.8 35.5 31.2 40.0001 27.5 43.7001C31 34.9001 42.4 24.6 54.7 23.3C54.6 23.3 54.4 23.4 54.2 23.5Z" fill="#77A8D1"/>
<path d="M52.2001 23.9C52.1001 24 52.0001 24.2 51.9001 24.2C51.2001 24.6 50.1001 24.9 49.4001 25.2C46.0001 26.6 40.9001 29.4 36.7001 33.2C33.7001 35.8 31.3001 39 28.6001 41.8C34.4001 29.6 49.2001 23.5 52.4001 23.8C52.3001 23.9 52.3001 23.9 52.2001 23.9Z" fill="#7AABD2"/>
<path d="M65.1003 19.8C65.0003 19.9 64.6003 19.8 64.4003 19.8C52.8003 19.8 44.4003 24.7 40.8003 26.8C44.0003 24.8 47.4003 23.2 51.1003 22C55.7003 20.4 60.4003 19.7 65.1003 19.8C65.1003 19.7 65.1003 19.7 65.1003 19.8Z" fill="#00437A"/>
<path d="M49.3999 25.1C40.8999 29.4 37.6999 31.6 29.8999 40C32.0999 36.3 38.3999 27.5 51.1999 24.2C50.6999 24.5 49.8999 24.8 49.3999 25.1Z" fill="#7EADD4"/>
<path d="M65.1003 19.7C65.0003 19.8 64.6003 19.7 64.4003 19.7C61.5003 19.7 56.8003 20.1 51.3003 21.8C55.8003 20.4 60.5003 19.7 65.1003 19.7Z" fill="#004176"/>
<path d="M44.7001 27.3C38.6001 31.1 38.3001 31.3 31.6001 37.6C37.1001 29.4 45.4001 26.2 47.8001 25.4C47.0001 26 45.7001 26.8 44.7001 27.3Z" fill="#82AFD5"/>
<path d="M65.0999 19.7C64.9999 19.8 64.5999 19.7 64.3999 19.7C62.6999 19.7 59.8999 19.9 56.3999 20.5C59.2999 20 62.1999 19.7 65.0999 19.7Z" fill="#003F73"/>
<path d="M44.6003 27.1C39.5003 30.4 38.3003 31.4 34.3003 34.7C36.0003 32.9 39.4003 29.2 44.6003 27.1Z" fill="#85B2D6"/>
<path d="M65.1002 19.7C65.0002 19.8 64.6002 19.7 64.4002 19.7C64.3002 19.7 62.9002 19.7 61.2002 19.9C62.5002 19.7 63.8002 19.7 65.1002 19.7Z" fill="#003D70"/>
</g>
<path opacity="0.2" d="M55.5999 22.3C55.5999 22.3 35.6999 24.3 24.6999 45.8C14.5999 65.5 25.7999 81.1 25.7999 81.1C25.7999 81.1 18.5999 65.7 26.2999 47.6C30.7999 36.9 39.5999 27.5 55.5999 22.3Z" fill="white"/>
<path d="M14.9 91.8L16.5 91L15.4 88.8L16.6 88.2L17.7 90.4L20.8 88.8L21.5 90.2L14.5 93.9L12.5 90L13.7 89.4L14.9 91.8Z" fill="white"/>
<path d="M16.0998 80.1C16.9998 80.4 17.6998 81.1 17.9998 82.2C18.3998 83.2 18.2998 84.3 17.7998 85C17.3998 85.6 16.8998 85.9 15.9998 86.3L11.4998 87.9L10.9998 86.5L15.2998 85C16.0998 84.7 16.2998 84.6 16.4998 84.3C16.7998 83.9 16.8998 83.3 16.6998 82.7C16.4998 82.1 16.0998 81.7 15.4998 81.6C15.0998 81.5 14.7998 81.6 14.0998 81.8L9.7998 83.3L9.2998 81.9L13.7998 80.3C14.7998 80 15.4998 79.9 16.0998 80.1Z" fill="white"/>
<path d="M15.6 73.6L12.9 76.3V76.5L16 75.9L16.3 77.4L8.59998 79L8.19998 76.8C7.89998 75.1 8.49998 73.9 9.89998 73.6C11.1 73.4 12 73.8 12.4 74.9L15.2 71.8L15.6 73.6ZM9.49998 76.8L9.59998 77.3L11.9 76.8L11.8 76.4C11.6 75.4 11.1 75 10.3 75.2C9.59998 75.2 9.29998 75.8 9.49998 76.8Z" fill="white"/>
<path d="M14.9999 64.3L9.6999 69.3L14.9999 69.1L15.0999 70.6L6.9999 71V69.9L12.2999 64.9L6.9999 65.1L6.8999 63.6L14.8999 63.3L14.9999 64.3Z" fill="white"/>
<path d="M15.0001 61.4L7.1001 60.7L7.2001 59.2L15.1001 59.9L15.0001 61.4Z" fill="white"/>
<path d="M9.4 54.5L15.9 55.6L15.6 57.1L9.1 56L8.8 57.7L7.5 57.5L8.4 52.5L9.7 52.7L9.4 54.5Z" fill="white"/>
<path d="M17.1998 47.2C17.6998 47.9 17.7998 49 17.4998 50C17.1998 51 16.4998 51.8 15.5998 52.1C14.9998 52.3 14.2998 52.3 13.3998 52L8.7998 50.5L9.2998 49L13.5998 50.4C14.3998 50.6 14.5998 50.7 14.9998 50.6C15.4998 50.5 15.8998 50.1 16.0998 49.5C16.2998 48.9 16.1998 48.3 15.7998 48C15.4998 47.7 15.2998 47.6 14.4998 47.3L10.2998 46L10.7998 44.5L15.3998 46C16.1998 46.3 16.7998 46.6 17.1998 47.2Z" fill="white"/>
<path d="M20.6999 41.7L16.8999 42.2L16.7999 42.4L19.6999 43.8L18.9999 45.2L11.8999 41.7L12.8999 39.6C13.6999 38 14.8999 37.5 16.1999 38.1C17.2999 38.6 17.6999 39.6 17.3999 40.7L21.4999 39.9L20.6999 41.7ZM13.8999 40.5L13.6999 40.9L15.7999 42L15.9999 41.6C16.3999 40.7 16.2999 40.1 15.5999 39.7C14.8999 39.3 14.2999 39.6 13.8999 40.5Z" fill="white"/>
<path d="M22.1 39.2L15.5 34.9L17.9 31.2L19 32L17.4 34.4L18.9 35.4L20.4 33.1L21.5 33.8L20 36L21.8 37.2L23.4 34.8L24.5 35.5L22.1 39.2Z" fill="white"/>
<path d="M27.6998 28.1C27.0998 28.8 25.9998 28.8 25.3998 28.1C24.7998 27.5 24.6998 26.4 25.3998 25.8C25.9998 25.2 27.0998 25.2 27.6998 25.8C28.2998 26.5 28.2998 27.5 27.6998 28.1Z" fill="white"/>
<path d="M39.6999 21.7L38.1999 20.7L35.4999 22.5L35.7999 24.3L34.3999 25.2L32.8999 16.6L33.8999 16L41.0999 21L39.6999 21.7ZM34.6999 18.1L35.2999 21.1L37.1999 19.9L34.6999 18.1Z" fill="white"/>
<path d="M43.1001 16.7L42.2001 17.1L43.4001 19.7L42.0001 20.4L38.6001 13.2L40.7001 12.2C41.6001 11.8 42.2001 11.7 42.8001 11.9C43.5001 12.1 44.0001 12.6 44.3001 13.3C45.1001 14.8 44.6001 16 43.1001 16.7ZM41.1001 13.6L40.6001 13.8L41.6001 15.9L42.2001 15.6C43.1001 15.2 43.3001 14.6 43.0001 13.9C42.6001 13.3 42.0001 13.2 41.1001 13.6Z" fill="white"/>
<path d="M49.4 14.3L48.5 14.6L49.4 17.4L47.9 17.9L45.5 10.4L47.7 9.70002C48.7 9.40002 49.3 9.40002 49.9 9.60002C50.5 9.90002 51 10.4 51.2 11.1C51.6 12.6 51 13.8 49.4 14.3ZM47.8 11L47.3 11.2L48 13.4L48.6 13.2C49.5 12.9 49.9 12.4 49.6 11.7C49.4 10.9 48.8 10.7 47.8 11Z" fill="white"/>
<path d="M53.8998 16.1L52.2998 8.4L53.7998 8L55.0998 14.4L57.4998 13.9L57.7998 15.2L53.8998 16.1Z" fill="white"/>
<path d="M58.7999 15.2L57.8999 7.30004L59.3999 7.10004L60.2999 14.9L58.7999 15.2Z" fill="white"/>
<path d="M67.4998 14.8L66.7998 13.1H63.5998L62.8998 14.8H61.2998L64.6998 6.70001H65.8998L69.1998 14.8H67.4998ZM65.2998 9.00001L64.1998 11.8H66.4998L65.2998 9.00001Z" fill="white"/>
<path d="M76.3997 16.1L72.5997 9.90002L71.6997 15.2L70.1997 14.9L71.5997 6.90002L72.5997 7.10002L76.3997 13.3L77.2997 8.10002L78.7997 8.40002L77.4997 16.3L76.3997 16.1Z" fill="white"/>
<path d="M82.6997 18.1C80.4997 17.3 79.2997 15 80.0997 12.8C80.7997 10.6 83.1997 9.50001 85.3997 10.3C85.9997 10.5 86.4997 10.8 86.9997 11.4L86.3997 13.1C85.9997 12.3 85.5997 11.9 84.8997 11.6C83.4997 11.1 82.0997 11.9 81.5997 13.3C81.0997 14.8 81.7997 16.2 83.1997 16.7C83.8997 16.9 84.4997 16.9 85.1997 16.5L84.5997 18.2C83.8997 18.3 83.2997 18.3 82.6997 18.1Z" fill="white"/>
<path d="M85.8999 19.1L89.3999 12L93.2999 13.9L92.6999 15.1L90.1999 13.8L89.3999 15.4L91.7999 16.6L91.1999 17.8L88.7999 16.6L87.8999 18.5L90.3999 19.8L89.7999 21L85.8999 19.1Z" fill="white"/>
<path d="M92.7998 23.2C91.7998 22.6 91.3998 21.7 91.2998 20.4L92.6998 20.1C92.5998 20.9 92.8998 21.5 93.4998 21.9C94.0998 22.3 94.7998 22.2 95.0998 21.6C95.2998 21.3 95.2998 21 95.1998 20.7C95.0998 20.5 94.8998 20.2 94.5998 19.7C93.6998 18.5 93.5998 17.7 94.1998 16.8C94.8998 15.7 96.2998 15.5 97.4998 16.3C98.1998 16.8 98.6998 17.5 98.9998 18.3L97.6998 18.7C97.5998 18.1 97.3998 17.7 96.9998 17.5C96.3998 17.1 95.7998 17.2 95.5998 17.6C95.3998 18 95.4998 18.3 96.0998 19.1C97.1998 20.6 97.2998 21.4 96.6998 22.4C95.6998 23.8 94.0998 24.1 92.7998 23.2Z" fill="white"/>
<path d="M102.6 27.7C101.9 27.1 101.9 26 102.6 25.4C103.2 24.8 104.3 24.8 104.9 25.4C105.5 26 105.5 27.1 104.9 27.7C104.2 28.3 103.2 28.3 102.6 27.7Z" fill="white"/>
<path d="M105.9 35.3L112.4 30.9L114.8 34.5L113.7 35.2L112.1 32.9L110.6 33.9L112.1 36.2L111 36.9L109.5 34.6L107.7 35.8L109.3 38.1L108.2 38.8L105.9 35.3Z" fill="white"/>
<path d="M109.1 40.2L116.1 36.5L116.8 37.9L111 41L112.1 43.1L110.9 43.7L109.1 40.2Z" fill="white"/>
<path d="M111.4 44.7L118.7 41.8L120.3 45.9L119.1 46.4L118.1 43.8L116.5 44.4L117.5 46.9L116.3 47.4L115.3 44.9L113.3 45.7L114.3 48.3L113.1 48.8L111.4 44.7Z" fill="white"/>
<path d="M114.3 53.9C113.7 51.6 115 49.4 117.3 48.8C119.5 48.2 121.8 49.6 122.3 51.9C122.5 52.5 122.5 53.1 122.3 53.9L120.5 54.3C121 53.5 121.1 52.9 120.9 52.2C120.5 50.8 119.1 50 117.6 50.4C116.1 50.8 115.2 52.1 115.6 53.6C115.8 54.3 116.1 54.7 116.9 55.2L115.1 55.6C114.7 55.1 114.4 54.6 114.3 53.9Z" fill="white"/>
<path d="M122 58.7L115.5 59.5L115.3 58L121.8 57.2L121.6 55.4L122.9 55.2L123.5 60.2L122.2 60.4L122 58.7Z" fill="white"/>
<path d="M115.7 66.2L118.9 64V63.8H115.7V62.3L123.6 62.2V64.5C123.6 66.3 122.8 67.3 121.3 67.3C120.1 67.3 119.3 66.7 119 65.5L115.7 68V66.2ZM122.4 64.3V63.8H120V64.2C120 65.2 120.4 65.7 121.2 65.7C122 65.8 122.4 65.2 122.4 64.3Z" fill="white"/>
<path d="M115 72.8C115.4 70.4 117.4 68.9 119.8 69.3C122 69.6 123.5 71.8 123.2 74.1C122.8 76.4 120.8 78 118.5 77.6C116.1 77.3 114.6 75.1 115 72.8ZM121.7 73.9C121.9 72.5 120.9 71.1 119.4 70.9C117.9 70.7 116.5 71.7 116.3 73.1C116.1 74.5 117.1 75.9 118.6 76.1C120.1 76.3 121.5 75.3 121.7 73.9Z" fill="white"/>
<path d="M111.9 84.2L118.7 81.5L113.7 79.7L114.2 78.2L121.8 80.9L121.4 81.9L114.6 84.6L119.6 86.4L119.1 87.9L111.5 85.2L111.9 84.2Z" fill="white"/>
<path d="M110.8 87L117.9 90.5L117.2 91.9L110.1 88.4L110.8 87Z" fill="white"/>
<path d="M107.2 93C108.5 91 111 90.4 112.9 91.7C114.8 92.9 115.4 95.5 114.1 97.5C113.7 98.1 113.3 98.5 112.7 98.8L111.2 97.8C112.1 97.6 112.6 97.3 113 96.6C113.8 95.4 113.4 93.8 112.1 93C110.7 92.1 109.2 92.5 108.4 93.8C108 94.4 107.9 95 108.1 95.8L106.6 94.8C106.6 94.2 106.8 93.6 107.2 93Z" fill="white"/>
<path d="M103.8 97.5C104.6 96.6 105.5 96.2 106.7 96.4L106.8 97.8C106 97.6 105.4 97.8 104.9 98.4C104.5 98.9 104.5 99.6 105 100C105.3 100.2 105.6 100.3 105.9 100.2C106.1 100.1 106.4 100 106.9 99.7C108.2 98.9 109 98.9 109.8 99.6C110.8 100.4 110.8 101.9 109.9 102.9C109.3 103.6 108.6 104 107.7 104.1L107.4 102.8C108 102.8 108.4 102.6 108.7 102.3C109.1 101.8 109.2 101.2 108.8 100.9C108.5 100.6 108.1 100.7 107.3 101.2C105.7 102.1 104.9 102.2 104 101.4C102.9 100.3 102.8 98.7 103.8 97.5Z" fill="white"/>
<path d="M98.1999 106.5C98.8999 105.9 99.9999 106 100.5 106.8C101.1 107.5 100.9 108.5 100.2 109.1C99.4999 109.7 98.4999 109.5 97.8999 108.8C97.3999 108.1 97.4999 107.1 98.1999 106.5Z" fill="white"/>
<path d="M86.7998 110.6C88.8998 109.5 91.2998 110.3 92.3998 112.4C93.3998 114.5 92.5998 116.9 90.4998 118C89.8998 118.3 89.2998 118.4 88.5998 118.4L87.7998 116.8C88.6998 117.1 89.2998 117.1 89.8998 116.7C91.1998 116.1 91.6998 114.5 90.9998 113.1C90.2998 111.7 88.7998 111.2 87.3998 111.9C86.7998 112.2 86.3998 112.7 86.0998 113.5L85.2998 111.9C85.6998 111.3 86.1998 110.9 86.7998 110.6Z" fill="white"/>
<path d="M80.0997 113.2C82.3997 112.5 84.6997 113.7 85.3997 115.9C86.0997 118 84.7997 120.4 82.5997 121C80.2997 121.7 77.9997 120.5 77.3997 118.3C76.5997 116.2 77.8997 113.9 80.0997 113.2ZM82.1997 119.8C83.5997 119.4 84.3997 117.9 83.8997 116.4C83.4997 115 81.9997 114.1 80.5997 114.6C79.1997 115 78.3997 116.5 78.8997 118C79.2997 119.4 80.7997 120.2 82.1997 119.8Z" fill="white"/>
<path d="M67.4999 115.7L68.6999 120.5L70.2999 115.3H70.6999L73.2999 120L73.5999 115.1L75.0999 114.9L74.4999 123.1L73.4999 123.2L70.7999 118.3L69.0999 123.7L67.9999 123.8L65.8999 115.9L67.4999 115.7Z" fill="white"/>
<path d="M61.8 118.5L62.8 118.6L63 115.7L64.5 115.8L64 123.7L61.7 123.6C60.7 123.5 60.1 123.3 59.7 122.9C59.2 122.4 59 121.7 59 121C59.1 119.2 60.1 118.4 61.8 118.5ZM62 122.1H62.5L62.6 119.8H62C61 119.7 60.5 120.1 60.5 120.9C60.5 121.7 61 122.1 62 122.1Z" fill="white"/>
<path d="M52.3999 115C53.0999 114.4 54.0999 114.2 55.1999 114.4C56.2999 114.6 57.0999 115.2 57.4999 116C57.7999 116.6 57.7999 117.3 57.5999 118.2L56.5999 122.9L55.0999 122.6L55.9999 118.2C56.1999 117.4 56.1999 117.1 55.9999 116.8C55.7999 116.3 55.3999 115.9 54.7999 115.8C54.1999 115.7 53.5999 115.8 53.2999 116.2C52.9999 116.5 52.8999 116.7 52.7999 117.5L51.8999 121.9L50.3999 121.6L51.3999 116.9C51.4999 116 51.8999 115.4 52.3999 115Z" fill="white"/>
<path d="M45.7998 118.7L47.9998 112.5L49.4998 113L47.2998 119.2L48.9998 119.8L48.5998 121.1L43.7998 119.4L44.1998 118.1L45.7998 118.7Z" fill="white"/>
<path d="M45.3 111.5L41.9 118.6L38 116.7L38.6 115.5L41.2 116.7L42 115.1L39.5 113.9L40.1 112.7L42.6 113.9L43.5 112L40.9 110.8L41.5 109.6L45.3 111.5Z" fill="white"/>
<path d="M36.6997 106.8L36.7997 110.6L36.9997 110.7L38.6997 108L39.9997 108.8L35.6997 115.4L33.7997 114.2C32.2997 113.2 31.8997 112 32.6997 110.7C33.3997 109.7 34.2997 109.4 35.3997 109.8L35.0997 105.7L36.6997 106.8ZM34.6997 113.4L35.0997 113.7L36.3997 111.7L35.9997 111.5C35.1997 111 34.4997 111 34.0997 111.7C33.6997 112.2 33.8997 112.9 34.6997 113.4Z" fill="white"/>
<path d="M32.7997 103.5C33.6997 104.3 33.9997 105.2 33.8997 106.4L32.4997 106.5C32.6997 105.7 32.4997 105.1 31.8997 104.6C31.3997 104.2 30.6997 104.2 30.2997 104.7C30.0997 105 29.9997 105.3 30.0997 105.6C30.1997 105.8 30.2997 106.1 30.5997 106.6C31.3997 107.9 31.3997 108.7 30.6997 109.5C29.8997 110.5 28.3997 110.5 27.3997 109.6C26.6997 109 26.2997 108.3 26.1997 107.4L27.4997 107.1C27.4997 107.7 27.6997 108.1 27.9997 108.4C28.4997 108.8 29.0997 108.9 29.3997 108.5C29.6997 108.2 29.5997 107.8 29.0997 107C28.1997 105.4 28.1997 104.6 28.9997 103.6C30.0997 102.5 31.5997 102.5 32.7997 103.5Z" fill="white"/>
<path d="M23.8998 97.8C24.4998 98.5 24.2998 99.6 23.5998 100.1C22.8998 100.7 21.8998 100.5 21.2998 99.8C20.7998 99.1 20.8998 98.1 21.5998 97.5C22.2998 97 23.2998 97.1 23.8998 97.8Z" fill="white"/>
<path d="M85.3871 32.5404L28.1914 54.0293L30.2664 59.5523L87.4621 38.0634L85.3871 32.5404Z" fill="#EE3E42"/>
<path d="M63.0996 80.8C54.6996 81 48.4996 74.2 42.6996 69.5C46.4996 68.1 47.8996 66.8 47.1996 64.9C46.5996 63.2 45.0996 63.1 43.3996 63.7C42.2996 64.1 39.2996 65.2 39.2996 65.2L45.3996 81.6L39.2996 83.9L31.5996 63.3L45.9996 57.8C47.3996 57.3 50.8996 57.8 52.1996 61.4C53.6996 65.5 50.7996 67.8 49.7996 68.7C51.3996 69.9 52.8996 71 54.4996 72.2C55.0996 66.3 55.5996 60.1 56.0996 54C58.2996 53.2 60.6996 52.3 62.9996 51.4C67.9996 56.4 73.0996 61.4 78.2996 66.3C78.7996 65.8 78.9996 65.1 79.2996 64.4C76.2996 62.5 74.2996 59 74.0996 55.4C73.5996 51.7 76.0996 47.6 78.9996 45.7C81.7996 43.9 85.6996 42.4 88.8996 42L90.6996 46.9C87.3996 47.1 83.1996 48 81.2996 50.9C79.6996 53.1 80.3996 55.8 81.5996 58C82.9996 59.9 85.6996 60.9 87.9996 60.4C90.4996 60 92.5996 58.5 94.3996 57L96.1996 61.7C92.9996 64.2 88.2996 66.3 84.1996 65.9C80.2996 74.2 72.7996 80.6 63.0996 80.8ZM61.6996 58.9L61.4996 65L66.0996 63.3C64.6996 61.9 63.0996 60.3 61.6996 58.9ZM69.5996 66.8L61.2996 69.9C61.1996 72 61.0996 73.7 60.9996 75.7C65.2996 76.3 70.3996 74.4 73.4996 71.1L69.5996 66.8Z" fill="#FFDD00"/>
<path d="M101.3 78.8C101.1 78.3 101.4 77.9 101.8 77.7C102.2 77.5 102.7 77.7 102.9 78.2C103.1 78.7 102.8 79.1 102.4 79.3C102 79.5 101.5 79.3 101.3 78.8ZM102.4 79.2C102.8 79.1 103 78.7 102.8 78.3C102.7 77.9 102.3 77.7 101.9 77.9C101.5 78 101.3 78.4 101.5 78.8C101.6 79.1 102 79.3 102.4 79.2ZM102.2 79L102.1 79.1L101.8 78.2L102 78C102.2 77.9 102.4 78 102.4 78.1C102.5 78.3 102.4 78.4 102.3 78.4L102.7 78.7L102.5 78.8L102.1 78.5L101.9 78.6L102.2 79ZM102.1 78.5C102.2 78.5 102.3 78.4 102.3 78.3C102.3 78.2 102.1 78.2 102 78.2L101.8 78.3L101.9 78.6L102.1 78.5Z" fill="white"/>
<path d="M46.6002 91.4C47.5002 91.1 48.2002 91.5 48.5002 92.4C49.1002 94.1 47.5002 95 47.5002 95C48.0002 95.3 48.2002 96.3 48.7002 97C48.8002 97.2 49.2002 97.1 49.2002 97.3L49.3002 98.1L47.7002 98.7C47.7002 98.7 46.7002 96.3 46.5002 96.2C46.3002 95.9 45.8002 96 45.5002 96.2C45.6002 97.2 45.7002 99.4 45.7002 99.4L43.7002 100.1V99.4C43.8002 99.3 44.2002 98.9 44.2002 98.6C44.2002 98.6 43.9002 94.3 43.8002 93.8C43.7002 93.4 43.3002 93.4 43.3002 93.4L43.2002 92.7L46.6002 91.4ZM45.5002 95C45.5002 95 46.1002 94.8 46.6002 94.6C47.2002 94.4 47.2002 93.6 47.0002 93.1C46.9002 92.7 46.6002 92.4 46.2002 92.5C45.8002 92.6 45.2002 92.9 45.2002 92.9L45.5002 95Z" fill="white"/>
<path d="M71.0004 88.9C71.1004 89.2 71.6004 89.2 71.6004 89.2L71.8004 89.9L69.0004 90.7L68.9004 90C68.9004 90 69.4004 89.7 69.4004 89.4L69.2004 88.7L67.1004 89.4L67.0004 90.3C67.0004 90.5 67.3004 90.5 67.3004 90.5L67.5004 91.3L65.5004 92L65.4004 91.2C65.4004 91.2 65.8004 91 65.8004 90.8L67.2004 85.2C67.3004 84.9 66.7004 85 66.7004 85L66.4004 84.2L68.9004 83.3L71.0004 88.9ZM68.9004 87.9L68.0004 85.3L67.3004 88.4L68.9004 87.9Z" fill="white"/>
<path d="M63.8004 90.4C64.2004 90.5 64.7004 90 64.8004 89.3C65.0004 88.6 64.8004 87.9 64.3004 87.8C63.9004 87.7 63.4004 88.2 63.3004 88.9C63.2004 89.7 63.4004 90.3 63.8004 90.4Z" fill="white"/>
<path d="M72.0004 87.5C72.4004 87.6 72.9004 87.1 73.0004 86.4C73.2004 85.7 73.0004 85 72.5004 84.9C72.1004 84.8 71.6004 85.3 71.4004 86C71.4004 86.8 71.6004 87.4 72.0004 87.5Z" fill="white"/>
<path d="M79.3002 84.5C79.4002 86.3 78.3002 87.7 77.4002 88.1C76.0002 88.6 75.2002 88.1 74.5002 86.3C73.7002 84.2 74.6002 81.2 76.6002 80.5C77.2002 80.3 77.6002 80.2 78.2002 80.6L78.4002 80L79.1002 79.7L79.2002 82.5L78.5002 82.8C78.2002 82.1 77.7002 81.3 77.1002 81.5C76.0002 81.9 75.5002 84.2 76.1002 85.7C76.5002 86.7 76.9002 86.9 77.6002 86.7C78.2002 86.5 78.3002 85.8 78.5002 84.8L79.3002 84.5Z" fill="white"/>
<path d="M91.7 75.2L91.8 76.5L92.8 76.2L92.9 77.1L91.9 77.5L92.2 81.4C92.3 82.2 93.1 81.4 93.1 81.4L93.4 81.6C93.4 82.2 92.9 82.6 92.6 82.8C92.2 83 91 83.5 90.8 82L90.5 78.1L90 78V77.1C90 77.1 91.1 76.6 91.1 75.4L91.7 75.2Z" fill="white"/>
<path d="M97.2001 75.8L98.9001 74L99.6001 73.7L99.8001 74.4C100.2 73.6 100.6 72.6 101.3 73C102.3 73.6 101.9 75.3 101.2 75.7C100.6 76.1 100.3 75.4 100.4 74.9C100.1 74.5 99.8001 75.3 99.8001 75.8C99.8001 76.1 99.9001 78.3 99.9001 78.3C99.9001 78.7 100.6 78.6 100.6 78.8L100.7 79.6L98.2001 80.5L98.0001 80C98.0001 80 98.5001 79.5 98.5001 79.2C98.5001 78.8 98.2001 75.8 98.2001 75.8L94.4001 79.6C94.6001 80.2 94.9001 80.4 95.3001 80.5C95.8001 80.6 96.5001 79.5 97.0001 78.7L97.6001 79C97.4001 80 96.3001 81.2 95.9001 81.4C95.4001 81.6 93.2001 82.6 93.0001 79.4C92.9001 78.1 93.3001 76.7 94.0001 76C95.1001 74.9 96.0001 75 96.5001 75.2C97.0001 75.4 97.2001 75.8 97.2001 75.8ZM94.6001 76.5C94.2001 77 94.1001 77.8 94.3001 78.7L96.0001 76.9C96.0001 76.9 95.3001 75.5 94.6001 76.5Z" fill="white"/>
<path d="M83.9004 80.5L85.6004 78.7L86.4004 78.4L86.5004 79.5C87.0004 78.8 88.0004 77.4 88.9004 77.9C89.2004 78.1 89.3004 78.6 89.4004 79.2C89.4004 79.2 89.6004 81.6 89.6004 82.2C89.6004 82.4 90.1004 82.5 90.1004 82.5V83.4L88.3004 84L88.0004 79.9C87.9004 79 86.6004 79.8 86.7004 80.5L87.1004 84.5L85.0004 85.2L84.8004 84.7C84.8004 84.7 85.3004 84.2 85.3004 83.9C85.3004 83.5 85.0004 80.5 85.0004 80.5L81.2004 84.3C81.4004 84.9 81.7004 85.1 82.1004 85.2C82.6004 85.3 83.3004 84.2 83.8004 83.4L84.4004 83.7C84.2004 84.7 83.1004 85.9 82.7004 86.1C82.2004 86.3 80.0004 87.3 79.8004 84.1C79.7004 82.8 80.1004 81.4 80.8004 80.7C81.9004 79.6 82.8004 79.7 83.3004 79.9C83.7004 80.1 83.9004 80.5 83.9004 80.5ZM81.3004 81.2C80.9004 81.7 80.8004 82.5 81.0004 83.4L82.7004 81.6C82.7004 81.6 82.2004 80.2 81.3004 81.2Z" fill="white"/>
<path d="M53.2001 91.6L54.9001 89.8L55.6001 89.5L55.7001 90.6C56.2001 89.9 57.2001 88.5 58.1001 89C58.4001 89.2 58.5001 89.7 58.6001 90.3C58.6001 90.3 58.8001 92.7 58.8001 93.3C58.8001 93.5 59.3001 93.6 59.3001 93.6V94.5L57.5001 95.2L57.2001 91C57.1001 90.1 55.8001 90.9 55.9001 91.6L56.3001 95.6L54.2001 96.3L54.0001 95.8C54.0001 95.8 54.5001 95.3 54.5001 95C54.5001 94.6 54.2001 91.6 54.2001 91.6L50.4001 95.4C50.6001 96 50.9001 96.2 51.3001 96.3C51.8001 96.4 52.5001 95.3 53.0001 94.5L53.6001 94.8C53.4001 95.8 52.3001 97 51.9001 97.2C51.4001 97.4 49.2001 98.4 49.0001 95.2C48.9001 93.9 49.3001 92.5 50.0001 91.8C51.1001 90.7 52.0001 90.8 52.5001 91C52.9001 91.2 53.2001 91.6 53.2001 91.6ZM50.5001 92.3C50.0001 92.8 50.0001 93.6 50.2001 94.5L51.9001 92.7C52.0001 92.7 51.6001 91.3 50.5001 92.3Z" fill="white"/>
<path d="M60.9001 86.2L61.0001 87.5L62.0001 87.2V88L61.0001 88.4L61.3001 92.3C61.4001 93.1 62.2001 92.3 62.2001 92.3L62.5001 92.5C62.5001 93.1 62.0001 93.5 61.7001 93.7C61.3001 93.9 60.1001 94.4 59.9001 92.9L59.6001 89H59.1001V88.1C59.1001 88.1 60.2001 87.6 60.2001 86.4L60.9001 86.2Z" fill="white"/>
</g>
<defs>
<clipPath id="clip0_23138_68015">
<rect width="130" height="130" fill="white"/>
</clipPath>
</defs>
</svg>
