<svg width="33" height="33" viewBox="0 0 33 33" fill="none" xmlns="http://www.w3.org/2000/svg">
<path d="M24.5024 28.5H22.5234C21.3434 28.5292 20.1928 28.1293 19.2852 27.3747C18.3775 26.62 17.7744 25.5618 17.5877 24.3962C18.9658 24.141 20.2113 23.4118 21.1084 22.335C22.0055 21.2582 22.4978 19.9016 22.5 18.5V8.5C22.5 6.9087 21.8679 5.38258 20.7426 4.25736C19.6174 3.13214 18.0913 2.5 16.5 2.5C14.9087 2.5 13.3826 3.13214 12.2574 4.25736C11.1321 5.38258 10.5 6.9087 10.5 8.5V18.5C10.5025 19.9282 11.014 21.3087 11.9426 22.3937C12.8713 23.4787 14.1563 24.1971 15.567 24.4199C15.7554 25.9665 16.4604 27.4041 17.5677 28.5H8.50244C8.23723 28.5 7.98287 28.6054 7.79533 28.7929C7.6078 28.9804 7.50244 29.2348 7.50244 29.5C7.50244 29.7652 7.6078 30.0196 7.79533 30.2071C7.98287 30.3946 8.23723 30.5 8.50244 30.5H24.5024C24.7677 30.5 25.022 30.3946 25.2095 30.2071C25.3971 30.0196 25.5024 29.7652 25.5024 29.5C25.5024 29.2348 25.3971 28.9804 25.2095 28.7929C25.022 28.6054 24.7677 28.5 24.5024 28.5V28.5ZM12.5 18.5V8.49997C12.5 7.4391 12.9214 6.42169 13.6716 5.67154C14.4217 4.9214 15.4391 4.49997 16.5 4.49997C17.5609 4.49997 18.5783 4.9214 19.3284 5.67154C20.0786 6.42169 20.5 7.4391 20.5 8.49997V18.5C20.5 19.5608 20.0786 20.5783 19.3284 21.3284C18.5783 22.0785 17.5609 22.5 16.5 22.5C15.4391 22.5 14.4217 22.0785 13.6716 21.3284C12.9214 20.5783 12.5 19.5608 12.5 18.5Z" fill="white"/>
</svg>
