<svg width="33" height="33" viewBox="0 0 33 33" fill="none" xmlns="http://www.w3.org/2000/svg">
<path d="M22.5005 11.5005C22.0608 11.499 21.6329 11.643 21.2836 11.91C20.9342 12.177 20.6829 12.552 20.5688 12.9766C20.4547 13.4013 20.4842 13.8517 20.6527 14.2579C20.8212 14.664 21.1193 15.0031 21.5005 15.2222V20.4995C21.5005 20.7647 21.6059 21.0191 21.7934 21.2066C21.9809 21.3942 22.2353 21.4995 22.5005 21.4995C22.7657 21.4995 23.0201 21.3942 23.2076 21.2066C23.3951 21.0191 23.5005 20.7647 23.5005 20.4995V15.2222C23.8817 15.0031 24.1798 14.664 24.3483 14.2579C24.5168 13.8517 24.5463 13.4013 24.4322 12.9766C24.3181 12.552 24.0668 12.177 23.7174 11.91C23.3681 11.643 22.9402 11.499 22.5005 11.5005Z" fill="white"/>
<path d="M17.5747 3.61448C17.3042 3.50028 17.0059 3.46884 16.7176 3.52411C16.4292 3.57939 16.1637 3.7189 15.9546 3.92503L9.09816 10.5002H5.50049C4.70511 10.5011 3.94255 10.8174 3.38013 11.3799C2.81771 11.9423 2.50136 12.7048 2.50049 13.5002V19.5002C2.50136 20.2956 2.81771 21.0582 3.38013 21.6206C3.94255 22.183 4.70511 22.4993 5.50049 22.5002H9.09816L15.939 29.0578C16.1486 29.268 16.4158 29.4112 16.7069 29.4693C16.998 29.5274 17.2997 29.4979 17.574 29.3845C17.8483 29.271 18.0827 29.0787 18.2476 28.832C18.4125 28.5852 18.5006 28.2951 18.5005 27.9983V5.00022C18.501 4.70347 18.4132 4.41327 18.2484 4.16651C18.0836 3.91976 17.849 3.72761 17.5747 3.61448ZM16.5005 26.8264L10.1929 20.7785C10.0066 20.6 9.75853 20.5003 9.50049 20.5002H5.50049C5.23533 20.5 4.98108 20.3946 4.79358 20.2071C4.60608 20.0196 4.50067 19.7654 4.50049 19.5002V13.5002C4.50067 13.2351 4.60608 12.9808 4.79358 12.7933C4.98108 12.6058 5.23533 12.5004 5.50049 12.5002H9.50049C9.75853 12.5002 10.0066 12.4005 10.1929 12.2219L16.5005 6.1721V26.8264Z" fill="white"/>
<path d="M28.5002 17.7778V12.5005C28.5002 12.2353 28.3949 11.9809 28.2074 11.7934C28.0198 11.6058 27.7655 11.5005 27.5002 11.5005C27.235 11.5005 26.9807 11.6058 26.7931 11.7934C26.6056 11.9809 26.5002 12.2353 26.5002 12.5005V17.7778C26.119 17.998 25.821 18.3378 25.6525 18.7445C25.484 19.1513 25.4544 19.6023 25.5684 20.0275C25.6823 20.4528 25.9334 20.8286 26.2827 21.0966C26.632 21.3646 27.06 21.5099 27.5002 21.5099C27.9405 21.5099 28.3685 21.3646 28.7178 21.0966C29.0671 20.8286 29.3181 20.4528 29.4321 20.0275C29.546 19.6023 29.5165 19.1513 29.348 18.7445C29.1795 18.3378 28.8815 17.998 28.5002 17.7778Z" fill="white"/>
</svg>
