<svg width="33" height="33" viewBox="0 0 33 33" fill="none" xmlns="http://www.w3.org/2000/svg">
<path fill-rule="evenodd" clip-rule="evenodd" d="M13.9072 1.98096C14.48 1.98096 14.9443 2.44527 14.9443 3.01802V29.9818C14.9443 30.5545 14.48 31.0188 13.9072 31.0188C13.3345 31.0188 12.8702 30.5545 12.8702 29.9818V3.01802C12.8702 2.44527 13.3345 1.98096 13.9072 1.98096Z" fill="white"/>
<path fill-rule="evenodd" clip-rule="evenodd" d="M8.72191 7.16629C9.29467 7.16629 9.75898 7.6306 9.75898 8.20336V24.7964C9.75898 25.3692 9.29467 25.8335 8.72191 25.8335C8.14916 25.8335 7.68485 25.3692 7.68485 24.7964V8.20336C7.68485 7.6306 8.14916 7.16629 8.72191 7.16629Z" fill="white"/>
<path fill-rule="evenodd" clip-rule="evenodd" d="M3.53658 13.3887C4.10933 13.3887 4.57365 13.853 4.57365 14.4258V18.574C4.57365 19.1468 4.10933 19.6111 3.53658 19.6111C2.96382 19.6111 2.49951 19.1468 2.49951 18.574V14.4258C2.49951 13.853 2.96382 13.3887 3.53658 13.3887Z" fill="white"/>
<path fill-rule="evenodd" clip-rule="evenodd" d="M19.0926 9.24043C19.6653 9.24043 20.1297 9.70474 20.1297 10.2775V22.7223C20.1297 23.2951 19.6653 23.7594 19.0926 23.7594C18.5198 23.7594 18.0555 23.2951 18.0555 22.7223V10.2775C18.0555 9.70474 18.5198 9.24043 19.0926 9.24043Z" fill="white"/>
<path fill-rule="evenodd" clip-rule="evenodd" d="M24.2779 11.3146C24.8507 11.3146 25.315 11.7789 25.315 12.3516V20.6482C25.315 21.2209 24.8507 21.6852 24.2779 21.6852C23.7052 21.6852 23.2409 21.2209 23.2409 20.6482V12.3516C23.2409 11.7789 23.7052 11.3146 24.2779 11.3146Z" fill="white"/>
<path fill-rule="evenodd" clip-rule="evenodd" d="M29.4633 13.3887C30.036 13.3887 30.5003 13.853 30.5003 14.4258V18.574C30.5003 19.1468 30.036 19.6111 29.4633 19.6111C28.8905 19.6111 28.4262 19.1468 28.4262 18.574V14.4258C28.4262 13.853 28.8905 13.3887 29.4633 13.3887Z" fill="white"/>
</svg>
