<svg width="22" height="22" viewBox="0 0 22 22" fill="none" xmlns="http://www.w3.org/2000/svg">
<g clip-path="url(#clip0_1611_955)">
<path d="M15.4303 22.0007C14.6797 21.9961 13.932 21.9053 13.202 21.7301C11.3174 21.2917 8.39088 20.0885 5.15076 16.8488C1.91065 13.6091 0.708002 10.6818 0.26979 8.79684C-0.00696961 7.68912 -0.0699697 6.53878 0.0841646 5.40746C0.210814 4.34779 0.672416 3.3562 1.40176 2.57709L2.96671 1.01214C3.28747 0.691258 3.6683 0.436716 4.08746 0.263051C4.50661 0.0893856 4.95587 0 5.40957 0C5.86328 0 6.31254 0.0893856 6.73169 0.263051C7.15085 0.436716 7.53168 0.691258 7.85243 1.01214L10.1963 3.35651C10.5172 3.67722 10.7718 4.05804 10.9456 4.4772C11.1193 4.89636 11.2087 5.34564 11.2087 5.79937C11.2087 6.2531 11.1193 6.70239 10.9456 7.12155C10.7718 7.5407 10.5172 7.92152 10.1963 8.24223L10.1902 8.24828L8.82738 9.59207C8.85263 9.73698 8.88605 9.88035 8.92748 10.0215C9.12957 10.7526 9.49867 11.4268 10.0057 11.991C10.5661 12.5188 11.2372 12.9149 11.9701 13.1504C12.0917 13.1894 12.2154 13.2211 12.3408 13.2451L13.7547 11.8198C14.075 11.4975 14.4557 11.2416 14.875 11.0668C15.2944 10.8919 15.7441 10.8015 16.1984 10.8006C16.6528 10.7998 17.1028 10.8887 17.5228 11.062C17.9427 11.2354 18.3243 11.49 18.6458 11.811C18.6538 11.8184 18.6612 11.8264 18.6693 11.8346L20.9855 14.1446L21.0151 14.1748C21.6513 14.8251 22.0052 15.7002 22 16.61C21.9947 17.5197 21.6306 18.3907 20.9869 19.0336L19.4224 20.5981C18.6434 21.3272 17.652 21.7887 16.5926 21.9154C16.2079 21.9731 15.8193 22.0016 15.4303 22.0007ZM5.40988 2.40625C5.27206 2.40589 5.13554 2.43285 5.0082 2.48558C4.88086 2.5383 4.76523 2.61574 4.668 2.71343L3.10305 4.27838C2.74206 4.69839 2.51886 5.21919 2.46367 5.77026C2.35789 6.59934 2.40845 7.44091 2.61272 8.25138C2.9806 9.83111 4.01453 12.3096 6.85185 15.1482C9.69047 17.9855 12.1686 19.0194 13.7475 19.3873C14.5582 19.5915 15.4 19.6421 16.2293 19.5363C16.7802 19.4813 17.3009 19.2581 17.7205 18.897L19.2861 17.3319C19.3835 17.2346 19.4608 17.1191 19.5136 16.9919C19.5664 16.8648 19.5936 16.7285 19.5936 16.5908C19.5937 16.4531 19.5666 16.3168 19.514 16.1896C19.4613 16.0624 19.3841 15.9468 19.2868 15.8494C19.2788 15.8421 19.2713 15.834 19.2633 15.8259L16.947 13.5159L16.9289 13.4978C16.7278 13.3143 16.4646 13.214 16.1924 13.2172C15.9203 13.2203 15.6594 13.3266 15.4626 13.5145L13.6908 15.3011C13.5442 15.4495 13.3614 15.5569 13.1604 15.6126C13.0028 15.6546 12.8407 15.6772 12.6777 15.6797C12.1923 15.6788 11.7102 15.6001 11.2496 15.4468C10.1462 15.0959 9.13833 14.4956 8.30426 13.6925C7.50771 12.8415 6.92825 11.8108 6.61507 10.6881C6.4727 10.2236 6.39673 9.74139 6.38943 9.25568C6.38969 9.15318 6.39658 9.0508 6.41006 8.94919C6.44573 8.6856 6.56752 8.44119 6.75649 8.25399L8.49738 6.53813C8.69306 6.3413 8.80267 6.07488 8.80216 5.79733C8.80164 5.51978 8.69104 5.25376 8.49463 5.05766L6.15087 2.71329C5.95384 2.51752 5.68764 2.40722 5.40988 2.40625Z" fill="url(#paint0_linear_1611_955)"/>
</g>
<defs>
<linearGradient id="paint0_linear_1611_955" x1="10.9994" y1="2.47947" x2="10.9994" y2="19.5212" gradientUnits="userSpaceOnUse">
<stop stop-color="#82CF5F"/>
<stop offset="1" stop-color="#00BCF5"/>
</linearGradient>
<clipPath id="clip0_1611_955">
<rect width="22" height="22" fill="white"/>
</clipPath>
</defs>
</svg>
