<svg width="22" height="18" viewBox="0 0 22 18" fill="none" xmlns="http://www.w3.org/2000/svg">
<g clip-path="url(#clip0_1612_2148)">
<path d="M21.1063 3.4375C20.5562 3.09375 19.8687 3.025 19.25 3.3C19.1812 3.3 19.1812 3.36875 19.1125 3.36875L17.1875 4.4V4.19375C17.1875 1.85625 15.3313 0 12.9937 0H4.19375C1.85625 0 0 1.85625 0 4.19375V13.6125C0 15.8812 1.85625 17.8062 4.19375 17.8062H13.0625C15.4 17.8062 17.2563 15.95 17.2563 13.6125V13.3375L19.1812 14.4375H19.25C19.525 14.575 19.8 14.6437 20.075 14.6437C20.4188 14.6437 20.7625 14.575 21.1063 14.3687C21.725 14.025 22.0687 13.4062 22.0687 12.7188V5.0875C22 4.4 21.6562 3.78125 21.1063 3.4375ZM14.7125 13.6125C14.7125 14.575 13.9563 15.3312 12.9937 15.3312H4.19375C3.23125 15.3312 2.475 14.575 2.475 13.6125V4.19375C2.475 3.23125 3.23125 2.475 4.19375 2.475H13.0625C14.025 2.475 14.7812 3.23125 14.7812 4.19375V6.53125V11.275V13.6125H14.7125ZM19.525 11.825L17.1875 10.5188V7.21875L19.525 5.9125V11.825Z" fill="url(#paint0_linear_1612_2148)"/>
</g>
<defs>
<linearGradient id="paint0_linear_1612_2148" x1="11" y1="0" x2="11" y2="17.7796" gradientUnits="userSpaceOnUse">
<stop stop-color="#82CF5F"/>
<stop offset="1" stop-color="#00BCF5"/>
</linearGradient>
<clipPath id="clip0_1612_2148">
<rect width="22" height="17.8062" fill="white"/>
</clipPath>
</defs>
</svg>
