<svg width="22" height="19" viewBox="0 0 22 19" fill="none" xmlns="http://www.w3.org/2000/svg">
<path fill-rule="evenodd" clip-rule="evenodd" d="M0 3.42644C0 1.53407 1.53407 0 3.42644 0H18.5736C20.4659 0 22 1.53407 22 3.42644V15.463C22 17.3554 20.4659 18.8894 18.5736 18.8894H3.42644C1.53407 18.8894 0 17.3554 0 15.463V3.42644ZM3.42644 2.52513C2.92866 2.52513 2.52513 2.92866 2.52513 3.42644V15.463C2.52513 15.9608 2.92866 16.3643 3.42644 16.3643H5.41075C5.447 14.5732 6.34256 13.0015 7.69885 12.0204C6.94793 11.1997 6.49187 10.101 6.49187 8.90419C6.49187 6.40161 8.48592 4.3282 11.0002 4.3282C13.5146 4.3282 15.5086 6.40161 15.5086 8.90419C15.5086 10.1012 15.0525 11.1999 14.3014 12.0206C15.6575 13.0018 16.5529 14.5734 16.5891 16.3643H18.5736C19.0713 16.3643 19.4749 15.9608 19.4749 15.463V3.42644C19.4749 2.92866 19.0713 2.52513 18.5736 2.52513H3.42644ZM14.063 16.3643C14.0028 14.7907 12.6927 13.5 11.0389 13.48C11.0261 13.4801 11.0132 13.4802 11.0002 13.4802C10.9872 13.4802 10.9742 13.4801 10.9612 13.48C9.30731 13.4999 7.99704 14.7906 7.9369 16.3643H14.063ZM11.0341 10.9548C12.0903 10.9362 12.9835 10.0493 12.9835 8.90419C12.9835 7.74686 12.0711 6.85333 11.0002 6.85333C9.92935 6.85333 9.017 7.74686 9.017 8.90419C9.017 10.0492 9.91009 10.9361 10.9662 10.9548C10.9774 10.9547 10.9887 10.9547 10.9999 10.9547C11.0113 10.9547 11.0227 10.9547 11.0341 10.9548Z" fill="url(#paint0_linear_1611_960)"/>
<defs>
<linearGradient id="paint0_linear_1611_960" x1="11" y1="0" x2="11" y2="18.8894" gradientUnits="userSpaceOnUse">
<stop stop-color="#82CF5F"/>
<stop offset="1" stop-color="#00BCF5"/>
</linearGradient>
</defs>
</svg>
