<svg width="21" height="23" viewBox="0 0 21 23" fill="none" xmlns="http://www.w3.org/2000/svg">
<path d="M3.49774 22.9032C2.57001 22.8999 1.68132 22.5302 1.0259 21.8749C0.370482 21.2196 0.00164879 20.3321 0 19.4062V3.48715C0.000643609 2.87551 0.162296 2.27477 0.468775 1.7451C0.775254 1.21544 1.21578 0.775436 1.74627 0.469165C2.27676 0.162894 2.87857 0.00110798 3.49142 5.67074e-06C4.10427 -0.00109664 4.70666 0.158525 5.23825 0.462885L19.0601 8.42969C19.5904 8.73647 20.0307 9.17696 20.3367 9.707C20.6427 10.237 20.8038 10.838 20.8038 11.4498C20.8038 12.0615 20.6427 12.6625 20.3367 13.1926C20.0307 13.7226 19.5904 14.1631 19.0601 14.4699L5.23825 22.4304C4.70951 22.7373 4.10936 22.9003 3.49774 22.9032ZM3.49774 3.32469C3.46898 3.3245 3.44076 3.33245 3.41634 3.3476C3.39107 3.36021 3.37007 3.37997 3.35597 3.40442C3.34186 3.42886 3.33528 3.45691 3.33704 3.48506V19.4062C3.33697 19.434 3.34424 19.4613 3.35813 19.4854C3.37203 19.5096 3.39204 19.5296 3.41616 19.5435C3.44029 19.5575 3.46767 19.5648 3.49555 19.5648C3.52342 19.5649 3.55081 19.5575 3.57495 19.5436L17.3885 11.5831C17.4128 11.5695 17.4331 11.5497 17.4472 11.5258C17.4613 11.5018 17.4688 11.4745 17.4688 11.4467C17.4688 11.4188 17.4613 11.3915 17.4472 11.3675C17.4331 11.3436 17.4128 11.3238 17.3885 11.3102L3.56869 3.34968C3.54778 3.3369 3.52423 3.32906 3.49983 3.32677L3.49774 3.32469Z" fill="url(#paint0_linear_1611_975)"/>
<defs>
<linearGradient id="paint0_linear_1611_975" x1="10.4056" y1="22.9032" x2="10.4056" y2="-0.00991383" gradientUnits="userSpaceOnUse">
<stop stop-color="#00BCF5"/>
<stop offset="1" stop-color="#82CF5F"/>
</linearGradient>
</defs>
</svg>
