<svg width="22" height="22" viewBox="0 0 22 22" fill="none" xmlns="http://www.w3.org/2000/svg">
<path fill-rule="evenodd" clip-rule="evenodd" d="M16.7344 4.51959C15.2421 3.2102 13.3209 2.49448 11.3357 2.50836C9.35052 2.52224 7.43954 3.26475 5.96575 4.59486C4.49196 5.92498 3.55801 7.75006 3.3413 9.72346C3.12458 11.6969 3.64018 13.6811 4.79018 15.2994C5.01431 15.6148 5.08031 16.016 4.96903 16.3865C4.73779 17.1566 4.35645 17.8733 3.84699 18.4953C3.78866 18.5665 3.72878 18.6363 3.66741 18.7047C3.83803 18.7021 4.00882 18.6901 4.17902 18.6686C4.93623 18.573 5.65824 18.2925 6.28133 17.8518C6.48874 17.7033 6.74185 17.6176 7.01116 17.6176H7.01118C7.22421 17.6176 7.42768 17.6713 7.60647 17.7678C9.35869 18.6943 11.3899 18.9461 13.3155 18.4755C15.244 18.0041 16.9322 16.8408 18.0595 15.2066C19.1867 13.5724 19.6745 11.5812 19.4303 9.61099C19.186 7.64081 18.2266 5.82897 16.7344 4.51959ZM7.08941 20.3033C9.22701 21.2521 11.6258 21.4705 13.9111 20.9119C16.4368 20.2945 18.6477 18.771 20.1241 16.6308C21.6004 14.4906 22.2393 11.8826 21.9194 9.30236C21.5994 6.72208 20.343 4.34916 18.3886 2.6343C16.4343 0.919443 13.9182 -0.0179161 11.3182 0.000259445C8.71822 0.018435 6.21547 0.990879 4.28529 2.73289C2.35511 4.47491 1.13195 6.86516 0.848124 9.44966C0.589293 11.8065 1.12806 14.1753 2.36717 16.1815C2.2435 16.44 2.089 16.6833 1.90659 16.9061C1.6068 17.2721 1.23754 17.5752 0.820098 17.7979C0.765406 17.827 0.712951 17.8602 0.663167 17.8972C0.432105 18.0686 0.250176 18.2977 0.135634 18.5616C0.0210917 18.8256 -0.0220363 19.115 0.0105744 19.4008C0.0431855 19.6867 0.15039 19.9589 0.321431 20.1903C0.49247 20.4216 0.721336 20.6039 0.985077 20.7188C1.00252 20.7265 1.02014 20.7337 1.03791 20.7405C2.13786 21.1615 3.32471 21.3046 4.49321 21.157C5.40776 21.0415 6.28895 20.7508 7.08941 20.3033ZM7.01118 20.1257H7.01116V18.8716L7.01118 20.1257Z" fill="url(#paint0_linear_1611_953)"/>
<defs>
<linearGradient id="paint0_linear_1611_953" x1="11" y1="0" x2="11" y2="21.2153" gradientUnits="userSpaceOnUse">
<stop stop-color="#82CF5F"/>
<stop offset="1" stop-color="#00BCF5"/>
</linearGradient>
</defs>
</svg>
