<svg width="22" height="20" viewBox="0 0 22 20" fill="none" xmlns="http://www.w3.org/2000/svg">
<path d="M13.813 3.20901L7.79455 9.22945C7.51674 9.50613 7.29652 9.83516 7.14666 10.1975C6.99679 10.5599 6.92026 10.9484 6.92146 11.3405V13.8026C6.92146 14.1423 7.05637 14.4681 7.29651 14.7084C7.53666 14.9486 7.86236 15.0835 8.20198 15.0835H10.6632C11.0553 15.0847 11.4436 15.0082 11.8059 14.8582C12.1681 14.7083 12.497 14.4881 12.7736 14.2102L18.7921 8.18972L21.403 5.57959C21.7847 5.19638 21.9991 4.67744 21.9991 4.13645C21.9991 3.59546 21.7847 3.07652 21.403 2.69331L19.3093 0.598884C18.9264 0.216615 18.4075 0.00191903 17.8666 0.00191903C17.3256 0.00191903 16.8068 0.216615 16.4239 0.598884L13.8146 3.21068L13.813 3.20901ZM10.9609 12.3969C10.9219 12.4362 10.8756 12.4675 10.8245 12.4889C10.7734 12.5104 10.7186 12.5215 10.6632 12.5216H9.48249V11.3405C9.48223 11.2849 9.49298 11.2299 9.5141 11.1785C9.53522 11.1271 9.56631 11.0804 9.60557 11.0411L14.7193 5.93227L16.0747 7.28807L10.9609 12.3969ZM19.2211 4.13562L17.8907 5.46647L16.5353 4.11066L17.8657 2.77981L19.2211 4.13562ZM22 10.7133V14.5828C22 17.4907 19.6818 19.858 16.833 19.858H5.16698C2.31823 19.858 0 17.4907 0 14.5828V5.27516C0 2.36559 2.31823 0 5.16698 0H11.3201C11.652 0.0119609 11.9662 0.152242 12.1968 0.391314C12.4273 0.630387 12.5561 0.949604 12.5561 1.28178C12.5561 1.61395 12.4273 1.93316 12.1968 2.17224C11.9662 2.41131 11.652 2.55159 11.3201 2.56355H5.16698C3.73013 2.56355 2.56103 3.77961 2.56103 5.27516V14.5828C2.56103 16.08 3.72514 17.2944 5.16698 17.2944H16.833C18.2699 17.2944 19.4373 16.0783 19.4373 14.5828V10.7133C19.4493 10.3814 19.5895 10.067 19.8285 9.83641C20.0675 9.60579 20.3866 9.47692 20.7187 9.47692C21.0507 9.47692 21.3698 9.60579 21.6088 9.83641C21.8478 10.067 21.988 10.3814 22 10.7133Z" fill="url(#paint0_linear_1611_967)"/>
<defs>
<linearGradient id="paint0_linear_1611_967" x1="10.9992" y1="19.8513" x2="10.9992" y2="0" gradientUnits="userSpaceOnUse">
<stop stop-color="#00BCF5"/>
<stop offset="1" stop-color="#82CF5F"/>
</linearGradient>
</defs>
</svg>
