<svg width="22" height="19" viewBox="0 0 22 19" fill="none" xmlns="http://www.w3.org/2000/svg">
<path d="M20.6162 7.74325C20.9832 7.74325 21.3352 7.59746 21.5947 7.33795C21.8542 7.07844 22 6.72647 22 6.35947V2.17451C21.9994 1.59798 21.7701 1.04522 21.3625 0.637548C20.9548 0.229875 20.402 0.000586125 19.8255 0H2.17451C1.59798 0.000586125 1.04522 0.229875 0.637548 0.637548C0.229874 1.04522 0.000586125 1.59798 0 2.17451V6.35947C0 6.72647 0.145791 7.07844 0.4053 7.33795C0.66481 7.59746 1.01678 7.74325 1.38378 7.74325C1.73524 7.74596 2.07138 7.88747 2.31894 8.13695C2.56651 8.38643 2.70543 8.72365 2.70543 9.07512C2.70543 9.42659 2.56651 9.76381 2.31894 10.0133C2.07138 10.2628 1.73524 10.4043 1.38378 10.407C1.01678 10.407 0.66481 10.5528 0.4053 10.8123C0.145791 11.0718 0 11.4238 0 11.7908V15.9753C0.000586125 16.5519 0.229874 17.1046 0.637548 17.5123C1.04522 17.92 1.59798 18.1493 2.17451 18.1498H19.8255C20.402 18.1493 20.9548 17.92 21.3625 17.5123C21.7701 17.1046 21.9994 16.5519 22 15.9753V11.7908C22 11.4238 21.8542 11.0718 21.5947 10.8123C21.3352 10.5528 20.9832 10.407 20.6162 10.407C20.2648 10.4043 19.9286 10.2628 19.6811 10.0133C19.4335 9.76381 19.2946 9.42659 19.2946 9.07512C19.2946 8.72365 19.4335 8.38643 19.6811 8.13695C19.9286 7.88747 20.2648 7.74596 20.6162 7.74325ZM2.76756 12.9337C3.56216 12.6482 4.24923 12.1243 4.73494 11.4337C5.22065 10.743 5.4813 9.91926 5.4813 9.07492C5.4813 8.23059 5.22065 7.40683 4.73494 6.71619C4.24923 6.02554 3.56216 5.50167 2.76756 5.21615V2.76756H7.65018V15.3823H2.76756V12.9337ZM19.2324 5.21615C18.4378 5.50167 17.7508 6.02554 17.2651 6.71619C16.7794 7.40683 16.5187 8.23059 16.5187 9.07492C16.5187 9.91926 16.7794 10.743 17.2651 11.4337C17.7508 12.1243 18.4378 12.6482 19.2324 12.9337V15.3824H10.4177V2.76756H19.2324V5.21615Z" fill="url(#paint0_linear_1611_958)"/>
<defs>
<linearGradient id="paint0_linear_1611_958" x1="11" y1="0" x2="11" y2="18.1498" gradientUnits="userSpaceOnUse">
<stop stop-color="#82CF5F"/>
<stop offset="1" stop-color="#00BCF5"/>
</linearGradient>
</defs>
</svg>
