<svg width="23" height="23" viewBox="0 0 23 23" fill="none" xmlns="http://www.w3.org/2000/svg">
<g clip-path="url(#clip0_1611_969)">
<path fill-rule="evenodd" clip-rule="evenodd" d="M4.45153 0H18.2036C20.6678 0 22.6551 1.98729 22.7346 4.45153V18.2831C22.7346 20.7473 20.7473 22.7346 18.2831 22.7346H4.45153C1.98729 22.7346 0 20.7473 0 18.2831V4.45153C0 1.98729 1.98729 0 4.45153 0ZM18.2036 19.9524C19.1575 19.9524 19.9524 19.1575 19.9524 18.2036H20.0319V4.45153C20.0319 3.49763 19.237 2.70271 18.2831 2.70271H4.45153C3.49763 2.70271 2.70271 3.49763 2.70271 4.45153V18.2036C2.70271 19.1575 3.49763 19.9524 4.45153 19.9524H18.2036ZM9.38 13.2751L15.4214 7.23374C15.9778 6.6773 16.7727 6.6773 17.2497 7.15425C17.8061 7.71069 17.8061 8.50561 17.2497 9.06205L10.2544 16.0573C10.0159 16.2958 9.61848 16.4548 9.30051 16.4548C8.98254 16.4548 8.58509 16.2958 8.34661 16.0573L5.24644 12.9571C4.69 12.4007 4.69 11.6058 5.24644 11.0493C5.80288 10.4929 6.5978 10.4929 7.15424 11.0493L9.38 13.2751Z" fill="url(#paint0_linear_1611_969)"/>
</g>
<defs>
<linearGradient id="paint0_linear_1611_969" x1="11.3275" y1="6.84423" x2="11.3275" y2="16.5114" gradientUnits="userSpaceOnUse">
<stop stop-color="#82CF5F"/>
<stop offset="1" stop-color="#00BCF5"/>
</linearGradient>
<clipPath id="clip0_1611_969">
<rect width="22.6551" height="22.6551" fill="white"/>
</clipPath>
</defs>
</svg>
