<svg width="34" height="38" viewBox="0 0 34 38" fill="none" xmlns="http://www.w3.org/2000/svg">
<path d="M23.0029 10.0001H11.0029C9.67733 10.0017 8.40646 10.5289 7.46912 11.4663C6.53177 12.4036 6.00449 13.6745 6.00293 15.0001V20.0001H5C3.6744 20.0017 2.40353 20.529 1.46618 21.4663C0.52884 22.4036 0.00155617 23.6745 0 25.0001V33.0001C0.00155617 34.3257 0.52884 35.5966 1.46618 36.5339C2.40353 37.4713 3.6744 37.9986 5 38.0001H17C18.3256 37.9986 19.5965 37.4713 20.5338 36.5339C21.4712 35.5966 21.9984 34.3257 22 33.0001V28.0001H23.0029C24.3285 27.9986 25.5994 27.4713 26.5367 26.5339C27.4741 25.5966 28.0014 24.3257 28.0029 23.0001V15.0001C28.0014 13.6745 27.4741 12.4036 26.5367 11.4663C25.5994 10.5289 24.3285 10.0017 23.0029 10.0001ZM20 33.0001C19.9991 33.7955 19.6828 34.5581 19.1204 35.1205C18.5579 35.6829 17.7954 35.9993 17 36.0001H5C4.20462 35.9993 3.44206 35.6829 2.87964 35.1205C2.31722 34.5581 2.00087 33.7955 2 33.0001V25.0001C2.00087 24.2047 2.31722 23.4422 2.87964 22.8798C3.44206 22.3173 4.20462 22.001 5 22.0001H17C17.7954 22.001 18.5579 22.3173 19.1204 22.8798C19.6828 23.4422 19.9991 24.2047 20 25.0001V33.0001ZM26.0029 23.0001C26.0021 23.7955 25.6857 24.5581 25.1233 25.1205C24.5609 25.6829 23.7983 25.9993 23.0029 26.0001H22V25.0001C21.9984 23.6745 21.4712 22.4036 20.5338 21.4663C19.5965 20.529 18.3256 20.0017 17 20.0001H8.00293V15.0001C8.0038 14.2047 8.32015 13.4422 8.88257 12.8797C9.44499 12.3173 10.2075 12.001 11.0029 12.0001H23.0029C23.7983 12.001 24.5609 12.3173 25.1233 12.8797C25.6857 13.4422 26.0021 14.2047 26.0029 15.0001V23.0001Z" fill="#0F0F0F"/>
<path d="M18.0029 14.0001H16.0029C15.7377 14.0001 15.4834 14.1055 15.2958 14.293C15.1083 14.4805 15.0029 14.7349 15.0029 15.0001C15.0029 15.2653 15.1083 15.5197 15.2958 15.7072C15.4834 15.8947 15.7377 16.0001 16.0029 16.0001H18.0029C18.2681 16.0001 18.5225 15.8947 18.71 15.7072C18.8976 15.5197 19.0029 15.2653 19.0029 15.0001C19.0029 14.7349 18.8976 14.4805 18.71 14.293C18.5225 14.1055 18.2681 14.0001 18.0029 14.0001Z" fill="#0F0F0F"/>
<path d="M12.0029 24.0001H10.0029C9.73771 24.0001 9.48336 24.1055 9.29582 24.293C9.10829 24.4805 9.00293 24.7349 9.00293 25.0001C9.00293 25.2653 9.10829 25.5197 9.29582 25.7072C9.48336 25.8948 9.73771 26.0001 10.0029 26.0001H12.0029C12.2681 26.0001 12.5225 25.8948 12.71 25.7072C12.8976 25.5197 13.0029 25.2653 13.0029 25.0001C13.0029 24.7349 12.8976 24.4805 12.71 24.293C12.5225 24.1055 12.2681 24.0001 12.0029 24.0001Z" fill="#0F0F0F"/>
<path d="M24.1233 4H22.1233C21.8581 4 21.6037 4.10536 21.4162 4.29289C21.2286 4.48043 21.1233 4.73478 21.1233 5C21.1233 5.26522 21.2286 5.51957 21.4162 5.70711C21.6037 5.89464 21.8581 6 22.1233 6H24.1233C24.3885 6 24.6429 5.89464 24.8304 5.70711C25.0179 5.51957 25.1233 5.26522 25.1233 5C25.1233 4.73478 25.0179 4.48043 24.8304 4.29289C24.6429 4.10536 24.3885 4 24.1233 4Z" fill="#0F0F0F"/>
<path d="M17 0H29C30.3256 0.00155881 31.5965 0.528844 32.5338 1.46619C33.4712 2.40353 33.9984 3.6744 34 5V13C33.9984 14.3256 33.4712 15.5965 32.5338 16.5338C31.5965 17.4712 30.3256 17.9984 29 18H27.9971V16H29C29.7954 15.9991 30.5579 15.6828 31.1204 15.1204C31.6828 14.5579 31.9991 13.7954 32 13V5C31.9991 4.20462 31.6828 3.44206 31.1204 2.87964C30.5579 2.31722 29.7954 2.00087 29 2H17C16.2046 2.00087 15.4421 2.31722 14.8796 2.87964C14.3172 3.44206 14.0009 4.20462 14 5V10H12V5C12.0016 3.6744 12.5288 2.40353 13.4662 1.46618C14.4035 0.52884 15.6744 0.00155617 17 0Z" fill="#0F0F0F"/>
</svg>
