<svg width="22" height="31" viewBox="0 0 22 31" fill="none" xmlns="http://www.w3.org/2000/svg">
<path d="M20.2692 8.34616C20.1126 8.34607 19.9575 8.37685 19.8128 8.43673C19.6681 8.49662 19.5367 8.58444 19.4259 8.69517C19.3152 8.80591 19.2274 8.93738 19.1675 9.08208C19.1076 9.22678 19.0768 9.38186 19.0769 9.53847V12.6158C19.0771 12.8663 19.0158 13.1129 18.8985 13.3342C18.7812 13.5555 18.6113 13.7446 18.4039 13.885L11.9231 18.2734V4.07062L14.657 6.80458C14.7677 6.91528 14.8992 7.00309 15.0438 7.063C15.1885 7.12291 15.3435 7.15374 15.5 7.15374C15.6566 7.15373 15.8116 7.12289 15.9563 7.06298C16.1009 7.00306 16.2323 6.91524 16.343 6.80453C16.4537 6.69383 16.5415 6.5624 16.6015 6.41776C16.6614 6.27311 16.6922 6.11809 16.6922 5.96153C16.6922 5.80497 16.6614 5.64994 16.6014 5.5053C16.5415 5.36066 16.4537 5.22924 16.343 5.11854L11.5738 0.349305C11.4631 0.238565 11.3317 0.150719 11.187 0.0907836C11.0424 0.0308486 10.8873 0 10.7308 0C10.5742 0 10.4192 0.0308486 10.2745 0.0907836C10.1299 0.150719 9.99846 0.238565 9.88777 0.349305L5.11854 5.11854C4.89496 5.34211 4.76936 5.64535 4.76936 5.96153C4.76935 6.27772 4.89496 6.58096 5.11853 6.80453C5.34211 7.02811 5.64535 7.15372 5.96153 7.15372C6.27772 7.15372 6.58096 7.02812 6.80453 6.80454L9.5385 4.07058V25.6215L3.05878 21.2333C2.85104 21.0932 2.68091 20.9042 2.56335 20.6829C2.4458 20.4616 2.38442 20.2148 2.38462 19.9642V17.8846C2.38462 17.5684 2.259 17.2651 2.0354 17.0415C1.8118 16.8179 1.50853 16.6923 1.19231 16.6923C0.876088 16.6923 0.57282 16.8179 0.349219 17.0415C0.125618 17.2651 2.79449e-07 17.5684 2.79449e-07 17.8846V19.9642C-0.000241583 20.6044 0.156518 21.2349 0.456546 21.8004C0.756573 22.366 1.19071 22.8493 1.72093 23.2081L9.53846 28.5016V29.8077C9.53846 30.1239 9.66408 30.4272 9.88768 30.6508C10.1113 30.8744 10.4145 31 10.7308 31C11.047 31 11.3503 30.8744 11.5739 30.6508C11.7975 30.4272 11.9231 30.1239 11.9231 29.8077V21.1533L19.7418 15.8598C20.2717 15.5008 20.7055 15.0173 21.0053 14.4518C21.3051 13.8863 21.4617 13.2559 21.4615 12.6159V9.53854C21.4616 9.38193 21.4309 9.22684 21.371 9.08213C21.3111 8.93743 21.2233 8.80594 21.1125 8.6952C21.0018 8.58446 20.8703 8.49663 20.7256 8.43674C20.5809 8.37685 20.4258 8.34607 20.2692 8.34616Z" fill="#0F0F0F"/>
</svg>
